<svg xmlns="http://www.w3.org/2000/svg" xmlns:xlink="http://www.w3.org/1999/xlink" width="585.874" height="470.789" viewBox="0 0 585.874 470.789">
  <defs>
    <linearGradient id="linear-gradient" x1="0.5" y1="1" x2="0.5" gradientUnits="objectBoundingBox">
      <stop offset="0" stop-color="gray" stop-opacity="0.251"/>
      <stop offset="0.54" stop-color="gray" stop-opacity="0.122"/>
      <stop offset="1" stop-color="gray" stop-opacity="0.102"/>
    </linearGradient>
  </defs>
  <g id="undraw_envelope_n8lc" transform="translate(-0.008 0.006)">
    <path id="Path_62" data-name="Path 62" d="M422.943,88.018c-37.562-1.081-73.334-11.181-107.471-22.231S247.448,42.514,210.786,36.66c-23.579-3.765-50.543-4.3-69.541,6.227C122.96,53.015,117.055,70.5,113.879,86.733c-2.395,12.205-3.8,25.056,2.751,36.48,4.529,7.926,12.619,14.6,18.2,22.2,19.418,26.443,5.7,59.046-15.353,84.86-9.873,12.109-21.325,23.664-28.945,36.554S79.4,294.5,86.055,307.63c6.607,13.021,22.35,22.82,39.407,29.71,34.64,13.983,75.463,17.985,115.266,20.256,88.11,5.016,176.7,2.831,265.043.668,32.693-.8,65.533-1.619,97.7-5.831,17.861-2.338,36.3-6.046,49.252-15,16.463-11.368,20.539-30.621,9.511-44.876-18.5-23.913-69.632-29.851-82.59-55.513-7.122-14.125.193-29.862,10.535-42.962,22.192-28.1,59.391-52.756,61.35-84.877,1.342-22.078-16.536-44.157-44.185-54.6-28.979-10.943-69.168-9.567-90.578,8.548C494.794,81.8,456.106,89,422.943,88.018Z" transform="translate(-82.53 -34.2)" fill="#6c63ff" opacity="0.1"/>
    <ellipse id="Ellipse_19" data-name="Ellipse 19" cx="164.598" cy="16.598" rx="164.598" ry="16.598" transform="translate(81.92 437.586)" fill="#6c63ff" opacity="0.1"/>
    <path id="Path_63" data-name="Path 63" d="M205.24,745.309s-7.3-41.377-34.408-61.882a63.4,63.4,0,0,1-23.33-33.633,101.477,101.477,0,0,1-3.272-19.3" transform="translate(-109.297 -292.925)" fill="none" stroke="#535461" stroke-miterlimit="10" stroke-width="2"/>
    <path id="Path_64" data-name="Path 64" d="M113.48,597.656c2.264,4.433,17.4,13.406,17.4,13.406s1.9-16.763-.379-21.2a9.711,9.711,0,0,0-12.636-4.138A8.705,8.705,0,0,0,113.48,597.656Z" transform="translate(-95.542 -273.112)" fill="#6c63ff"/>
    <path id="Path_65" data-name="Path 65" d="M108.177,649.583c4.472,2.553,22.328,2.327,22.328,2.327s-8.056-15.047-12.511-17.6a9.784,9.784,0,0,0-12.987,3.012A8.644,8.644,0,0,0,108.177,649.583Z" transform="translate(-91.682 -294.021)" fill="#6c63ff"/>
    <path id="Path_66" data-name="Path 66" d="M143.714,722.31c5.22.074,20.51-8.633,20.51-8.633s-15-9.148-20.222-9.228a9.255,9.255,0,0,0-9.624,8.792C134.277,718.172,138.489,722.219,143.714,722.31Z" transform="translate(-105.022 -325.014)" fill="#6c63ff"/>
    <path id="Path_67" data-name="Path 67" d="M187.921,771.859c5.129.911,21.761-5.237,21.761-5.237S196.537,755.2,191.414,754.3a9.44,9.44,0,0,0-11.039,7.133A8.959,8.959,0,0,0,187.921,771.859Z" transform="translate(-124.909 -346.58)" fill="#6c63ff"/>
    <path id="Path_68" data-name="Path 68" d="M169.432,644.269c-1.783,4.636-15.851,15.03-15.851,15.03s-3.725-16.485-1.942-21.122a9.627,9.627,0,0,1,12.12-5.35A8.809,8.809,0,0,1,169.432,644.269Z" transform="translate(-112.303 -293.706)" fill="#6c63ff"/>
    <path id="Path_69" data-name="Path 69" d="M217.672,700.883c-3.17,3.923-19.882,9.867-19.882,9.867s1.7-16.785,4.846-20.7a9.839,9.839,0,0,1,13.258-1.7,8.6,8.6,0,0,1,1.778,12.534Z" transform="translate(-132.536 -317.236)" fill="#6c63ff"/>
    <path id="Path_70" data-name="Path 70" d="M258.778,764.9c-2.423,4.37-17.827,12.9-17.827,12.9s-1.353-16.808,1.07-21.178a9.738,9.738,0,0,1,12.766-3.77A8.691,8.691,0,0,1,258.778,764.9Z" transform="translate(-151.1 -345.572)" fill="#6c63ff"/>
    <path id="Path_71" data-name="Path 71" d="M113.48,597.656c2.264,4.433,17.4,13.406,17.4,13.406s1.9-16.763-.379-21.2a9.711,9.711,0,0,0-12.636-4.138A8.705,8.705,0,0,0,113.48,597.656Z" transform="translate(-95.542 -273.112)" opacity="0.25"/>
    <path id="Path_72" data-name="Path 72" d="M108.177,649.583c4.472,2.553,22.328,2.327,22.328,2.327s-8.056-15.047-12.511-17.6a9.784,9.784,0,0,0-12.987,3.012A8.644,8.644,0,0,0,108.177,649.583Z" transform="translate(-91.682 -294.021)" opacity="0.25"/>
    <path id="Path_73" data-name="Path 73" d="M143.714,722.31c5.22.074,20.51-8.633,20.51-8.633s-15-9.148-20.222-9.228a9.255,9.255,0,0,0-9.624,8.792C134.277,718.172,138.489,722.219,143.714,722.31Z" transform="translate(-105.022 -325.014)" opacity="0.25"/>
    <path id="Path_74" data-name="Path 74" d="M187.921,771.859c5.129.911,21.761-5.237,21.761-5.237S196.537,755.2,191.414,754.3a9.44,9.44,0,0,0-11.039,7.133A8.959,8.959,0,0,0,187.921,771.859Z" transform="translate(-124.909 -346.58)" opacity="0.25"/>
    <path id="Path_75" data-name="Path 75" d="M169.432,644.269c-1.783,4.636-15.851,15.03-15.851,15.03s-3.725-16.485-1.942-21.122a9.627,9.627,0,0,1,12.12-5.35A8.809,8.809,0,0,1,169.432,644.269Z" transform="translate(-112.303 -293.706)" opacity="0.25"/>
    <path id="Path_76" data-name="Path 76" d="M217.672,700.883c-3.17,3.923-19.882,9.867-19.882,9.867s1.7-16.785,4.846-20.7a9.839,9.839,0,0,1,13.258-1.7,8.6,8.6,0,0,1,1.778,12.534Z" transform="translate(-132.536 -317.236)" opacity="0.25"/>
    <path id="Path_77" data-name="Path 77" d="M258.778,764.9c-2.423,4.37-17.827,12.9-17.827,12.9s-1.353-16.808,1.07-21.178a9.738,9.738,0,0,1,12.766-3.77A8.691,8.691,0,0,1,258.778,764.9Z" transform="translate(-151.1 -345.572)" opacity="0.25"/>
    <path id="Path_78" data-name="Path 78" d="M240.673,733.045s11.079-40.624-4.9-69.745a60.463,60.463,0,0,1-6.89-39.673,101.9,101.9,0,0,1,5.293-18.9" transform="translate(-145.647 -281.748)" fill="none" stroke="#535461" stroke-miterlimit="10" stroke-width="2"/>
    <path id="Path_79" data-name="Path 79" d="M221.325,565.139c.181,4.925,10.15,18.914,10.15,18.914s8.933-14.6,8.752-19.531a9.472,9.472,0,0,0-18.9.617Z" transform="translate(-142.745 -260.561)" fill="#6c63ff"/>
    <path id="Path_80" data-name="Path 80" d="M194.193,610.577c2.989,4.042,19.406,10.666,19.406,10.666s-.906-16.836-3.895-20.884a9.822,9.822,0,0,0-13.168-2.214,8.622,8.622,0,0,0-2.344,12.432Z" transform="translate(-130.241 -278.191)" fill="#6c63ff"/>
    <path id="Path_81" data-name="Path 81" d="M195.48,690.652c4.744,2.066,22.463-.04,22.463-.04s-9.788-14.108-14.532-16.174A9.7,9.7,0,0,0,190.86,678.8,8.726,8.726,0,0,0,195.48,690.652Z" transform="translate(-129.151 -311.636)" fill="#6c63ff"/>
    <path id="Path_82" data-name="Path 82" d="M214.6,752.864c4.308,2.8,22.146,3.538,22.146,3.538s-7.122-15.461-11.424-18.252a9.811,9.811,0,0,0-13.151,2.265,8.622,8.622,0,0,0,2.429,12.449Z" transform="translate(-138.048 -338.947)" fill="#6c63ff"/>
    <path id="Path_83" data-name="Path 83" d="M248.846,629.144c-3.623,3.555-20.946,7.682-20.946,7.682s3.674-16.5,7.292-20.057a9.862,9.862,0,0,1,13.377-.249,8.582,8.582,0,0,1,.277,12.624Z" transform="translate(-145.601 -285.782)" fill="#6c63ff"/>
    <path id="Path_84" data-name="Path 84" d="M267.827,700.24c-4.58,2.372-22.407,1.415-22.407,1.415s8.735-14.719,13.315-17.074a9.767,9.767,0,0,1,12.839,3.538A8.66,8.66,0,0,1,267.827,700.24Z" transform="translate(-153.202 -315.92)" fill="#6c63ff"/>
    <path id="Path_85" data-name="Path 85" d="M277.655,773.733c-4.093,3.068-21.835,4.97-21.835,4.97s5.978-15.891,10.071-18.959a9.839,9.839,0,0,1,13.287,1.444,8.6,8.6,0,0,1-1.523,12.545Z" transform="translate(-157.715 -348.166)" fill="#6c63ff"/>
    <path id="Path_86" data-name="Path 86" d="M942.83,327.618c.34-.928-2.208-6.074-2.208-6.329s-2.632-3.125-2.632-4.727S934.5,311.5,934.5,311.5s-4.67-1.942-5.18-6.159-5.6-4.308-5.61-4.308h0s0-.385.034-.968a14.141,14.141,0,0,0-.628-4.937,5.01,5.01,0,0,0-2.893-2.451s-.51-3.289-1.528-4.3a4.846,4.846,0,0,1-1.195-4.552c.51-1.6-.679-5.661-3.148-6.227s-5.265-1.517-5.265-1.517-.277.051-.679.108l-.34-.108a15.169,15.169,0,0,1-1.789.221,2.18,2.18,0,0,1-1.438-.475c-.855-.928-7.739-2.7-9.012-2.7s-4.931-1.7-4.931-1.7l-3.646-2.785c-1.025-.781-2.921-3.963-3.2-4.41l-.034-.062h0a15.287,15.287,0,0,1-.77-2.219h0a20.067,20.067,0,0,0,3.159-4.342c.091-.164.17-.334.249-.5a2.034,2.034,0,0,0,.566-.091.711.711,0,0,0,.221-.085,3.708,3.708,0,0,0,1.806-2.157h0a5.5,5.5,0,0,0,.164-.566.338.338,0,0,1,.04-.192,1.68,1.68,0,0,0,.079-.385c.023-.13.028-.147.04-.215s.04-.255.057-.385a.822.822,0,0,0,0-.209,3.389,3.389,0,0,1,.062-.481h0a17.142,17.142,0,0,1,.266-1.783h0c.51-2.264,1.885-4.223,2.865-6.34h0c.142-.3.272-.611.391-.923s.238-.679.334-1.025l.085-.317c.062-.249.119-.5.17-.759a2.385,2.385,0,0,1,.062-.34c.057-.351.108-.7.136-1.059a13.122,13.122,0,0,0-.843-5.95c-.64-1.585-1.585-3.012-2.231-4.6-.979-2.4-1.234-5.1-2.429-7.4a8.822,8.822,0,0,0-10.581-4.314c-1.851.685-3.453,2.021-5.327,2.621-2.514.8-5.2.2-7.8-.164s-5.474-.391-7.563,1.308c-2.406,1.953-3.068,5.627-5.327,7.773-.945.9-2.129,1.478-3.131,2.31a5.1,5.1,0,0,0-1.568,2.146.744.744,0,0,1-.057.181c-.017.062-.04.142-.057.215s-.034.17-.045.255a.893.893,0,0,0,0,.176,3,3,0,0,0,0,.453h0a3.677,3.677,0,0,0,.073.425q0,.059,0,.119a2.963,2.963,0,0,0,.108.351.316.316,0,0,0,0,.068c.045.13.1.255.147.385l.085.192.068.159a9.842,9.842,0,0,1,.787,1.959,2.214,2.214,0,0,1-.074,1.3,3.963,3.963,0,0,1-.945,1.234,17.548,17.548,0,0,0-3.833,6.142c-.1.26-.193.521-.277.793h0l.119.028a4.82,4.82,0,0,0,.742.164c.142,0,.283.034.43.045a6.653,6.653,0,0,0,1.732-.136c.142-.028.289-.062.43-.1a10.678,10.678,0,0,0,1.7-.628v.8a20.08,20.08,0,0,0,11.147,17.951,5.376,5.376,0,0,0,.074.566c.023.2.04.306.057.459l-.227-.221s-1.534-.759-2.978,1.432a9.644,9.644,0,0,1-4.161,3.21s-15.466,2.446-16.061,4.472l-7.224.419s-2.553.34-2.831,5.661-1.613,5.825-1.613,5.825-2.972,5.231-2.717,7.926a4.438,4.438,0,0,1-2.264,4.053l-.34,4.806a3.26,3.26,0,0,0-3.572,2.87,11.233,11.233,0,0,1-2.123,4.812s-4.676,3.884-4.931,7.173l-2.887,1.772s-6.714-1.517-8.243-4.218l-.47-.442a.422.422,0,0,1-.04-.068.157.157,0,0,0,0,.034c-1.008-.951-3.136-2.932-2.831-2.48a2.061,2.061,0,0,1,.136,1.359l-.5-.566-1.336-1.483s-10.852-10.19-17.227-10.971h0c-.085-.164-.492-1.766-1.579-.764a8.86,8.86,0,0,0-.062,13.021L783.7,324.2l.26.192,2.185,2.831c-.368.883-.679,1.738-.934,2.519a.107.107,0,0,1-.028.074c-.051.17-.108.328-.159.487l-.051.17c-.045.159-.1.317-.142.464s-.051.187-.079.277,0,.108-.045.159c-.238.849-.4,1.5-.476,1.863l-.566-.175.566.238v.091l-.034.176.521.226c2.978,1.3,17.838,7.812,18.6,8.8.849,1.093,6.454,4.3,11.554,1.6s6.227-6.839,6.227-6.839,4.925-6.833,5.095-7.846,4-2.2,4-2.2.34,11.322-1.613,15.444-5.61,22.452-5.61,22.452a2.694,2.694,0,0,1,.725-.045c-.136.662-.215,1.059-.215,1.059a2.526,2.526,0,0,1,.9,0c-.272,2.083-1.834,11.753-1.834,11.753s-.51,4.387-1.359,5.9-.934,9.454-.934,9.454l-1.359,5.735a11.083,11.083,0,0,0,.515.991h0a14.717,14.717,0,0,0,3.912,5.055,10.356,10.356,0,0,1-.685,2.627,9.1,9.1,0,0,0-.679,4.048s-1.444,6.5-1.274,8.356-.934,6.414-.934,6.414l-1.579,14.64s-1.019,12.743-.51,16.208a30.871,30.871,0,0,1-.345,8.18s1.019,10.043.764,11.141-1.529,5.82-.764,8.441.345,9.788.345,9.788.51,9.448,1.1,12.488a21.678,21.678,0,0,1-.17,6.924s-.566,6.493-.849,6.493-2.463,4.472,2.038,8.865,1.7,3.708,1.7,3.708-3.566-1.772-3.148,1.857c.408,3.453.968,2.553,1.019,2.457l-.849,2.774.566.085-.493.566a13.19,13.19,0,0,1-1.7,1.778,3.716,3.716,0,0,0-1.132,2.446s-6.284,6.839-12.149,10.3c-3.085,1.823-5.746,3.363-6.907,4.636-1.047,1.132-.878,2.072,1.3,2.791,4.591,1.517,12.658,2.264,18.438.34a21.546,21.546,0,0,0,9.007-5.825,12.937,12.937,0,0,1,7.229-1.183c3.572.674,10.705-3.963,10.705-3.963l-.13-1.2-.379-3.448a2.712,2.712,0,0,1-.594-2.106,10.93,10.93,0,0,0-.3-3.034c-.057-.334-.125-.668-.187-.979l.651-.119s-.844-4.308.685-5.152,1.1-11.888,1.1-11.888-1.947-2.531-2.972-2.949-.085-5.661.091-6.335,1.529-13.757,1.529-13.757-.51-4.133.17-5.9-.815-8.565-.815-8.565a1.565,1.565,0,0,1,.43-1.857c.94-1.013.566-10.043.566-10.043s-.079-4.557-.079-5.74a20.822,20.822,0,0,1,1.953-6.918c.934-1.432.34-5.91.34-5.91h0l.051-.334a3.353,3.353,0,0,1,.079-.481l.074-.447a63.748,63.748,0,0,1,1.681-7.365c1.132-3.544,2.378-9.788,2.378-9.788l7.926-20.607.091-.243s3.651,6.754,3.651,13.021c0,0,.934,7.512.679,9.539s.753,11.509.753,11.509,1.1,13.672,1.1,14.266S865.244,476.8,866.1,478.4s-.855,6.5-1.364,7,.17,12.913.17,12.913-1.274,9.788-1.529,11.815-1.274,9.794-.425,12.828.51,3.459.51,3.459,3.063,3.125,1.274,3.4a4.67,4.67,0,0,0-3.4,6.154,78.824,78.824,0,0,0,3.742,9.058s.526-.119,1.4-.294v1l.1,5.027s.566,4.812.255,5.91c-.249.8-.566,4.586-.753,6.561-.062.719-.1,1.2-.1,1.2s0,4.472,9.431,3.125,11.13-5.061,11.13-5.061a2.25,2.25,0,0,1,.068-.464c.142-.855.447-2.666.7-3.674.34-1.353-2.717-7.427-2.717-7.427s-.51-4.133-1.364-5.061a4.484,4.484,0,0,1-.679-1.772c-.079-.34-.147-.7-.2-1.042a6.244,6.244,0,0,1,.628.113s-.51-2.955,1.449-3.884,1.444-2.865,1.189-3.714.764-5.571.764-5.571a2.746,2.746,0,0,1,.679-2.695c1.195-1.189,2.123-9.454,2.123-9.454l.17-31.9s.6-5.661-.079-7.926-1.364-6.663-.43-7.846.085-6.663.085-6.663,0-11.566,1.279-14.43.849-21.014.849-21.014l.334-11.888s2.78-2.627,2.123-16.321c2.961-.187,6.3-.294,6.793.113.934.764,6.969,4.642,10.535,2.2a47.617,47.617,0,0,0,4.246-3.289L913.6,373.581c.934,1.41,1.5,2.349,1.5,2.349,0-3.544,10.026-15.025,10.026-15.025s9.347-12.064,11.385-13.5,6.035-9.03,6.035-9.03a36.583,36.583,0,0,1,2.044-4.218C945.553,332.6,942.49,328.547,942.83,327.618ZM920.9,336.472c-2.547.255-7.926,6.08-7.988,7.359a5.136,5.136,0,0,1-1.132,2.264c-.04-.509-.085-1.03-.125-1.557-.6-7.456-1.251-16.542-.957-17.425.515-1.517.34-8.35.34-8.35h0l.091-.13c1.7,5.293,7.037,11.537,7.037,11.537s.934,2.7,2.038,2.785S920.9,336.472,920.9,336.472Z" transform="translate(-381.123 -113.539)" fill="url(#linear-gradient)"/>
    <path id="Path_87" data-name="Path 87" d="M795.34,412.092s3.1-16.247,13.066-16.332l7.286,14.991-4.857,3.351S800.282,414.436,795.34,412.092Z" transform="translate(-391.805 -191.079)" fill="#65617d"/>
    <path id="Path_88" data-name="Path 88" d="M815.692,410.764l-4.857,3.351a57.256,57.256,0,0,1-12.738-1.07,15.241,15.241,0,0,1-2.757-.94.927.927,0,0,1,.057-.26v-.062a36.662,36.662,0,0,1,1.885-5.967c.311-.73.657-1.483,1.03-2.236,1.461-2.831,3.51-5.559,6.318-6.924a8.589,8.589,0,0,1,3.323-.866h.442l.159.334,2.463,5.061Z" transform="translate(-391.805 -191.092)" opacity="0.1"/>
    <path id="Path_89" data-name="Path 89" d="M971.614,505.854s10.473-1,11.39-.249,6.867,4.6,10.388,2.174,1.172-10.886,1.172-11.22-.334-12.313-.334-12.313l-6.284-8.458-7.869-14.821L964,459.37l.419,23.539-.085,12.058Z" transform="translate(-464.985 -218.678)" fill="#65617d"/>
    <path id="Path_90" data-name="Path 90" d="M971.614,505.854s10.473-1,11.39-.249,6.867,4.6,10.388,2.174,1.172-10.886,1.172-11.22-.334-12.313-.334-12.313l-6.284-8.458-7.869-14.821L964,459.37l.419,23.539-.085,12.058Z" transform="translate(-464.985 -218.678)" opacity="0.1"/>
    <path id="Path_91" data-name="Path 91" d="M796.427,383.188s-.838,10.218-7.2,10.383c0,0-1.806-1.087-4.234-2.9-5.593-4.184-14.464-12.228-12.013-19.712,3.516-10.717,20.6,9.058,20.6,9.058l1.308,1.472Z" transform="translate(-381.921 -178.937)" fill="#fbbebe"/>
    <path id="Path_92" data-name="Path 92" d="M805.543,393.7s-.838,10.218-7.2,10.383c0,0-1.806-1.087-4.234-2.9l-.538-.7a8.373,8.373,0,0,0,3.487.94,4.716,4.716,0,0,0,4.529-2.87,35.948,35.948,0,0,0,1.761-4.053A11.816,11.816,0,0,0,804,392Z" transform="translate(-391.037 -189.447)" opacity="0.1"/>
    <path id="Path_93" data-name="Path 93" d="M803.162,411.549,801.73,409.7l-4.823-6.227L794.45,400.3a8.277,8.277,0,0,0,3.487.94,4.665,4.665,0,0,0,4.529-2.865,36.577,36.577,0,0,0,1.761-4.059c.793-2.264.781-3.4.5-3.81a23.613,23.613,0,0,1,2.768,2.457l.034.034.464.436.17.34,2.429,4.852v.2C810.828,400.385,811.649,410.162,803.162,411.549Z" transform="translate(-391.419 -188.774)" fill="#e7effd"/>
    <path id="Path_94" data-name="Path 94" d="M862.73,798.283s-7.037,4.608-10.552,3.963a12.887,12.887,0,0,0-7.122,1.178,21.219,21.219,0,0,1-8.882,5.78c-5.661,1.925-13.643,1.166-18.167-.34-2.14-.713-2.315-1.63-1.285-2.768,1.132-1.268,3.77-2.791,6.793-4.6,5.78-3.431,11.973-10.19,11.973-10.19a3.584,3.584,0,0,1,1.093-2.423,13.055,13.055,0,0,0,1.7-1.766c.9-1.064,1.744-2.174,1.744-2.174l20.7.6s.351,1.489.628,3.012a10.907,10.907,0,0,1,.289,3.017,2.729,2.729,0,0,0,.566,2.089l.374,3.4Z" transform="translate(-400.818 -359.938)" fill="#65617d"/>
    <path id="Path_95" data-name="Path 95" d="M958.83,805.239c-.249,1-.566,2.8-.685,3.64l-.074.464s-1.7,3.685-10.966,5.027-9.3-3.1-9.3-3.1.034-.476.091-1.195a64.97,64.97,0,0,1,.747-6.51c.328-1.087-.255-5.865-.255-5.865l-.1-4.987-.074-3.465,15.415-1.6a27.988,27.988,0,0,0,.5,3.431,4.387,4.387,0,0,0,.674,1.761c.838.923,1.336,5.027,1.336,5.027S959.164,803.9,958.83,805.239Z" transform="translate(-453.621 -361.114)" fill="#65617d"/>
    <path id="Path_96" data-name="Path 96" d="M877.641,785.484s.351,1.489.628,3.012c-2.236.413-12.007,2.106-14.447.923-2.768-1.342-8.712-2.095-8.712-2.095l.1-.34c.9-1.064,1.744-2.174,1.744-2.174Z" transform="translate(-417.739 -359.882)" opacity="0.1"/>
    <path id="Path_97" data-name="Path 97" d="M954.445,791.081c-3.906-.662-12.454.94-15.851,1.63l-.074-3.465,15.415-1.6A27.987,27.987,0,0,0,954.445,791.081Z" transform="translate(-453.929 -361.114)" opacity="0.1"/>
    <path id="Path_98" data-name="Path 98" d="M925.781,530.542l-.334,11.809s.419,18.008-.838,20.856-1.257,14.323-1.257,14.323.838,5.44-.085,6.612-.249,5.525.419,7.79.085,7.875.085,7.875l-.17,31.657s-.917,8.2-2.095,9.38a2.746,2.746,0,0,0-.668,2.678s-1,4.687-.753,5.531.753,2.763-1.172,3.68-1.427,3.855-1.427,3.855c-4.6-1.093-17.668,1.846-17.668,1.846a78.582,78.582,0,0,1-3.685-8.967,4.636,4.636,0,0,1,3.351-6.108c1.755-.255-1.257-3.351-1.257-3.351s.334-.419-.5-3.431.164-10.756.419-12.738,1.506-11.724,1.506-11.724-.668-12.307-.164-12.811,2.174-5.361,1.342-6.952-2.185-12.058-2.185-12.647-1.081-14.153-1.081-14.153-1.008-9.465-.753-11.475-.674-9.46-.674-9.46c0-6.227-3.6-12.9-3.6-12.9l-.091.243-7.761,20.448s-1.257,6.193-2.344,9.709a63.516,63.516,0,0,0-1.636,7.275l-.074.447a2.823,2.823,0,0,1-.074.47l-.051.34h0s.566,4.438-.34,5.865a21.2,21.2,0,0,0-1.925,6.867c0,1.172.085,5.7.085,5.7s.334,8.962-.566,9.969a1.607,1.607,0,0,0-.425,1.84s1.506,6.793.838,8.543-.164,5.859-.164,5.859-1.342,12.987-1.506,13.655-1.093,5.865-.085,6.284,2.927,2.927,2.927,2.927.425,10.977-1.087,11.809-.674,5.1-.674,5.1-12.137,2.344-14.9,1-8.712-2.095-8.712-2.095l.832-2.751c-.051.1-.606.991-1-2.44-.413-3.6,3.1-1.846,3.1-1.846s2.763.674-1.7-3.68-2.264-8.8-2.01-8.8.844-6.442.844-6.442a21.439,21.439,0,0,0,.164-6.873c-.589-3.017-1.087-12.4-1.087-12.4s.419-7.116-.334-9.709.5-7.292.753-8.378-.781-11.028-.781-11.028a30.918,30.918,0,0,0,.334-8.118c-.5-3.431.5-16.083.5-16.083l1.506-14.572s1.087-4.529.923-6.369,1.262-8.288,1.262-8.288a9.057,9.057,0,0,1,.668-4.019c.838-1.7,1.172-7.2,1.172-7.2l8.044-18.427,3.963-16.247,53.175-.5s.2,1.41.521,3.963.776,6.346,1.279,11.028c.464,4.251.974,9.25,1.466,14.815C929.178,527.361,925.781,530.542,925.781,530.542Z" transform="translate(-416.576 -227.538)" fill="#3f3d56"/>
    <path id="Path_99" data-name="Path 99" d="M951.616,299.908l-12.4,13.236s-15.908-6.369-14.232-8.543c.645-.844.566-3.5.17-6.437-.566-4.642-1.846-9.981-1.846-9.981s27.8-4.529,25.475.164a7.687,7.687,0,0,0-.175,5.565A20.945,20.945,0,0,0,951.616,299.908Z" transform="translate(-447.33 -143.55)" fill="#fbbebe"/>
    <path id="Path_100" data-name="Path 100" d="M948.768,288.365c-.855,1.7-1.262,1.88-.73,3.731-3.634,3.889-8.26,8.158-14.011,8.158a19.848,19.848,0,0,1-8.871-2.078c-.566-4.642-1.845-9.981-1.845-9.981S951.112,283.666,948.768,288.365Z" transform="translate(-447.33 -143.556)" opacity="0.1"/>
    <path id="Path_101" data-name="Path 101" d="M946.9,259.5a19.937,19.937,0,1,1-39.874,0c0-.1,0-.192,0-.283a19.933,19.933,0,1,1,39.866.283Z" transform="translate(-440.264 -123.249)" fill="#fbbebe"/>
    <path id="Path_102" data-name="Path 102" d="M939.586,498.719c-2.638,0-11.43.1-21.258.249h-.119l-3.244.057h-.1c-11.651.187-23.137-2.089-27.74-1.659-9.794.917,3.521-9.058,3.521-9.058a81.959,81.959,0,0,0,22.322,2.264l2.831-.147c8.9-.5,17.85-1.342,22.526-2.746C938.635,490.273,939.082,494.037,939.586,498.719Z" transform="translate(-430.069 -230.961)" opacity="0.1"/>
    <path id="Path_103" data-name="Path 103" d="M939.586,497.834c-2.638,0-11.43.1-21.258.249h-.119l-3.244.057h-.1c-11.651.187-23.137-2.089-27.74-1.659-9.794.923,3.521-9.058,3.521-9.058a81.964,81.964,0,0,0,22.322,2.264l2.831-.147c8.9-.5,17.85-1.342,22.526-2.74C938.635,489.393,939.082,493.141,939.586,497.834Z" transform="translate(-430.069 -230.58)" fill="#5f5d7e"/>
    <path id="Path_104" data-name="Path 104" d="M911.858,317.852l-15.41,7.207L884.56,417.012s7.031-3.182,11.056-1.172,16.417.17,16.417.17,9.058-.5,10.388.5S939.5,412.3,939.5,412.3s2.831-6.363.668-7.359.691-10.875.691-10.875L939.5,327.736l-2.683-8.543-7.2-4.353-7.359,5.859-3.516.5Z" transform="translate(-430.517 -155.968)" opacity="0.1"/>
    <path id="Path_105" data-name="Path 105" d="M911.858,316.077l-15.41,7.2L884.56,415.238s7.031-3.182,11.056-1.172,16.417.164,16.417.164,9.058-.5,10.388.5,17.085-4.189,17.085-4.189,2.831-6.363.668-7.359.679-10.9.679-10.9L939.5,325.956l-2.683-8.537-7.2-4.359-7.359,5.865-3.516.5Z" transform="translate(-430.517 -155.196)" fill="#e7effd"/>
    <path id="Path_106" data-name="Path 106" d="M923.145,324.876s4.438,5.276,4.359,6.369-.255,3.685-.255,3.685l-3.351,6.793s-1.84,8.458-1.84,10.218-2.932,16.983-2.932,16.983L915.6,392.379l-4.438,30.74,4.529,7.784,5.355-4.529,7.122-54.777,1.506-10.8s1.591-19.429,1.591-21.439a68.7,68.7,0,0,0-.917-7.286s1.087-5.027,5.61-6.227-.334-.255-.334-.255l-2.6-2.089-2.264.917S924.486,322.532,923.145,324.876Z" transform="translate(-442.058 -159.726)" opacity="0.1"/>
    <path id="Path_107" data-name="Path 107" d="M922.263,324.022s4.444,5.276,4.359,6.363-.255,3.685-.255,3.685l-3.346,6.793s-1.846,8.458-1.846,10.218-2.932,16.983-2.932,16.983l-3.516,23.448-4.438,30.74,4.529,7.79,5.361-4.529,7.116-54.772,1.512-10.8s1.591-19.429,1.591-21.439a68.7,68.7,0,0,0-.917-7.286s1.087-5.027,5.61-6.2-.334-.249-.334-.249l-2.6-2.095-2.264.923S923.6,321.672,922.263,324.022Z" transform="translate(-441.68 -159.37)" fill="#6c63ff"/>
    <path id="Path_108" data-name="Path 108" d="M923.7,309.51s-.674.5-.838,3.855-2.514,10.886-2.514,10.886,8.713-6.029,13.066-5.361Z" transform="translate(-446.045 -153.656)" opacity="0.1"/>
    <path id="Path_109" data-name="Path 109" d="M923.7,307.74s-.674.5-.838,3.85-2.514,10.886-2.514,10.886,8.713-6.029,13.066-5.355Z" transform="translate(-446.045 -152.888)" fill="#e7effd"/>
    <path id="Path_110" data-name="Path 110" d="M957.745,304.78,944,316.838s11.56,6.867,13.066,8.543,3.012-16.417,3.012-16.417Z" transform="translate(-456.307 -151.604)" opacity="0.1"/>
    <path id="Path_111" data-name="Path 111" d="M958.644,303,944.91,315.064s11.554,6.867,13.072,8.543,3.012-16.417,3.012-16.417Z" transform="translate(-456.702 -150.831)" fill="#e7effd"/>
    <path id="Path_112" data-name="Path 112" d="M896.557,309.414s-1.506-.753-2.927,1.427a9.51,9.51,0,0,1-4.1,3.182s-15.245,2.429-15.851,4.438l-7.122.419s-2.514.334-2.763,5.61-1.591,5.78-1.591,5.78-2.932,5.191-2.678,7.869a4.4,4.4,0,0,1-2.265,4.025l10.467,27.219s.34,11.22-1.591,15.325-5.525,22.277-5.525,22.277,1.506-.334,1.421.668-1.789,11.979-1.789,11.979-.5,4.353-1.342,5.865-.923,9.375-.923,9.375l-1.336,5.7s3.182,7.122,8.039,6.114,13.649-20.012,13.649-20.012l5.616-20.522,4.353-20.267,1.257-13.734,2.01-30.4,2.932-20.1S897.734,310.823,896.557,309.414Z" transform="translate(-418.402 -153.559)" opacity="0.1"/>
    <path id="Path_113" data-name="Path 113" d="M895.633,307.643s-1.511-.753-2.932,1.421a9.46,9.46,0,0,1-4.1,3.182s-15.24,2.429-15.851,4.438l-7.122.419s-2.508.34-2.763,5.616-1.591,5.774-1.591,5.774-2.932,5.2-2.678,7.875a4.39,4.39,0,0,1-2.264,4.019L866.8,367.606s.334,11.22-1.591,15.325-5.531,22.282-5.531,22.282,1.506-.34,1.427.668-1.846,11.973-1.846,11.973-.5,4.359-1.342,5.865S857,433.1,857,433.1l-1.342,5.7s3.182,7.116,8.039,6.114,13.666-20.018,13.666-20.018l5.61-20.516,4.353-20.267,1.257-13.74,2.01-30.4,2.932-20.1S896.805,309.064,895.633,307.643Z" transform="translate(-417.977 -152.791)" fill="#65617d"/>
    <path id="Path_114" data-name="Path 114" d="M815.3,410.365l-4.857,3.351a57.255,57.255,0,0,1-12.738-1.07l-2.7-1.2-.566-.238.566.176a11.05,11.05,0,0,0,6.708.238c6.873-2.315,6.114-13.666,5.848-16.23a2.145,2.145,0,0,0-.057-.487.158.158,0,0,1,0-.034l.04.068a3.749,3.749,0,0,0,.317.442c.1.108.2.221.306.328h0l2.429,4.852v.2Z" transform="translate(-391.415 -190.692)" opacity="0.1"/>
    <path id="Path_115" data-name="Path 115" d="M832.511,364.4l-2.349.668-.334,4.772s-2.763-.419-3.516,2.831a11.653,11.653,0,0,1-2.095,4.778s-4.608,3.85-4.857,7.116l-2.831,1.761s-6.618-1.512-8.124-4.189c0,0,3.017,21.609-13.066,16.332,0,0,18.008,7.869,18.846,8.962s6.363,4.268,11.39,1.591a12.084,12.084,0,0,0,6.114-6.793s4.857-6.793,5.021-7.79,3.963-2.18,3.963-2.18l7.2-17.419Z" transform="translate(-391.805 -177.472)" fill="#65617d"/>
    <path id="Path_116" data-name="Path 116" d="M963.587,314.056,966.016,303s1.087,3.6,2.18,4.438l3.6,2.768s3.6,1.67,4.857,1.67,8.039,1.761,8.877,2.683,4.189.249,4.189.249,2.763.923,5.191,1.506,3.6,4.608,3.1,6.227a4.829,4.829,0,0,0,1.172,4.529c1.008,1.008,1.512,4.274,1.512,4.274a4.9,4.9,0,0,1,2.831,2.429c.838,1.84.566,5.859.566,5.859l-12.454,17.589s.164,6.793-.334,8.294,1.755,27.134,1.755,27.134l2.6,44.049a46.576,46.576,0,0,1-4.189,3.267c-.753.334-1.506-15.574-1.506-16.163s-19.344-28.979-19.344-28.979-2.6-4.184-2.6-5.1-2.429-9.38-2.429-9.38L961.9,364.016Z" transform="translate(-464.073 -150.831)" opacity="0.1"/>
    <path id="Path_117" data-name="Path 117" d="M1005.981,338.665v.962l-12.455,17.549h0s.17,6.793-.328,8.288c-.294.878.345,9.89.94,17.295.419,5.338.815,9.839.815,9.839l1.1,18.682,1.489,25.362a46.378,46.378,0,0,1-4.184,3.266c-.753.334-1.506-15.574-1.506-16.163s-19.35-28.974-19.35-28.974-2.6-4.195-2.6-5.1-2.429-9.38-2.429-9.38l-3.68-16.332,1.67-49.914L966.84,303s2.095,3.606,3.182,4.438l3.6,2.763s3.6,1.7,4.857,1.7,8.044,1.755,8.882,2.678,4.184.249,4.184.249,2.763.923,5.191,1.506,3.606,4.608,3.1,6.227a4.818,4.818,0,0,0,1.172,4.529c1,1,1.506,4.268,1.506,4.268a4.925,4.925,0,0,1,2.831,2.434A12.858,12.858,0,0,1,1005.981,338.665Z" transform="translate(-464.898 -150.831)" fill="#65617d"/>
    <path id="Path_118" data-name="Path 118" d="M857.48,760.14c.413,0,18,.668,17.668,3.516S857.48,760.14,857.48,760.14Z" transform="translate(-418.767 -349.178)" opacity="0.1"/>
    <path id="Path_119" data-name="Path 119" d="M864.43,768.57s11.809,1.925,8.707,3.685S864.43,768.57,864.43,768.57Z" transform="translate(-421.782 -352.836)" opacity="0.1"/>
    <path id="Path_120" data-name="Path 120" d="M942,756.88s19.6,1.7,16.666,3.855-9.884,2.508-10.19,2.593S942,756.88,942,756.88Z" transform="translate(-455.439 -347.764)" opacity="0.1"/>
    <path id="Path_121" data-name="Path 121" d="M937.81,772.12s10.886,1.84,11.22,3.963S937.81,772.12,937.81,772.12Z" transform="translate(-453.621 -354.376)" opacity="0.1"/>
    <path id="Path_122" data-name="Path 122" d="M948.46,683.06s9.964,2.344,10.552,3.963Z" transform="translate(-458.242 -315.734)" opacity="0.1"/>
    <path id="Path_123" data-name="Path 123" d="M878.744,695.78s-5.191,1.506-.164,4.529S878.744,695.78,878.744,695.78Z" transform="translate(-426.97 -321.253)" opacity="0.1"/>
    <path id="Path_124" data-name="Path 124" d="M921.24,552.054c.566,0,9.714-3.012,12.9-1.7a21.224,21.224,0,0,0,7.116,1.353Z" transform="translate(-446.432 -258.012)" opacity="0.1"/>
    <path id="Path_125" data-name="Path 125" d="M914.224,566.943l-.091.832-7.784,20.448s-1.257,6.193-2.344,9.709a63.516,63.516,0,0,0-1.636,7.275l6.912-42.866Z" transform="translate(-438.244 -263.355)" opacity="0.1"/>
    <path id="Path_126" data-name="Path 126" d="M940.768,500.187l-3.244.057h-.1l-1.9-8.441,2.831-.153Z" transform="translate(-452.627 -232.684)" fill="#3f3d56"/>
    <path id="Path_127" data-name="Path 127" d="M988.745,482.5l-2.089,1.7-6.958,5.735s-18.846,10.054-24.037.5c-4.574-8.412,16.791-14.419,21.937-15.727.7-.176,1.093-.266,1.093-.266Z" transform="translate(-461.09 -225.217)" fill="#fbbebe"/>
    <path id="Path_128" data-name="Path 128" d="M872.42,343.24s3.685,1.7,4.529,4.019S872.42,343.24,872.42,343.24Z" transform="translate(-425.249 -168.291)" opacity="0.1"/>
    <path id="Path_129" data-name="Path 129" d="M849.462,387.62s-5.361,6.533-3.182,9.058S849.462,387.62,849.462,387.62Z" transform="translate(-413.681 -187.547)" opacity="0.1"/>
    <path id="Path_130" data-name="Path 130" d="M1017.561,349.75s-5.027.5-5.191,4.857Z" transform="translate(-485.972 -171.115)" opacity="0.1"/>
    <path id="Path_131" data-name="Path 131" d="M939.29,458.665c.5-.5,12.058-17.589,14.719-16.078Z" transform="translate(-454.263 -211.355)" opacity="0.1"/>
    <path id="Path_132" data-name="Path 132" d="M946.9,259.5a19.813,19.813,0,0,1-2.361,9.409l-.147-.028c-1.262-.266-1.919-1.738-2.887-2.655a3.923,3.923,0,0,0-4.529-.634,4.6,4.6,0,0,0-2.219,4.3c-.64-2.683-.436-5.531-1.059-8.22s-2.5-5.406-5.067-5.452c-1.132,0-2.395.4-3.2-.425-.481-.5-.566-1.285-.94-1.9-1.834-2.966-7.422-1.466-9.7.057s-4.925,3.963-7.761,5.265a19.933,19.933,0,1,1,39.866.283Z" transform="translate(-440.266 -123.249)" opacity="0.1"/>
    <path id="Path_133" data-name="Path 133" d="M920.643,245.161c.362.606.458,1.393.94,1.891.8.832,2.095.4,3.2.425,2.57.045,4.444,2.763,5.067,5.452s.419,5.537,1.059,8.22a4.591,4.591,0,0,1,2.225-4.3,3.923,3.923,0,0,1,4.529.634c.968.917,1.625,2.389,2.887,2.655s2.48-.945,2.938-2.264a35.873,35.873,0,0,0,.725-4.172c.566-2.61,2.265-4.755,3.216-7.241a13.117,13.117,0,0,0-.085-9.352c-.628-1.574-1.562-2.989-2.2-4.557-.962-2.389-1.212-5.1-2.389-7.359a8.674,8.674,0,0,0-10.433-4.28c-1.817.679-3.4,2-5.248,2.6-2.474.8-5.123.2-7.682-.159s-5.4-.391-7.456,1.291c-2.372,1.942-3.017,5.588-5.248,7.716-.934.894-2.095,1.466-3.08,2.264a4.078,4.078,0,0,0-1.7,3.4c.147,1.732,1.846,3.306,1.217,4.914a3.964,3.964,0,0,1-.928,1.228,17.508,17.508,0,0,0-4.053,6.9c4.478,1.4,9.33-3.538,12.839-5.876C913.227,243.7,918.809,242.189,920.643,245.161Z" transform="translate(-436.409 -115.009)" fill="#7c5c5c"/>
    <path id="Path_134" data-name="Path 134" d="M1005.8,482.5l-2.089,1.7c-1.84-3.057-9.386-9.171-9.386-9.171l.328-.317c.7-.175,1.093-.266,1.093-.266Z" transform="translate(-478.14 -225.217)" opacity="0.1"/>
    <path id="Path_135" data-name="Path 135" d="M1008.191,477.35s-.753,1.868-1.523,3.476-1.619,3.08-1.659,1.885c-.085-2.344-9.8-10.218-9.8-10.218l1.319-1.279,1.523-1.483Z" transform="translate(-478.526 -223.173)" fill="#e7effd"/>
    <path id="Path_136" data-name="Path 136" d="M1008.586,453.749l1.1,18.682c-2.6-4.048-9.748-14.419-14.34-14.085l11.124-12.8a15.172,15.172,0,0,0,1.279-1.636C1008.172,449.248,1008.586,453.749,1008.586,453.749Z" transform="translate(-478.587 -211.97)" opacity="0.1"/>
    <path id="Path_137" data-name="Path 137" d="M1009.2,477.341s-.753,1.868-1.523,3.476c-2.921-4-6.935-8.729-10.139-9.624l1.523-1.483Z" transform="translate(-479.537 -223.164)" opacity="0.1"/>
    <path id="Path_138" data-name="Path 138" d="M1017,363.51l3.017,2.344s5.021.085,5.525,4.274,5.095,6.114,5.095,6.114,3.431,3.431,3.431,5.021,2.6,4.438,2.6,4.693,2.513,5.361,2.174,6.278,2.683,4.942,1.761,6.448a37.154,37.154,0,0,0-2.01,4.189s-3.934,7.541-5.944,8.962-11.226,13.4-11.226,13.4-9.879,11.39-9.879,14.906c0,0-9.624-16.078-15.33-15.659l11.141-12.817s1.925-2.089,2.01-3.346,5.361-7.037,7.875-7.286c0,0,.413-3.436-.674-3.521s-2.01-2.763-2.01-2.763-7.359-8.707-7.456-14.238S1017,363.51,1017,363.51Z" transform="translate(-478.96 -177.086)" fill="#65617d"/>
    <path id="Path_139" data-name="Path 139" d="M1036.373,377.56s-7.031,5.2-5.525,6.867S1036.373,377.56,1036.373,377.56Z" transform="translate(-493.897 -183.182)" opacity="0.1"/>
    <path id="Path_140" data-name="Path 140" d="M1041.36,414.013s13.066-4.189,14.408,0Z" transform="translate(-498.55 -198.19)" opacity="0.1"/>
    <path id="Path_141" data-name="Path 141" d="M862.73,807.625s-7.037,4.608-10.552,3.963a12.887,12.887,0,0,0-7.122,1.178,21.219,21.219,0,0,1-8.882,5.78c-5.661,1.925-13.643,1.166-18.167-.34-2.14-.713-2.315-1.63-1.285-2.768,4.919.979,15.908,2.932,18.869,1.512a78.738,78.738,0,0,0,9.38-5.865s7.207-1,8.209-1c.713,0,6.278-2.3,9.42-3.612Z" transform="translate(-400.818 -369.28)" opacity="0.1"/>
    <path id="Path_142" data-name="Path 142" d="M958.145,825.15l-.074.464s-1.7,3.685-10.966,5.027-9.3-3.1-9.3-3.1.034-.476.091-1.194C940.844,827.46,947.264,828.705,958.145,825.15Z" transform="translate(-453.621 -377.385)" opacity="0.1"/>
    <path id="Path_143" data-name="Path 143" d="M876.955,375.79s0,19.1-1.636,20.98S876.955,375.79,876.955,375.79Z" transform="translate(-426.308 -182.414)" opacity="0.1"/>
    <path id="Path_144" data-name="Path 144" d="M1011.92,386.66l2.429,6.827S1015.317,386.785,1011.92,386.66Z" transform="translate(-485.776 -187.13)" opacity="0.1"/>
    <g id="Group_19" data-name="Group 19" transform="translate(461.692 121.525)" opacity="0.1">
      <path id="Path_145" data-name="Path 145" d="M906.185,253.671c.611-1.574-1-3.114-1.206-4.8a3.147,3.147,0,0,0-.266,1.517c.108,1.268,1.042,2.451,1.291,3.629A2.272,2.272,0,0,0,906.185,253.671Z" transform="translate(-900.949 -248.87)"/>
      <path id="Path_146" data-name="Path 146" d="M931.1,275.758c-.6-2.638-.425-5.435-1.036-8.078s-2.5-5.406-5.061-5.452c-1.132,0-2.4.408-3.2-.419-.487-.5-.566-1.291-.945-1.9-1.834-2.972-7.416-1.466-9.7.057-3.4,2.264-8.129,7.037-12.522,5.961-.209.5-.4,1.019-.566,1.546,4.478,1.4,9.33-3.538,12.839-5.876,2.264-1.517,7.869-3.023,9.7-.051.362.606.458,1.393.94,1.891.8.832,2.095.4,3.2.425,2.57.045,4.444,2.763,5.067,5.452s.419,5.537,1.059,8.22A4.617,4.617,0,0,1,931.1,275.758Z" transform="translate(-898.07 -252.921)"/>
      <path id="Path_147" data-name="Path 147" d="M969.022,282.546c-.453,1.325-1.647,2.548-2.938,2.264s-1.919-1.738-2.881-2.661a3.963,3.963,0,0,0-4.529-.628,4.563,4.563,0,0,0-2.225,4.053,4.393,4.393,0,0,1,1.976-2.423,3.923,3.923,0,0,1,4.529.634c.968.917,1.625,2.389,2.887,2.655s2.479-.945,2.938-2.264a11.445,11.445,0,0,0,.458-2.406,6.3,6.3,0,0,1-.215.776Z" transform="translate(-923.399 -262.845)"/>
      <path id="Path_148" data-name="Path 148" d="M982.969,262.1c-.94,2.485-2.649,4.625-3.216,7.241-.113.526-.181,1.064-.243,1.608.566-2.6,2.264-4.738,3.21-7.218a12.913,12.913,0,0,0,.776-3.47,12.684,12.684,0,0,1-.527,1.84Z" transform="translate(-933.406 -253.812)"/>
    </g>
    <circle id="Ellipse_20" data-name="Ellipse 20" cx="0.204" cy="0.204" r="0.204" transform="translate(390.022 190.047)" fill="#e6e8ec"/>
    <ellipse id="Ellipse_21" data-name="Ellipse 21" cx="48.878" cy="4.987" rx="48.878" ry="4.987" transform="translate(413.663 443.53)" fill="#6c63ff" opacity="0.1"/>
    <path id="Path_149" data-name="Path 149" d="M468.614,246.128,320.57,342.174l96.613,174.25a6.742,6.742,0,0,0,4.3,3.283l87.538,21.354a6.748,6.748,0,0,0,7.665-3.629l43.421-90.21L607.7,383.608l-112.928-133.6A20.012,20.012,0,0,0,468.614,246.128Z" transform="translate(-185.809 -124.761)" fill="#dcdfed"/>
    <path id="Path_150" data-name="Path 150" d="M610.353,384.932l-.419.566-27.875,37.267-.5.674-18.789,25.118-37.137,77.167-1.042,2.157-5.242,10.886a6.748,6.748,0,0,1-7.677,3.629L424.13,521.031a6.731,6.731,0,0,1-4.3-3.284l-8.418-15.155-1.512-2.729L349.137,390.231l-.521-.934-25.4-45.8,3.068-1.993,23.262-15.087.538-.351,48.986-31.782,3.091-2,69.094-44.831a20.006,20.006,0,0,1,26.166,3.872l51.516,60.97,2.264,2.717L588.6,359.247l.2.243,18.8,22.237,2.366,2.8Z" transform="translate(-186.959 -125.332)" opacity="0.1"/>
    <path id="Path_151" data-name="Path 151" d="M604.972,394.989l-4.563,31.7-1.376,9.567-.787,20.38-.062,1.591-4.093,106.486a6.754,6.754,0,0,1-8.214,6.323l-44.123-9.85-.476-.108-113.16-25.254-2.078-.464L363.83,521.47l1.427-95.741.045-3.2.43-28.979.476-31.985,48.986-31.782,3.091-2c45.436,4.659,105.863,13.621,146.8,20.012l2.264,2.717,37.364,44.236Z" transform="translate(-204.579 -161.583)" opacity="0.1"/>
    <path id="Path_152" data-name="Path 152" d="M609.706,356.748l-5.372,37.363-4.925,34.216-1.376,9.545-.787,20.38-4.155,108.077a6.754,6.754,0,0,1-8.214,6.323l-44.6-9.958-113.16-25.254L362.83,523.084l1.472-98.94.43-28.979.5-33.9.515-34.867c10.632-.5,28.125.634,49.008,2.734,46.761,4.693,110.505,14.187,152.183,20.725C592.463,353.861,609.706,356.748,609.706,356.748Z" transform="translate(-204.145 -160.932)" fill="#6c63ff"/>
    <path id="Path_153" data-name="Path 153" d="M605.007,454.952l-23.93,11.736L458.949,526.583,346.4,433.565,323.648,414.73l-3.068,1.993,25.4,45.8-1.472,98.94,64.288,14.357,8.4,15.155a6.731,6.731,0,0,0,4.3,3.283l87.538,21.354a6.748,6.748,0,0,0,7.66-3.629l5.242-10.886,44.6,9.958a6.754,6.754,0,0,0,8.214-6.323L578.9,496.652l28.379-37.93.079-.957Z" transform="translate(-185.813 -199.309)" opacity="0.1"/>
    <path id="Path_154" data-name="Path 154" d="M312.825,418.25,302.731,591.1a6.748,6.748,0,0,0,5.271,6.98l268.066,59.527a6.748,6.748,0,0,0,8.169-6.04l15.71-191.884L451.2,532.639Z" transform="translate(-178.064 -200.837)" fill="#dcdfed"/>
    <path id="Path_155" data-name="Path 155" d="M305.573,663.583l139.264-85.919a10.224,10.224,0,0,1,13.021,2.038L582.5,725.074c.453.521.674.147,0,0L305.573,663.583C304.781,663.407,304.883,664,305.573,663.583Z" transform="translate(-179.06 -269.361)" opacity="0.1"/>
    <path id="Path_156" data-name="Path 156" d="M307.206,665.315l137.826-83.258a10.807,10.807,0,0,1,13.745,2.163L582.3,726.274a1.489,1.489,0,0,1-1.444,2.429l-273.2-60.665a1.483,1.483,0,0,1-.447-2.723Z" transform="translate(-179.697 -271.235)" fill="#e3e5f1"/>
  </g>
</svg>
