<svg xmlns="http://www.w3.org/2000/svg" xmlns:xlink="http://www.w3.org/1999/xlink" width="688.695" height="396.866" viewBox="0 0 688.695 396.866">
  <defs>
    <linearGradient id="linear-gradient" x1="0.5" y1="1" x2="0.5" gradientUnits="objectBoundingBox">
      <stop offset="0" stop-color="gray" stop-opacity="0.251"/>
      <stop offset="0.54" stop-color="gray" stop-opacity="0.122"/>
      <stop offset="1" stop-color="gray" stop-opacity="0.102"/>
    </linearGradient>
    <linearGradient id="linear-gradient-2" y1="1" y2="0" xlink:href="#linear-gradient"/>
  </defs>
  <g id="undraw_finance_0bdk" transform="translate(-0.003 -0.06)">
    <path id="Path_12" data-name="Path 12" d="M295.707,528.665c-41.639-14.387-89.248-26.566-128.15-5.891-4.931,2.62-9.789,5.919-12.445,10.828-7.017,12.915,4.136,29.663-1.3,43.314s-25.894,20.523-24.219,35.106c.44,3.812,2.5,7.262,4.938,10.236,15.239,18.618,43.176,20.5,66.789,15.882s46.706-14.2,70.745-12.994c23.1,1.191,44.353,12.272,65.519,21.6,35.683,15.766,77.358,27.078,113.012,11.233,16.336-7.262,29.843-19.628,45.479-28.262a111.936,111.936,0,0,1,69.085-12.676c15.882,2.238,31.041,7.869,46.584,11.752,35.3,8.814,72.146,8.526,108.522,8.179,6.771-.065,13.651-.144,20.141-2.079,9.608-2.888,17.535-9.536,25.165-16.04,10.027-8.54,20.588-17.925,23.823-30.695,3.819-15.16-4.086-31.272-15.81-41.574s-26.71-15.932-41.336-21.361c-3.609-1.328-7.464-2.678-11.161-1.675a15.22,15.22,0,0,0-6.28,4.021c-10.381,9.991-19.152,26.891-33.308,24.176-5.053-.967-9.19-4.483-13.189-7.731-21.354-17.325-50.078-30.7-75.849-21.13-18.849,7-32.153,24.985-51.254,31.33-13.586,4.519-28.349,2.563-42.642,3.443-20.79,1.271-41.025,8.619-61.844,8.172-53.088-1.141-97.318-51.9-150.19-47.067-4.144.375-8.663,1.328-11.2,4.606" transform="translate(-124.806 -268.688)" fill="#6c63ff" opacity="0.5"/>
    <path id="Path_13" data-name="Path 13" d="M262.4,466.838s-44.115,26.631,37.235,67.649c0,0,17.925-33.279-1.891-60.415a26.71,26.71,0,0,0-34.651-7.594Z" transform="translate(-158.446 -255.148)" fill="#6c63ff"/>
    <path id="Path_14" data-name="Path 14" d="M267.73,467.52S305.5,496.4,304.445,535.7" transform="translate(-163.25 -256.386)" fill="none" stroke="#535461" stroke-miterlimit="10" stroke-width="1"/>
    <path id="Path_15" data-name="Path 15" d="M993.568,419.627c8.937,32.68-29.186,125.783-29.186,125.783S884.165,484.677,875.221,452a61.361,61.361,0,1,1,118.34-32.377Z" transform="translate(-331.484 -230.121)" fill="#6c63ff"/>
    <path id="Path_16" data-name="Path 16" d="M993.568,419.627c8.937,32.68-29.186,125.783-29.186,125.783S884.165,484.677,875.221,452a61.361,61.361,0,1,1,118.34-32.377Z" transform="translate(-331.484 -230.121)" opacity="0.1"/>
    <path id="Path_17" data-name="Path 17" d="M936.21,378.27s49.933,75.38,46.2,168.764" transform="translate(-349.159 -231.565)" fill="none" stroke="#535461" stroke-miterlimit="10" stroke-width="1"/>
    <path id="Path_18" data-name="Path 18" d="M1042.372,519.128s-45.277-24.631-39.545,66.291c0,0,37.769-1.35,51.175-32.16a26.71,26.71,0,0,0-10.966-33.748Z" transform="translate(-367.546 -269.893)" fill="#6c63ff"/>
    <path id="Path_19" data-name="Path 19" d="M1043.309,520.52s-5.847,47.2-40.289,66.133" transform="translate(-367.739 -271.126)" fill="none" stroke="#535461" stroke-miterlimit="10" stroke-width="1"/>
    <path id="Path_20" data-name="Path 20" d="M134.955,504.8s-44.136,26.623,37.221,67.62c0,0,17.925-33.279-1.891-60.415a26.71,26.71,0,0,0-34.651-7.594Z" transform="translate(-123 -265.697)" fill="#6c63ff"/>
    <path id="Path_21" data-name="Path 21" d="M140.26,505.49s37.769,28.876,36.715,68.183" transform="translate(-127.799 -266.946)" fill="none" stroke="#535461" stroke-miterlimit="10" stroke-width="1"/>
    <path id="Path_22" data-name="Path 22" d="M715.45,464.263H669.068a15.463,15.463,0,0,0,1.617-6.909v-211.2a15.528,15.528,0,0,0-15.528-15.528H296.139a15.528,15.528,0,0,0-15.528,15.528v211.2a15.463,15.463,0,0,0,1.617,6.909h-48.02A4.108,4.108,0,0,0,230.1,468.4v3.314a22.971,22.971,0,0,0,22.971,22.971H696.587a22.971,22.971,0,0,0,22.971-22.971V468.4a4.108,4.108,0,0,0-4.108-4.136ZM429.66,477.4l-4-4.512H524.4l-4.4,4.519Z" transform="translate(-152.784 -190.505)" fill="url(#linear-gradient)"/>
    <rect id="Rectangle_216" data-name="Rectangle 216" width="381.246" height="236.773" rx="23.26" transform="translate(132.223 43.114)" fill="#535461"/>
    <rect id="Rectangle_217" data-name="Rectangle 217" width="364.39" height="193.431" transform="translate(140.25 77.627)" fill="#fff"/>
    <circle id="Ellipse_2" data-name="Ellipse 2" cx="3.212" cy="3.212" r="3.212" transform="translate(319.236 57.559)" fill="#fff"/>
    <path id="Path_23" data-name="Path 23" d="M533.626,551.08l-12.518,12.842H432.85L421.538,551.08H241.794a4.014,4.014,0,0,0-4.014,4.014v3.234a22.451,22.451,0,0,0,22.451,22.451H693.7a22.451,22.451,0,0,0,22.451-22.451v-3.234a4.014,4.014,0,0,0-4.014-4.014Z" transform="translate(-154.92 -279.625)" fill="#535461"/>
    <path id="Path_24" data-name="Path 24" d="M258.77,124.19V288.724H530.851" transform="translate(-71.965 -34.521)" fill="none" stroke="#535461" stroke-miterlimit="10" stroke-width="2"/>
    <rect id="Rectangle_218" data-name="Rectangle 218" width="28.089" height="43.342" transform="translate(210.88 204.442)" fill="#6c63ff" opacity="0.5"/>
    <rect id="Rectangle_219" data-name="Rectangle 219" width="28.089" height="81.87" transform="translate(259.038 165.915)" fill="#6c63ff" opacity="0.7"/>
    <rect id="Rectangle_220" data-name="Rectangle 220" width="28.089" height="58.589" transform="translate(307.195 189.189)" fill="#6c63ff" opacity="0.5"/>
    <rect id="Rectangle_221" data-name="Rectangle 221" width="28.089" height="94.712" transform="translate(355.352 153.072)" fill="#6c63ff" opacity="0.8"/>
    <rect id="Rectangle_222" data-name="Rectangle 222" width="28.089" height="128.417" transform="translate(403.51 119.36)" fill="#6c63ff"/>
    <path id="Path_25" data-name="Path 25" d="M311.02,218.351l48.959-44.144,48.157,41.733,47.356-50.561L503.65,145.31" transform="translate(-86.496 -40.395)" fill="none" stroke="#535461" stroke-miterlimit="10" stroke-width="2"/>
    <circle id="Ellipse_3" data-name="Ellipse 3" cx="5.616" cy="5.616" r="5.616" transform="translate(218.908 172.34)" fill="#6c63ff"/>
    <circle id="Ellipse_4" data-name="Ellipse 4" cx="5.616" cy="5.616" r="5.616" transform="translate(315.222 169.127)" fill="#6c63ff"/>
    <circle id="Ellipse_5" data-name="Ellipse 5" cx="5.616" cy="5.616" r="5.616" transform="translate(364.181 119.367)" fill="#6c63ff"/>
    <circle id="Ellipse_6" data-name="Ellipse 6" cx="5.616" cy="5.616" r="5.616" transform="translate(267.866 127.387)" fill="#6c63ff"/>
    <circle id="Ellipse_7" data-name="Ellipse 7" cx="5.616" cy="5.616" r="5.616" transform="translate(411.537 99.299)" fill="#6c63ff"/>
    <path id="Path_26" data-name="Path 26" d="M926.962,453.557c-2.96-.975-7.349-2.1-10.828-1.7-3.314-1.206-11.1-4.331-16.423-9.038a118.442,118.442,0,0,0-.354-13.875c-2.722-30.948,3.4-51.348,3.4-51.348s4.808-15.564,4.281-28.479c.31.585.484.931.484.931.419-11.139,4.216-22.667,7.06-29.85a2.4,2.4,0,0,0,.318-.115l3.176-7.537a6.541,6.541,0,0,0,.6-1.393l.513-1.191-.152-.065c.051-.195.1-.4.152-.614h0c2.029-8.583,3.609-28.941,3.609-28.941,5.443-21.426-7.479-34.651-7.479-34.651l-21.931-18.87a2.782,2.782,0,0,1,.217.772l-.18-.159c-.31-.888-.65-1.949-.982-3.162a16.673,16.673,0,0,0,2.166-1.855,16.842,16.842,0,0,0,4.916-8.771,33.259,33.259,0,0,0,.325-7.941l-.361-9.1a28.885,28.885,0,0,0-.541-5.306c-1.653-7.219-9.052-12.272-16.481-12.6a60.238,60.238,0,0,0-7.075.375,47.6,47.6,0,0,1-5.775.123,1.04,1.04,0,0,1-.621-.166.909.909,0,0,1-.267-.628,3.133,3.133,0,0,1,.765-2.346,2.888,2.888,0,0,1,1-.57l-.527.123a2.888,2.888,0,0,1,.866-.469,16.814,16.814,0,0,0-5.472,1.985,7.062,7.062,0,0,0-1.278,1.076,5.58,5.58,0,0,0-1.848,3.436,6.4,6.4,0,0,1-1.949-2.888,2.887,2.887,0,0,1,0-1.4q-.195.238-.375.491v-.152a14.6,14.6,0,0,0-2.888,5.876,2.288,2.288,0,0,1-.52-1.689q-.163.509-.3,1.018a2.354,2.354,0,0,1,0-.679,23.252,23.252,0,0,0-1.133,8.071c0,2.729,1.213,6.981,4.136,7.941.152.051.3.087.462.123a18.358,18.358,0,0,0,12.38,28.038q.072.5.137,1.047h.115c.079.722.144,1.516.188,2.324a15.647,15.647,0,0,1-2.411,1.935,19.881,19.881,0,0,1-8.028,2.657,23.9,23.9,0,0,0-9.652,2.888c-3.5,1.956-7.363,4.808-8.576,8.273-2.021,5.775-13.153,14.763-20.617,15.882l-2.657-.152-.195-.058v.051l-.65-.036h-.209v.036l-.671-.036s-.065.31-.159.859c-3.754-1.292-11.731-4.873-22.112-14.293-11.55-10.489-27.179-8.424-33.207-7.1a1.032,1.032,0,0,0-.274,1.913c2.433,1.336,6.2,3.277,7.941,3.494,0,0-3.609,3.775.231,5.775a2.787,2.787,0,0,0,2.888-.282c1.862-1.364,7.038,1.725,14.539,3.335,0,0,21.166,21.9,31.677,25.266a15.126,15.126,0,0,0,.8,1.393l.65-.051v.051h.274l.079.722s16.344-.859,21.657-6.793a8.515,8.515,0,0,0,1.032-1.1l-5.681,71.467h.051l-.051.679h4.18a157.544,157.544,0,0,1-1.133,26.32v46.591s-.217,4.1,8.3,10.107a318.417,318.417,0,0,1,25.786,19.989l1.032.9c-1.567,14.257-4.844,40.83-7.58,41.819l1.689.3c-2.888,3.66-11.088,13.716-13.586,13.983-3.061.339-5.1,5.1,0,6.122a57.18,57.18,0,0,0,30.32-2.989,4.627,4.627,0,0,0,2.888-4.923l-.989-7.508a1.054,1.054,0,0,1,.433.455c.679,2.043,0-2.722,0-2.722a212.765,212.765,0,0,0,6.576-27.432l10.107,8.735s.2-.253.556-.722c2.476,5.616,6.894,17.109,5.905,25.526-1.357,11.55,11.55,1.357,10.2-5.443-1.1-5.5,3.812-28.818,5.725-37.538a3.877,3.877,0,0,0-2.6-4.519Z" transform="translate(-300.857 -175.07)" fill="url(#linear-gradient-2)"/>
    <path id="Path_27" data-name="Path 27" d="M822,290.775s-9.63-1.66-23.909-14.611c-11.3-10.244-26.537-8.23-32.413-6.937a1,1,0,0,0-.267,1.863c2.375,1.3,6.057,3.2,7.782,3.415,0,0-3.559,3.682.224,5.652a2.721,2.721,0,0,0,2.844-.274c1.819-1.328,6.872,1.689,14.2,3.256,0,0,28.558,29.554,35.2,24.544Z" transform="translate(-301.512 -200.94)" fill="#fec3be"/>
    <path id="Path_28" data-name="Path 28" d="M912.11,238.329s2.657,11.29,0,19.26l11.955,1.66,10.626-5.313v-6.973a47.886,47.886,0,0,1-3.653-22.913Z" transform="translate(-342.457 -188.675)" fill="#fec3be"/>
    <path id="Path_29" data-name="Path 29" d="M959,575.175s8.663,16.936,7.306,28.226,11.29,1.328,9.962-5.313c-1.076-5.371,3.718-28.154,5.587-36.629a3.783,3.783,0,0,0-2.512-4.411c-3.992-1.314-10.677-2.924-14.034-.462C960.35,560.232,959,575.175,959,575.175Z" transform="translate(-355.497 -280.799)" fill="#8b416f"/>
    <path id="Path_30" data-name="Path 30" d="M906.82,608.206s-11.29,14.611-14.279,14.943-4.981,4.981,0,5.977a55.832,55.832,0,0,0,29.6-2.888,4.519,4.519,0,0,0,2.837-4.808L923.07,607.21Z" transform="translate(-336.171 -295.235)" fill="#8b416f"/>
    <path id="Path_31" data-name="Path 31" d="M883.508,393.78l-10.828,1.444a158.478,158.478,0,0,1-.13,38.065v45.479s-.209,4.007,8.107,9.832a310.9,310.9,0,0,1,25.18,19.491l30.132,26.1s11.955-14.611,10.294-23.245c0,0-19.924-6.309-22.581-16.6-1.523-5.891-9.247-10.828-15.571-13.933a19.361,19.361,0,0,1-10.359-21.974,16.943,16.943,0,0,1,1.7-4.266c5.313-9.3,12.951-30.218,12.951-30.218L897.787,396.1Z" transform="translate(-331.454 -235.878)" fill="#4d4981"/>
    <path id="Path_32" data-name="Path 32" d="M883.508,393.78l-10.828,1.444a158.478,158.478,0,0,1-.13,38.065v45.479s-.209,4.007,8.107,9.832a310.9,310.9,0,0,1,25.18,19.491l30.132,26.1s11.955-14.611,10.294-23.245c0,0-19.924-6.309-22.581-16.6-1.523-5.891-9.247-10.828-15.571-13.933a19.361,19.361,0,0,1-10.359-21.974,16.943,16.943,0,0,1,1.7-4.266c5.313-9.3,12.951-30.218,12.951-30.218L897.787,396.1Z" transform="translate(-331.454 -235.878)" opacity="0.05"/>
    <path id="Path_33" data-name="Path 33" d="M905.727,549.916s19.592,3.321,20.256,5.313,0-2.657,0-2.657,11.29-34.2,8.663-64.414,3.321-50.143,3.321-50.143,6.973-22.581,2.989-35.532-45.826-7.306-45.826-7.306,14.611,34.2,14.279,50.475c0,0,1.66,49.146,4.649,54.792C914.029,500.416,909.38,548.566,905.727,549.916Z" transform="translate(-337.734 -235.927)" fill="#4d4981"/>
    <path id="Path_34" data-name="Path 34" d="M901.625,255.79s1.992,12.272,21.917,6.973L910.287,363.706s-38.52,1.328-38.188-3.321l7.941-61.094Z" transform="translate(-331.329 -197.502)" fill="#fff"/>
    <path id="Path_35" data-name="Path 35" d="M894.083,254.87a16.186,16.186,0,0,1-9.594,4.555,23.339,23.339,0,0,0-9.428,2.8c-3.415,1.913-7.219,4.692-8.374,8.078-2.324,6.641-16.936,17.6-23.577,15.275l2.324,19.924s18.928-1,22.249-8.3l-5.638,71.1h4.981s2.656-19.26,4.649-23.245,5.977-25.9,6.309-31.215,5.313-35.864,9.63-41.148l6.5-15.773Z" transform="translate(-323.267 -197.246)" opacity="0.1"/>
    <path id="Path_36" data-name="Path 36" d="M893.83,256.25a20.552,20.552,0,0,1-10.258,4.223,23.34,23.34,0,0,0-9.421,2.815c-3.415,1.913-7.219,4.692-8.374,8.078-2.324,6.641-16.936,17.6-23.577,15.275l2.324,19.924s18.928-1,22.249-8.3l-5.645,71.056h4.981s2.657-19.26,4.649-23.245,5.977-25.9,6.309-31.215,5.313-35.864,9.63-41.148l7.132-15.477Z" transform="translate(-323.014 -197.63)" opacity="0.1"/>
    <path id="Path_37" data-name="Path 37" d="M893.827,255.33a20.553,20.553,0,0,1-10.258,4.223,23.338,23.338,0,0,0-9.428,2.8c-3.415,1.913-7.219,4.692-8.374,8.078-2.324,6.641-16.936,17.6-23.577,15.275l2.324,19.924s18.928-1,22.249-8.3l-5.638,71.1h4.981s2.657-19.26,4.649-23.245,5.977-25.9,6.309-31.215,5.313-35.864,9.63-41.148l7.14-15.441Z" transform="translate(-323.011 -197.374)" fill="#fd6f8d"/>
    <path id="Path_38" data-name="Path 38" d="M930.208,234.23c-.433-3.147.433-5.111.83-8.8L912.11,239.709s.455,1.927.8,4.75a18.048,18.048,0,0,0,2.888.231C922.368,244.69,927.1,239.557,930.208,234.23Z" transform="translate(-342.457 -189.059)" opacity="0.1"/>
    <circle id="Ellipse_8" data-name="Ellipse 8" cx="17.932" cy="17.932" r="17.932" transform="translate(555.374 18.779)" fill="#fec3be"/>
    <path id="Path_39" data-name="Path 39" d="M890.054,195.982a22.7,22.7,0,0,1,1.444-8.872,2.216,2.216,0,0,0,.375,2.888,14.207,14.207,0,0,1,4.5-7.984c-1.278.209-1.935,1.79-1.617,3.046a6.931,6.931,0,0,0,2.216,3.119,5.571,5.571,0,0,1,2.736-4.714,16.417,16.417,0,0,1,5.342-1.935,3.1,3.1,0,0,0-2.05,3.176.888.888,0,0,0,.267.614,1.018,1.018,0,0,0,.606.159,46.473,46.473,0,0,0,5.609-.123,58.827,58.827,0,0,1,6.909-.368c7.219.3,14.474,5.234,16.091,12.272a28.221,28.221,0,0,1,.527,5.183l.354,8.886a32.48,32.48,0,0,1-.318,7.768,16.459,16.459,0,0,1-8.453,11.175c-2.606-3.776-2.837-8.627-3.739-13.124a6.641,6.641,0,0,0-1.126-2.888,2.534,2.534,0,0,0-2.779-.938,1.6,1.6,0,0,0-.585,2.541c-.722.852-2.072.217-2.888-.541a15.506,15.506,0,0,1-4.5-8.035c-.325-1.545-.65-3.451-2.166-3.978a4.027,4.027,0,0,0-1.6-.108c-3.162.217-8.107,1.523-11.168.52C891.238,202.8,890.054,198.646,890.054,195.982Z" transform="translate(-336.318 -176.85)" opacity="0.1"/>
    <path id="Path_40" data-name="Path 40" d="M890.514,195.522a22.7,22.7,0,0,1,1.444-8.872,2.216,2.216,0,0,0,.375,2.888,14.208,14.208,0,0,1,4.5-7.984c-1.278.209-1.935,1.79-1.617,3.046a6.93,6.93,0,0,0,2.216,3.119A5.571,5.571,0,0,1,900.173,183a16.417,16.417,0,0,1,5.342-1.935,3.1,3.1,0,0,0-2.05,3.176.888.888,0,0,0,.267.614,1.018,1.018,0,0,0,.606.159,46.48,46.48,0,0,0,5.609-.123,58.826,58.826,0,0,1,6.908-.368c7.219.3,14.474,5.234,16.091,12.272a28.216,28.216,0,0,1,.527,5.183l.354,8.886a32.483,32.483,0,0,1-.318,7.768,16.459,16.459,0,0,1-8.453,11.175c-2.606-3.775-2.837-8.627-3.739-13.124a6.641,6.641,0,0,0-1.126-2.888,2.534,2.534,0,0,0-2.779-.938,1.6,1.6,0,0,0-.585,2.541c-.722.852-2.072.217-2.888-.541a15.506,15.506,0,0,1-4.5-8.035c-.325-1.545-.65-3.451-2.166-3.978a4.028,4.028,0,0,0-1.6-.108c-3.162.217-8.107,1.523-11.168.52C891.7,202.337,890.514,198.186,890.514,195.522Z" transform="translate(-336.446 -176.722)" fill="#784f69"/>
    <path id="Path_41" data-name="Path 41" d="M840.727,297.42s-2.657,12.272,2.324,19.924l2.823-.231-1.538-19.491Z" transform="translate(-322.408 -209.08)" opacity="0.1"/>
    <path id="Path_42" data-name="Path 42" d="M841.727,297.42s-2.657,12.272,2.324,19.924l2.823-.231-1.538-19.491Z" transform="translate(-322.686 -209.08)" fill="#fd6f8d"/>
    <path id="Path_43" data-name="Path 43" d="M931.966,251l21.419,18.43S966,282.381,960.69,303.3c0,0-2.324,30.551-4.981,31.879,0,0-9.3,18.6-9.962,36.2,0,0-12.453-25.071-18.1-9.8s-18.769,17.434-18.769,17.434l7.306-90.352S934.623,256.616,931.966,251Z" transform="translate(-341.558 -196.17)" opacity="0.1"/>
    <path id="Path_44" data-name="Path 44" d="M932.886,251,954.3,269.43s12.619,12.951,7.306,33.871c0,0-2.324,30.551-4.981,31.879,0,0-9.3,18.6-9.962,36.2,0,0-13.117-26.4-18.769-11.124s-18.1,18.769-18.1,18.769l7.306-90.316S935.543,256.616,932.886,251Z" transform="translate(-341.814 -196.17)" fill="#fd6f8d"/>
    <path id="Path_45" data-name="Path 45" d="M949.785,358.578s5.313-3.653,13.947,6.309l-21.253,38.52-7.14-10.778S950.449,362.9,949.785,358.578Z" transform="translate(-348.917 -225.906)" fill="#fec3be"/>
    <path id="Path_46" data-name="Path 46" d="M948.22,359.645s11.752,13.2,16.336,11.081l4.245-9.883L952.869,354Z" transform="translate(-352.499 -224.815)" opacity="0.1"/>
    <path id="Path_47" data-name="Path 47" d="M948.22,358.725s11.752,13.2,16.336,11.081l4.245-9.883-15.932-6.844Z" transform="translate(-352.499 -224.559)" fill="#fd6f8d"/>
    <path id="Path_48" data-name="Path 48" d="M935.545,402.51s5.595,11.464,8.576,12.128l-4.331,4.981-6.309-11.955Z" transform="translate(-348.4 -238.306)" opacity="0.1"/>
    <path id="Path_49" data-name="Path 49" d="M935.079,403s5.595,11.464,8.576,12.128l-4.331,4.981L933,408.133Z" transform="translate(-348.266 -238.442)" fill="#4d4981"/>
    <path id="Path_50" data-name="Path 50" d="M949.752,304.78s.664,23.909-1.992,32.875" transform="translate(-352.371 -211.127)" opacity="0.1"/>
    <path id="Path_51" data-name="Path 51" d="M876,309.429s3.985-1.328,3.985-4.649" transform="translate(-332.414 -211.127)" opacity="0.1"/>
    <path id="Path_52" data-name="Path 52" d="M201.558,316.76s-18.928,39.155-6.5,85.494,8.482,101.787-3.913,115.5" transform="translate(-141.863 -214.458)" fill="none" stroke="#535461" stroke-miterlimit="10" stroke-width="2"/>
    <circle id="Ellipse_9" data-name="Ellipse 9" cx="5.219" cy="5.219" r="5.219" transform="translate(54.475 97.09)" fill="#6c63ff"/>
    <path id="Path_53" data-name="Path 53" d="M194.79,350.259s19.621,3.537,24.84-3.609" transform="translate(-142.964 -222.771)" fill="none" stroke="#535461" stroke-miterlimit="10" stroke-width="2"/>
    <path id="Path_54" data-name="Path 54" d="M187.9,359.352s-11.8-13.059-11.153-20.892" transform="translate(-137.94 -220.493)" fill="none" stroke="#535461" stroke-miterlimit="10" stroke-width="2"/>
    <path id="Path_55" data-name="Path 55" d="M190.82,393.587s10.735,2.83,20.531-18.047" transform="translate(-141.86 -230.806)" fill="none" stroke="#535461" stroke-miterlimit="10" stroke-width="2"/>
    <path id="Path_56" data-name="Path 56" d="M185.648,413.747s-26.71-17.188-23.454-28.277" transform="translate(-133.823 -233.567)" fill="none" stroke="#535461" stroke-miterlimit="10" stroke-width="2"/>
    <path id="Path_57" data-name="Path 57" d="M200.57,439.2s18.711-16.6,16.755-32.94" transform="translate(-144.572 -239.349)" fill="none" stroke="#535461" stroke-miterlimit="10" stroke-width="2"/>
    <path id="Path_58" data-name="Path 58" d="M194.484,461.324s-23.822-6.656-23.1-17.094" transform="translate(-136.451 -249.909)" fill="none" stroke="#535461" stroke-miterlimit="10" stroke-width="2"/>
    <path id="Path_59" data-name="Path 59" d="M205.69,478.379S220.7,464.475,222.654,456" transform="translate(-145.996 -253.182)" fill="none" stroke="#535461" stroke-miterlimit="10" stroke-width="2"/>
    <path id="Path_60" data-name="Path 60" d="M200.955,509.307s-15.4-17.975-16.055-27.107" transform="translate(-140.214 -260.469)" fill="none" stroke="#535461" stroke-miterlimit="10" stroke-width="2"/>
    <path id="Path_61" data-name="Path 61" d="M207.14,529.467s17.232-19.145,18.531-28.277" transform="translate(-146.399 -265.75)" fill="none" stroke="#535461" stroke-miterlimit="10" stroke-width="2"/>
    <circle id="Ellipse_10" data-name="Ellipse 10" cx="5.219" cy="5.219" r="5.219" transform="translate(33.591 114.054)" fill="#6c63ff"/>
    <circle id="Ellipse_11" data-name="Ellipse 11" cx="5.219" cy="5.219" r="5.219" transform="translate(27.722 189.102)" fill="#6c63ff"/>
    <circle id="Ellipse_12" data-name="Ellipse 12" cx="5.219" cy="5.219" r="5.219" transform="translate(23.152 146.684)" fill="#6c63ff"/>
    <circle id="Ellipse_13" data-name="Ellipse 13" cx="5.219" cy="5.219" r="5.219" transform="translate(71.447 118.624)" fill="#6c63ff"/>
    <circle id="Ellipse_14" data-name="Ellipse 14" cx="5.219" cy="5.219" r="5.219" transform="translate(71.447 198.891)" fill="#6c63ff"/>
    <circle id="Ellipse_15" data-name="Ellipse 15" cx="5.219" cy="5.219" r="5.219" transform="translate(62.964 139.508)" fill="#6c63ff"/>
    <circle id="Ellipse_16" data-name="Ellipse 16" cx="5.219" cy="5.219" r="5.219" transform="translate(73.403 233.484)" fill="#6c63ff"/>
    <circle id="Ellipse_17" data-name="Ellipse 17" cx="5.219" cy="5.219" r="5.219" transform="translate(38.16 219.775)" fill="#6c63ff"/>
    <circle id="Ellipse_18" data-name="Ellipse 18" cx="5.219" cy="5.219" r="5.219" transform="translate(68.184 161.692)" fill="#6c63ff"/>
  </g>
</svg>
