<svg xmlns="http://www.w3.org/2000/svg" xmlns:xlink="http://www.w3.org/1999/xlink" width="435.318" height="403.588" viewBox="0 0 435.318 403.588">
  <defs>
    <linearGradient id="linear-gradient" x1="0.5" y1="1" x2="0.5" gradientUnits="objectBoundingBox">
      <stop offset="0" stop-color="gray" stop-opacity="0.251"/>
      <stop offset="0.54" stop-color="gray" stop-opacity="0.122"/>
      <stop offset="1" stop-color="gray" stop-opacity="0.102"/>
    </linearGradient>
    <linearGradient id="linear-gradient-2" x1="0.507" y1="1.003" x2="0.507" y2="0" xlink:href="#linear-gradient"/>
  </defs>
  <g id="undraw_super_thank_you_obwk" transform="translate(0.003 -0.18)">
    <ellipse id="Ellipse_22" data-name="Ellipse 22" cx="105.162" cy="8.042" rx="105.162" ry="8.042" transform="translate(128.764 387.684)" fill="#6c63ff"/>
    <ellipse id="Ellipse_23" data-name="Ellipse 23" cx="105.162" cy="8.042" rx="105.162" ry="8.042" transform="translate(128.764 387.684)" opacity="0.4"/>
    <path id="Path_157" data-name="Path 157" d="M276.763,91.551c14.743-13.16,37.938-15.842,59.044-14.781,66.283,3.291,126.121,35.293,177.87,71.49,18.733,13.107,37.181,27.227,49.347,45.271,24.759,36.734,17.411,87.627-17.017,117.889-11.714,10.3-25.91,18.191-40.487,25.206-25.92,12.441-53.889,22.429-83.3,25.268-20.978,2.031-42.218.38-63.072-2.449-58.259-7.933-115.454-25.382-163.393-55.306-21.026-13.112-40.843-29.41-49.509-50.626s-3.12-48.091,18.348-60.647c8.879-5.193,19.5-7.538,29.891-9.74,15.3-3.244,30.847-6.439,44.653-13.026,14.268-6.81,31.141-19.975,28.321-35.037C264.426,118.9,262.019,104.7,276.763,91.551Z" transform="translate(-142.33 -52.235)" fill="#6c63ff"/>
    <path id="Path_158" data-name="Path 158" d="M276.763,91.551c14.743-13.16,37.938-15.842,59.044-14.781,66.283,3.291,126.121,35.293,177.87,71.49,18.733,13.107,37.181,27.227,49.347,45.271,24.759,36.734,17.411,87.627-17.017,117.889-11.714,10.3-25.91,18.191-40.487,25.206-25.92,12.441-53.889,22.429-83.3,25.268-20.978,2.031-42.218.38-63.072-2.449-58.259-7.933-115.454-25.382-163.393-55.306-21.026-13.112-40.843-29.41-49.509-50.626s-3.12-48.091,18.348-60.647c8.879-5.193,19.5-7.538,29.891-9.74,15.3-3.244,30.847-6.439,44.653-13.026,14.268-6.81,31.141-19.975,28.321-35.037C264.426,118.9,262.019,104.7,276.763,91.551Z" transform="translate(-142.33 -52.235)" opacity="0.4"/>
    <path id="Path_159" data-name="Path 159" d="M603.048,60.4v.851a5.494,5.494,0,0,1-.033.732v.152c0,.2-.024.409-.043.609v.176a.66.66,0,0,1,0,.1,5.482,5.482,0,0,1-.047.556c-.019.185-.033.295-.048.447-.043.366-.09.732-.147,1.1-.033.243-.071.476-.109.723a.206.206,0,0,0,0,.052c-.024.119-.043.238-.067.361s-.024.138-.038.209a.521.521,0,0,1-.038.19,2.422,2.422,0,0,0-.076.38c-.029.124-.052.252-.081.38s-.038.185-.062.281-.071.319-.109.476a.061.061,0,0,0,0,.029l-.086.328-.1.4c-.043.162-.09.323-.133.476a.165.165,0,0,1-.038.128l-.143.476c-.152.5-.319,1.008-.476,1.508l-.171.476-.1.262a33.767,33.767,0,0,1-4.637,8.332c-.114.162-.238.319-.357.476a35.5,35.5,0,0,1-2.925,3.329l-48.629,48.634L495.732,84.387a34.439,34.439,0,0,1-3.8-4.528,33.3,33.3,0,0,1-1.978-3.158,34.409,34.409,0,0,1-4.157-19.551c.052-.623.124-1.246.209-1.864.152-1.094.361-2.183.618-3.263.052-.219.109-.438.166-.652.029-.109.057-.224.086-.328s.033-.133.052-.2l.143-.476h0c.114-.376.228-.751.352-1.127l.176-.514c.257-.728.533-1.427.837-2.159l.185-.423c.1-.214.19-.428.29-.642.162-.342.328-.685.476-1.023l.043-.076h0c.076-.157.157-.3.238-.476l.281-.518c.119-.214.243-.428.366-.642.057-.1.119-.2.176-.3s.071-.109.1-.171a.205.205,0,0,0,0-.033h0c.076-.124.152-.247.233-.371s.176-.281.266-.419c.2-.309.4-.618.614-.923l.224-.319.281-.385c.1-.138.195-.271.3-.4l.361-.476c.114-.138.224-.281.333-.419l.119-.143.243-.295c.124-.152.252-.3.38-.447l.166-.195.029-.033.29-.323.323-.357c.3-.328.618-.656.951-.951l.376-.371.585-.552c.128-.119.257-.238.39-.352s.3-.276.476-.409l.3-.257c.1-.09.2-.176.3-.257a7.692,7.692,0,0,1,.618-.476l.314-.247c.523-.4,1.051-.785,1.593-1.156l.323-.219.328-.214.309-.2.476-.285.228-.138.333-.195c.447-.262.894-.514,1.346-.751l.271-.143.419-.214.347-.171.347-.162.347-.166.352-.157.352-.152c.476-.2.951-.395,1.427-.575l.309-.19.38-.138.338-.119.285-.1.656-.209.338-.1.271-.076.266-.076q.238-.071.476-.128l.628-.162c.647-.157,1.3-.3,1.95-.419l.266-.048.371-.062.38-.062.476-.071.281-.038c.628-.081,1.256-.147,1.9-.195h4.418a2.742,2.742,0,0,1,.476.029h.323c.5.038,1.008.09,1.508.147l.675.09.476.067.376.062.376.062.247.043q.975.181,1.94.414l.789.2.219.062.338.1c.219.062.438.124.652.195l.285.09q.713.219,1.427.476l.323.119.423.162.637.257c.247.1.476.209.728.319l.285.124.39.185.347.162.342.171.433.219.342.181c.266.143.533.285.794.438l.333.19c.39.224.771.476,1.151.7l.309.2.328.214.323.219h0l.214.147c.476.319.908.652,1.355.994l.314.247c.2.162.414.328.618.476.1.081.2.166.3.257l.3.257.476.409c.133.114.262.233.39.352l.547.58.376.371.38-.371.58-.552c.128-.119.257-.238.39-.352s.3-.276.476-.409l.3-.257c.1-.09.2-.176.3-.257a7.688,7.688,0,0,1,.618-.476l.314-.247c.523-.4,1.051-.785,1.593-1.156l.323-.219.328-.214.309-.2.452-.285.228-.138.333-.195c.447-.262.894-.514,1.346-.751l.271-.143.419-.214.347-.171L554.02,29l.347-.166.352-.157.352-.152c.476-.2.951-.395,1.427-.575.114-.043.233-.09.352-.128l.376-.138.342-.119.281-.1.656-.209.338-.1.271-.076.266-.076c.157-.048.314-.09.476-.128l.623-.162c.647-.157,1.3-.3,1.95-.419l.266-.048.371-.062.38-.062.476-.071.281-.038c.628-.081,1.256-.147,1.9-.195h4.375a2.742,2.742,0,0,1,.476.029h.323c.5.038,1.008.09,1.508.147l.675.09.476.067.376.062.376.062.247.043q.975.181,1.94.414l.789.2.219.062.338.1c.219.062.438.124.656.195l.281.09c.476.147.951.309,1.427.476l.319.119.423.162.637.257c.247.1.476.209.728.319l.285.124.39.185.347.162.342.171.433.219.347.181c.262.143.528.285.789.438l.333.19c.39.224.775.476,1.151.7l.309.2.328.214.323.219h.024l.214.147c.476.319.908.652,1.355.994l.314.247c.2.162.414.328.618.476.1.081.2.166.3.257l.3.257.395.352c.133.119.266.238.395.361l.224.2h0a.223.223,0,0,1,.033.033c.128.114.252.238.38.357l.171.166c.067.071.133.138.2.2l.376.385c.19.195.38.395.566.6.109.114.219.233.323.352.181.2.357.4.533.6l.561.671c.642.789,1.241,1.6,1.807,2.425l.228.347c.086.124.162.247.243.371l.2.319c.114.185.228.366.338.552l.3.514c.062.1.124.209.181.314l.138.247.138.247.2.376.2.376q.671,1.313,1.218,2.678l.157.385c.147.376.285.747.419,1.127l.119.342c.052.162.109.323.157.476s.1.29.138.438l.086.276c.043.133.081.266.119.4s.09.328.138.476c.071.266.138.533.2.8l.1.419c.048.2.09.4.133.6a1.234,1.234,0,0,0,.052.257c.019.086.048.228.067.342s.038.181.052.271l.043.228a.427.427,0,0,0,.038.214c.038.071,0,.138.033.209l.071.428a2.651,2.651,0,0,0,.062.428c.024.143.043.319.062.476s.038.3.052.476l.029.262c0,.157.033.314.048.476v.233c0,.162.029.323.038.476a.073.073,0,0,1,0,.033v.614a3.72,3.72,0,0,0,.024.514h0v.528A6.083,6.083,0,0,1,603.048,60.4Z" transform="translate(-322.382 -25.61)" fill="#ff6584"/>
    <path id="Path_160" data-name="Path 160" d="M604.088,60.4v.851a5.494,5.494,0,0,1-.033.732v.152c0,.2-.024.409-.043.609v.176a.66.66,0,0,1,0,.1,5.482,5.482,0,0,1-.047.556c-.019.185-.033.295-.048.447-.043.366-.09.732-.147,1.1-.033.243-.071.476-.109.723a.206.206,0,0,0,0,.052c-.024.119-.043.238-.067.361s-.024.138-.038.209a.521.521,0,0,1-.038.19,2.422,2.422,0,0,0-.076.38c-.029.124-.052.252-.081.38s-.038.185-.062.281-.071.319-.109.476a.061.061,0,0,0,0,.029l-.086.328-.1.4c-.043.162-.09.323-.133.476a.165.165,0,0,1-.038.128l-.143.476c-.152.5-.319,1.008-.476,1.508l-.171.476-.1.262a34.409,34.409,0,0,0-15-37.1q-.927-.59-1.874-1.113a34.376,34.376,0,0,0-40.948,5.878,34.466,34.466,0,0,0-4.2-3.567h0a33.875,33.875,0,0,0-3.557-2.254,34.456,34.456,0,0,0-33.11,0,33.987,33.987,0,0,0-4.884,3.263,35.128,35.128,0,0,0-8.561,10.021.169.169,0,0,1,0,.043,32.655,32.655,0,0,0-1.47,2.944c-.247.552-.476,1.113-.69,1.674.052-.219.109-.438.166-.652.029-.109.057-.224.086-.328s.033-.133.052-.2l.143-.476h0c.114-.376.228-.751.352-1.127l.176-.514c.257-.728.533-1.427.837-2.159l.185-.423c.1-.214.19-.428.29-.642.162-.342.328-.685.476-1.023l.043-.076h0c.076-.157.157-.3.238-.476l.281-.518c.119-.214.243-.428.366-.642.057-.1.119-.2.176-.3s.071-.109.1-.171a.2.2,0,0,0,0-.033h0c.076-.124.152-.247.233-.371s.176-.281.266-.419c.2-.309.4-.618.614-.923l.224-.319.281-.385c.1-.138.2-.271.3-.4l.361-.476c.114-.138.224-.281.333-.419l.119-.143.243-.295c.124-.152.252-.3.38-.447l.166-.195.029-.033.29-.323.323-.357c.3-.328.618-.656.951-.951l.376-.371.585-.552c.128-.119.257-.238.39-.352s.3-.276.476-.409l.3-.257c.1-.09.2-.176.3-.257a7.687,7.687,0,0,1,.618-.476l.314-.247c.523-.4,1.051-.785,1.593-1.156l.323-.219.328-.214.309-.2.476-.285.228-.138.333-.195c.447-.262.894-.514,1.346-.751l.271-.143.419-.214.347-.171.347-.162.347-.166.352-.157.352-.152c.476-.2.951-.395,1.427-.575l.319-.209.38-.138.338-.119.285-.1.656-.209.338-.1.271-.076.266-.076q.238-.071.476-.128l.628-.162c.647-.157,1.3-.3,1.95-.419l.266-.048.371-.062.38-.062.476-.071.281-.038c.628-.081,1.256-.147,1.9-.195H522.9a2.742,2.742,0,0,1,.476.029h.323c.5.038,1.008.09,1.508.147l.675.09.476.067.376.062.376.062.247.043q.975.181,1.94.414l.789.2.219.062.338.1c.219.062.438.124.652.195l.285.09q.713.219,1.427.476l.323.119.423.162.637.257c.247.1.476.209.728.319l.285.124.39.185.347.162.342.171.433.219.342.181c.266.143.533.285.794.438l.333.19c.39.224.771.476,1.151.7l.309.2.328.214.323.219h0l.214.147c.476.319.908.652,1.355.994l.314.247c.2.162.414.328.618.476.1.081.2.166.3.257l.3.257.476.409c.133.114.262.233.39.352l.547.58.376.371.38-.371.58-.552c.128-.119.257-.238.39-.352s.3-.276.476-.409l.3-.257c.1-.09.2-.176.3-.257a7.688,7.688,0,0,1,.618-.476l.314-.247c.523-.4,1.051-.785,1.593-1.156l.323-.219.328-.214.309-.2.452-.285.228-.138.333-.195c.447-.262.894-.514,1.346-.751l.271-.143.419-.214.347-.171L555.06,29l.347-.166.352-.157.352-.152c.476-.2.951-.395,1.427-.575.114-.043.233-.09.352-.128l.376-.138.342-.119.281-.1.656-.209.338-.1.271-.076.266-.076c.157-.048.314-.09.476-.128l.623-.162c.647-.157,1.3-.3,1.95-.419l.266-.048.371-.062.38-.062.476-.071.281-.038c.628-.081,1.256-.147,1.9-.195h4.375a2.742,2.742,0,0,1,.476.029h.323c.5.038,1.008.09,1.508.147l.675.09.476.067.376.062.376.062.247.043q.975.181,1.94.414l.789.2.219.062.338.1c.219.062.438.124.656.195l.281.09c.476.147.951.309,1.427.476l.319.119.423.162.637.257c.247.1.476.209.728.319l.285.124.39.185.347.162.342.171.433.219.347.181c.262.143.528.285.789.438l.333.19c.39.224.775.476,1.151.7l.309.2.328.214.323.219h.024l.214.147c.476.319.908.652,1.355.994l.314.247c.2.162.414.328.618.476.1.081.2.166.3.257l.3.257.395.352c.133.119.266.238.395.361l.224.2h0a.223.223,0,0,1,.033.033c.128.114.252.238.38.357l.171.166c.067.071.133.138.2.2l.376.385c.19.195.38.395.566.6.109.114.219.233.323.352.181.2.357.4.533.6l.561.671c.642.789,1.241,1.6,1.807,2.425l.228.347c.086.124.162.247.243.371l.2.319c.114.185.228.366.338.552l.3.514c.062.1.124.209.181.314l.138.247.138.247.2.376.2.376q.671,1.313,1.218,2.678l.157.385c.147.376.285.747.419,1.127l.119.342c.052.162.109.323.157.476s.1.29.138.438l.086.276c.043.133.081.266.119.4s.09.328.138.476c.071.266.138.533.2.8l.1.419c.048.2.09.4.133.6a1.234,1.234,0,0,0,.052.257c.019.086.048.228.067.342s.038.181.052.271l.043.228a.427.427,0,0,0,.038.214c.038.071,0,.138.033.209l.071.428a2.651,2.651,0,0,0,.062.428c.024.143.043.319.062.476s.038.3.052.476l.029.262c0,.157.033.314.048.476v.233c0,.162.029.323.038.476a.073.073,0,0,1,0,.033v.614a3.72,3.72,0,0,0,.024.514h0v.528A6.083,6.083,0,0,1,604.088,60.4Z" transform="translate(-323.422 -25.61)" opacity="0.1"/>
    <path id="Path_161" data-name="Path 161" d="M860.3,309.883v.756a.061.061,0,0,1,0,.029v.3l-.043.338a1.735,1.735,0,0,1-.033.219h0v.176a.235.235,0,0,1,0,.057v.119a.957.957,0,0,1-.024.114v.086a.27.27,0,0,1-.033.147h0l-.029.1-.029.119-.043.147v.043a.987.987,0,0,1-.048.147c-.043.157-.1.309-.147.476a.545.545,0,0,1-.052.147.572.572,0,0,1-.033.081,10.244,10.244,0,0,1-1.389,2.535l-.109.147a10.454,10.454,0,0,1-.894,1.013l-15,14.857L827.548,317.2a10.589,10.589,0,0,1-1.165-1.379,10.855,10.855,0,0,1-.6-.951,10.538,10.538,0,0,1-1.27-5.969,3.876,3.876,0,0,1,.067-.571c.048-.333.109-.666.19-.994a.762.762,0,0,1,.048-.2l.029-.1v-.062l.043-.147h0c.033-.114.071-.228.109-.342s.033-.1.052-.157q.114-.338.257-.656l.057-.133.086-.195c.052-.1.1-.209.157-.309v-.024h0l.076-.138.086-.157c.033-.067.071-.133.109-.2l.057-.09.029-.052h0c0-.038.043-.076.067-.114s.057-.086.081-.128.124-.19.19-.281l.067-.1.086-.119.09-.119.114-.147.1-.128.038-.043.071-.09.119-.138.047-.057h0l.09-.1c.029-.038.067-.071.1-.109s.185-.2.285-.3l.114-.109.176-.171.119-.109.143-.124.09-.076.1-.081.185-.152.1-.076c.157-.119.319-.238.476-.352l.1-.067.1-.067.1-.057.143-.09.067-.038.1-.062c.133-.081.271-.157.409-.228l.081-.043.128-.067.1-.052.109-.052.1-.048.1-.048.109-.048.433-.176.109-.038.114-.043.1-.038.086-.029.2-.062.1-.033.081-.024.081-.024.147-.038.19-.048c.2-.052.395-.1.594-.128h.542c.19-.024.38-.048.576-.062h1.593l.476.048.209.029h.442c.2.033.395.076.594.124l.238.062h.067l.1.029.2.062.086.024c.147.048.29.1.433.152l.1.033.128.052.2.076.219.1.09.043.119.052.1.052.1.052.133.067.1.057.243.128.1.062c.119.067.238.138.352.214l.1.057.1.067.1.067h0l.067.048.414.3a.746.746,0,0,0,.1.076l.19.152.09.081.1.076.138.124.119.109.176.171a1.313,1.313,0,0,1,.119.109.827.827,0,0,1,.114-.109l.176-.171.119-.109.138-.124.1-.076.09-.081.19-.152a.743.743,0,0,0,.1-.076l.476-.352.1-.067.1-.067.1-.057.138-.09.071-.038.1-.062q.2-.124.414-.228l.081-.043.128-.067.1-.052.1-.052.109-.048.1-.048.109-.048.433-.176.109-.038.114-.043.1-.038.086-.029.2-.062.1-.033.081-.024.081-.024.143-.038.19-.048q.3-.076.6-.128h.537c.2-.024.385-.048.576-.062h1.593l.476.048a.5.5,0,0,1,.2.029h.447c.2.033.395.076.59.124l.243.062h.067l.1.029.2.062.086.024c.143.048.29.1.433.152l.1.033.128.052.195.076.224.1.086.043.119.052.109.052.1.052.128.067.109.057.238.128.1.062c.119.067.233.138.352.214l.1.057.1.067.1.067h0l.062.048q.214.143.414.3l.1.076.185.152.1.081.09.076.124.109.119.109.067.062h0l.114.109.052.048.062.062.114.119.176.181c.033.038.067.071.1.109l.166.185.171.2a7.9,7.9,0,0,1,.552.742l.071.1.071.114.062.1.1.171.09.152.057.1.043.076.038.076a.822.822,0,0,1,.062.109l.057.119c.138.266.262.537.376.813,0,.043.033.081.048.119l.128.342a.142.142,0,0,0,.033.109c.033.038.033.1.052.147a1.1,1.1,0,0,1,.038.133l.029.081a.6.6,0,0,0,.033.124l.043.152c.024.081.043.162.062.243a1.261,1.261,0,0,1,.033.128,1.291,1.291,0,0,0,.038.185.177.177,0,0,1,0,.076v1.379h0v.09a.6.6,0,0,0,0,.1v.157h0v.162C860.016,309.613,860.306,309.779,860.3,309.883Z" transform="translate(-500.055 -169.11)" fill="#ff6584"/>
    <path id="Path_162" data-name="Path 162" d="M860.815,309.842v.756a.061.061,0,0,1,0,.029v.3l-.043.338a1.737,1.737,0,0,1-.033.219h0v.176a.235.235,0,0,1,0,.057v.119a.943.943,0,0,1-.024.114q0,.043,0,.086a.27.27,0,0,1-.033.147h0l-.029.1-.029.119-.043.147v.043a.985.985,0,0,1-.047.147c-.043.157-.1.309-.147.476a.547.547,0,0,1-.052.147.584.584,0,0,1-.033.081,10.21,10.21,0,0,0,.29-2.544,10.52,10.52,0,0,0-4.865-8.775c-.19-.124-.38-.233-.575-.342a10.525,10.525,0,0,0-10.1,0,10.941,10.941,0,0,0-1,.623,10.467,10.467,0,0,0-1.37,1.16,10.639,10.639,0,0,0-1.284-1.094h0a10.921,10.921,0,0,0-1.084-.69,10.463,10.463,0,0,0-11.6,1,11.23,11.23,0,0,0-.875.785,10.351,10.351,0,0,0-1.151,1.365c-.209.295-.4.6-.58.908h0a9.884,9.884,0,0,0-.447.9c-.076.171-.147.342-.209.514a.764.764,0,0,1,.048-.2l.029-.1v-.062l.043-.147h0c.033-.114.071-.228.109-.342s.033-.1.052-.157q.114-.338.257-.656l.057-.133.086-.2c.052-.1.1-.209.157-.309v-.024h0l.076-.138.086-.157c.033-.067.071-.133.109-.2l.057-.09.029-.052h0c0-.038.043-.076.067-.114s.057-.086.081-.128.124-.19.19-.281l.067-.1.086-.119.09-.119.114-.147.1-.128.038-.043.071-.09.119-.138.048-.057h0l.09-.1c.029-.038.067-.071.1-.109s.186-.2.285-.3l.114-.109.176-.171.119-.109.143-.124.09-.076.1-.081.185-.152.1-.076c.157-.119.319-.238.476-.352l.1-.067.1-.067.1-.057.143-.09.067-.038.1-.062c.133-.081.271-.157.409-.228l.081-.043.128-.067.1-.052.109-.052.1-.048.1-.048.109-.048.433-.176.109-.038.114-.043.1-.038.086-.029.2-.062.1-.033.081-.024.081-.024.147-.038.19-.048c.195-.052.395-.1.594-.128h.542c.19-.024.38-.048.575-.062H836.4l.476.048.209.029h.442c.2.033.395.076.594.124l.238.062h.067l.1.029.2.062.086.024c.147.048.29.1.433.152l.1.033.128.052.195.076.219.1.09.043.119.052.1.052.1.052.133.067.1.057.243.128.1.062c.119.067.238.138.352.214l.1.057.1.067.1.067h0l.067.048.414.3a.732.732,0,0,0,.1.076l.19.152.09.081.1.076.138.124.119.109.176.171a1.3,1.3,0,0,1,.119.109.838.838,0,0,1,.114-.109l.176-.171.119-.109.138-.124.1-.076.09-.081.19-.152a.736.736,0,0,0,.1-.076l.476-.352.1-.067.1-.067.1-.057.138-.09.071-.038.1-.062q.2-.124.414-.228l.081-.043.128-.067.1-.052.1-.052.109-.048.1-.048.109-.048.433-.176.109-.038.114-.043.1-.038.086-.029.2-.062.1-.033.081-.024.081-.024.143-.038.19-.048q.3-.076.6-.128h.537c.195-.024.385-.048.575-.062h1.593l.476.048a.5.5,0,0,1,.2.029h.447c.195.033.395.076.59.124l.243.062h.067l.1.029.2.062.086.024c.143.048.29.1.433.152l.1.033.128.052.2.076.224.1.086.043.119.052.109.052.1.052.128.067.109.057.238.128.1.062c.119.067.233.138.352.214l.1.057.1.067.1.067h0l.062.048q.214.143.414.3l.1.076.185.152.1.081.09.076.124.109.119.109.067.062h0l.114.109.052.048.062.062.114.119.176.181c.033.038.067.071.1.109l.167.185.171.2a7.893,7.893,0,0,1,.552.742l.071.1.071.114.062.1.1.171.09.152.057.1.043.076.038.076a.807.807,0,0,1,.062.109l.057.119c.138.266.262.537.376.813,0,.043.033.081.048.119l.128.342a.142.142,0,0,0,.033.109c.033.038.033.1.052.147a1.084,1.084,0,0,1,.038.133l.029.081a.6.6,0,0,0,.033.124l.043.152c.024.081.043.162.062.243a1.256,1.256,0,0,1,.033.128,1.283,1.283,0,0,0,.038.185.176.176,0,0,1,0,.076v1.379h0v.09a.589.589,0,0,0,0,.1v.157h0v.162C860.7,309.533,860.819,309.737,860.815,309.842Z" transform="translate(-500.568 -169.068)" opacity="0.1"/>
    <path id="Path_163" data-name="Path 163" d="M715.839,268.416v.97a1.275,1.275,0,0,1,0,.133.9.9,0,0,1-.043.338c-.043.109,0,.147-.033.219h0a.872.872,0,0,1,0,.109.363.363,0,0,1,0,.067v.171l-.029.114a.556.556,0,0,1,0,.086,1.368,1.368,0,0,1-.033.147h0a.757.757,0,0,0,0,.1,1.2,1.2,0,0,0-.033.124l-.043.147a.115.115,0,0,1,0,.038l-.043.152c-.048.152-.1.309-.152.476a.435.435,0,0,1-.052.143l-.029.081a10.462,10.462,0,0,1-1.393,2.54l-.109.143a10.458,10.458,0,0,1-.889,1.018l-14.843,14.838L683.271,275.73a10.536,10.536,0,0,1-1.16-1.384,10.268,10.268,0,0,1-.609-.951,10.463,10.463,0,0,1-1.265-5.964,4.56,4.56,0,0,1,.062-.571c.048-.338.109-.666.19-1a.7.7,0,0,1,.052-.2.674.674,0,0,1,.024-.1.262.262,0,0,1,0-.057l.043-.152h0c.033-.114.067-.228.1-.342l.057-.157c.076-.224.162-.442.252-.661l.057-.128c.029-.067.057-.133.09-.2s.1-.209.152-.314v-.024h0l.071-.143.086-.157.114-.195a.952.952,0,0,1,.052-.1l.033-.052h0l.071-.114c.024-.043.052-.086.081-.128l.185-.281.071-.1.086-.119.09-.124.109-.147a1.314,1.314,0,0,1,.1-.124.408.408,0,0,1,.033-.048l.076-.086.114-.138.052-.062h0l.086-.1.1-.109.285-.295.114-.114.181-.166a1.309,1.309,0,0,1,.119-.109l.138-.124.1-.081.09-.076.19-.152.1-.076c.157-.124.323-.243.476-.352l.1-.067.1-.067.1-.062.138-.086.067-.043.1-.062c.133-.076.271-.157.409-.228l.086-.043-.009-.109.1-.052.1-.048.1-.052.109-.048.1-.048.438-.176.1-.038.114-.043.1-.033.09-.029.2-.067.1-.029.086-.024.081-.024.143-.043.19-.048.594-.128h.542c.19-.024.385-.043.575-.057h1.593a4.3,4.3,0,0,1,.476.043l.2.029h.442c.2.038.4.081.594.128l.243.062h.067a.8.8,0,0,1,.1.029l.2.057.09.029.428.147.1.038.128.048.2.081.224.1.086.038.119.057.1.048.1.052.133.067.1.057.243.133.1.057.347.214.1.062.1.067.1.067h0l.067.043c.143.1.281.2.414.3a.743.743,0,0,1,.1.076c.067.048.128.1.19.152l.1.076.09.081.138.124a1.3,1.3,0,0,1,.119.109l.181.166.114.114.114-.114.176-.166.119-.109.143-.124.09-.081.1-.076c.062-.052.124-.1.19-.152a.74.74,0,0,1,.1-.076c.157-.124.319-.243.476-.352l.1-.067.1-.067.09-.062.143-.086.067-.043.1-.062c.133-.076.271-.157.409-.228l.081-.043.128-.067.109-.052.1-.048.1-.052.109-.048.1-.048.433-.176.109-.038.114-.043.1-.033.086-.029.2-.067.1-.029.081-.024.081-.024.147-.043.19-.048c.2-.048.395-.09.594-.128h.542c.19-.024.38-.043.576-.057h1.593l.476.043.2.029h.442c.2.038.395.081.594.128l.243.062h.062a.671.671,0,0,1,.1.029l.2.057.086.029.433.147.1.038.128.048.195.081.224.1.086.038.119.057.1.048.1.052.133.067.1.057.243.133.1.057.352.214.1.062.1.067.1.067h0l.067.043.414.3.1.076.19.152.09.076.1.081.119.1.124.109.067.067h0l.119.109.052.052.062.062.114.114.171.185.1.109c.057.057.109.119.162.181l.171.2a8.562,8.562,0,0,1,.552.742l.071.1.071.114a1.131,1.131,0,0,1,.062.1,1.949,1.949,0,0,1,.1.166c.033.057.062.1.09.157l.057.1.043.076.043.076.057.114c0,.038.043.076.062.114.138.266.262.542.371.818a.869.869,0,0,1,.048.119q.071.171.128.342a.31.31,0,0,0,.038.1l.048.147.043.133a.119.119,0,0,0,.024.086c.024.029,0,.081.038.119l.043.152a1.18,1.18,0,0,0,.062.247l.029.128.043.181v.081a.681.681,0,0,1,0,.1.47.47,0,0,1,0,.081.367.367,0,0,1,0,.071v.128a1.186,1.186,0,0,1,0,.128,1.274,1.274,0,0,1,0,.133.3.3,0,0,0,.024.143v.585h0v.347h0v.157C715.839,268.2,715.839,268.3,715.839,268.416Z" transform="translate(-424.396 -147.337)" fill="#ff6584"/>
    <path id="Path_164" data-name="Path 164" d="M715.951,268.416v.97a1.275,1.275,0,0,1,0,.133.9.9,0,0,1-.043.338c-.043.109,0,.147-.033.219h0a.884.884,0,0,1,0,.109.368.368,0,0,1,0,.067v.171l-.029.114a.541.541,0,0,1,0,.086,1.353,1.353,0,0,1-.033.147h0a.757.757,0,0,0,0,.1,1.171,1.171,0,0,0-.033.124l-.043.147a.112.112,0,0,1,0,.038l-.043.152c-.048.152-.1.309-.152.476a.433.433,0,0,1-.052.143l-.029.081a10.508,10.508,0,0,0-4.58-11.319c-.185-.119-.376-.233-.571-.338a10.506,10.506,0,0,0-10.106,0,9.4,9.4,0,0,0-.994.623,10.113,10.113,0,0,0-1.374,1.156,10.7,10.7,0,0,0-1.284-1.094h0a10.374,10.374,0,0,0-1.084-.685,10.511,10.511,0,0,0-12.475,1.779,10.357,10.357,0,0,0-1.351,1.365c-.209.295-.4.6-.575.908h0c-.162.295-.314.594-.447.9-.076.166-.143.338-.209.509a.7.7,0,0,1,.052-.2.667.667,0,0,1,.024-.1.262.262,0,0,1,0-.057l.043-.152h0c.033-.114.067-.228.1-.342l.057-.157c.076-.224.162-.442.252-.661l.057-.128c.029-.067.057-.133.09-.2s.1-.209.152-.314V263.5h0l.071-.143.086-.157.114-.2a.944.944,0,0,1,.052-.1l.033-.052h0l.071-.114c.024-.043.052-.086.081-.128l.186-.281.071-.1.086-.119.09-.124.109-.147a1.3,1.3,0,0,1,.1-.124.415.415,0,0,1,.033-.048l.076-.086.114-.138.052-.062h0l.086-.1.1-.109.285-.295.114-.114.181-.166a1.3,1.3,0,0,1,.119-.109l.138-.124.1-.081.09-.076.19-.152.1-.076c.157-.124.323-.243.476-.352l.1-.067.1-.067.1-.062.138-.086.067-.043.1-.062c.133-.076.271-.157.409-.228l.086-.043.181-.081.1-.052.1-.048.1-.052.109-.048.1-.048.438-.176.1-.038.114-.043.1-.033.09-.029.2-.067.1-.029.086-.024.081-.024.143-.043.19-.048.594-.128h.542c.19-.024.385-.043.576-.057h1.593a4.3,4.3,0,0,1,.476.043l.2.029h.442c.2.038.4.081.594.128l.243.062h.067a.8.8,0,0,1,.1.029l.2.057.09.029.428.147.1.038.128.048.195.081.224.1.086.038.119.057.1.048.1.052.133.067.1.057.243.133.1.057.347.214.1.062.1.067.1.067h0l.067.043c.143.1.281.2.414.3a.743.743,0,0,1,.1.076c.067.048.128.1.19.152l.1.076.09.081.138.124a1.29,1.29,0,0,1,.119.109l.181.166.114.114.114-.114.176-.166.119-.109.143-.124.09-.081.1-.076c.062-.052.124-.1.19-.152a.739.739,0,0,1,.1-.076c.157-.124.319-.243.476-.352l.1-.067.1-.067.09-.062.143-.086.067-.043.1-.062c.133-.076.271-.157.409-.228l.081-.043.128-.067.109-.052.1-.048.1-.052.109-.048.1-.048.433-.176.109-.038.114-.043.1-.033.086-.029.2-.067.1-.029.081-.024.081-.024.147-.043.19-.048c.2-.048.395-.09.594-.128h.542c.19-.024.38-.043.575-.057h1.593l.476.043.2.029h.442c.2.038.395.081.594.128l.243.062h.062a.672.672,0,0,1,.1.029l.2.057.086.029.433.147.1.038.128.048.195.081.224.1.086.038.119.057.1.048.1.052.133.067.1.057.243.133.1.057.352.214.1.062.1.067.1.067h0l.067.043.414.3.1.076.19.152.09.076.1.081.119.1.124.109.067.067h0l.119.109.052.052.062.062.114.114.171.185.1.109c.057.057.109.119.162.181l.171.2a8.561,8.561,0,0,1,.552.742l.071.1.071.114a1.147,1.147,0,0,1,.062.1c.038.052.071.109.1.166s.062.1.09.157l.057.1.043.076.043.076.057.114c0,.038.043.076.062.114.138.266.262.542.371.818a.877.877,0,0,1,.048.119q.071.171.128.342a.31.31,0,0,0,.038.1l.048.147.043.133a.119.119,0,0,0,.024.086c.024.029,0,.081.038.119l.043.152a1.179,1.179,0,0,0,.062.247l.029.128.043.181v.081a.681.681,0,0,1,0,.1.483.483,0,0,1,0,.081.367.367,0,0,1,0,.071v.128a1.186,1.186,0,0,1,0,.128,1.291,1.291,0,0,1,0,.133.3.3,0,0,0,.024.143v.585h0v.347h0v.157C715.951,268.2,715.951,268.3,715.951,268.416Z" transform="translate(-424.508 -147.337)" opacity="0.1"/>
    <path id="Path_165" data-name="Path 165" d="M420.763,290.383a.616.616,0,0,1,0,.09v.861c0,.046,0,.092,0,.138a2.051,2.051,0,0,1-.043.338c-.019.114,0,.147-.033.219h0a.752.752,0,0,1,0,.109v.243l-.029.114a.549.549,0,0,1,0,.086.24.24,0,0,1-.033.147h0a.762.762,0,0,0-.024.1,1.112,1.112,0,0,0-.033.119l-.043.147a.139.139,0,0,1,0,.043l-.043.147c-.048.157-.1.309-.152.476a1.349,1.349,0,0,1-.052.147l-.029.081a10.419,10.419,0,0,1-1.393,2.535l-.109.147a10.423,10.423,0,0,1-.889,1.013l-14.843,14.843-14.843-14.843a10.592,10.592,0,0,1-1.165-1.379c-.219-.314-.419-.637-.6-.951a10.5,10.5,0,0,1-1.265-5.969,4.653,4.653,0,0,1,.062-.571c.048-.333.109-.666.19-.994a1.016,1.016,0,0,1,.048-.2l.029-.1a.308.308,0,0,1,0-.062.561.561,0,0,1,.038-.147h0c.033-.114.067-.228.1-.342s.038-.1.052-.157q.119-.338.257-.656l.057-.133c.029-.062.057-.128.09-.2s.1-.209.152-.309v-.024h0l.071-.138.086-.157.114-.2.052-.09.033-.052h0l.071-.114c.024-.043.052-.086.081-.128l.185-.281.071-.1.086-.119c.029-.038.057-.081.09-.119a1.7,1.7,0,0,1,.109-.147l.1-.128.033-.043.071-.09.119-.138.052-.057h0l.086-.1.1-.109.285-.3.114-.109.181-.171.119-.109.138-.124.1-.076.09-.081.19-.152.1-.076c.157-.119.319-.238.476-.352l.1-.067.1-.067.1-.057a1.372,1.372,0,0,1,.138-.09l.067-.038.1-.062c.133-.081.271-.157.409-.228l.086-.048.043-.067.1-.052.1-.052.1-.048.109-.048.1-.048.438-.176.1-.038.114-.043.1-.038.09-.029.2-.062.1-.033.086-.024h.081l.143-.038.19-.048c.2-.052.395-.1.594-.128h.314l.143-.024h.086c.19,0,.385-.048.575-.062h1.579l.476.048.2.024.138.024h.3c.2.033.4.076.594.124l.243.062h.067l.1.029.2.062.086.024c.147.048.29.1.433.152l.1.033.128.052.195.076.224.1.086.043.119.052.1.052.1.052.133.067.1.057.243.128.1.062c.119.067.238.138.352.214l.1.057.1.067.1.067h0a.336.336,0,0,1,.067.048q.209.143.414.3l.1.076.19.152.09.081.1.076.138.124.119.109.181.171.114.109.114-.109.176-.171.119-.109.143-.124.09-.076.1-.081.19-.152.1-.076c.157-.119.319-.238.476-.352l.1-.067.1-.067.09-.057.143-.09.067-.038.1-.062c.133-.081.271-.157.409-.228a.473.473,0,0,0,.081-.048l.128-.062.1-.052.109-.052.1-.048.109-.048.1-.048.433-.176.109-.038.114-.043.1-.038.086-.029.2-.062.1-.033.081-.024h.081l.147-.038.19-.048c.2-.052.395-.1.594-.128h.309l.147-.024h.086c.19,0,.38-.048.575-.062h1.593l.476.048.209.024.138.024h.3c.2.033.395.076.594.124l.238.062h.067l.1.029.2.062.086.024c.147.048.29.1.433.152l.1.033.128.052.195.076.219.1.09.043.119.052.1.052.1.052.133.067.1.057.243.128.1.062c.119.067.238.138.352.214l.1.057.1.067.1.067h0l.067.048.414.3.1.076.19.152.09.081.1.076.119.109a1.3,1.3,0,0,1,.119.109l.071.062h0l.119.109.048.048.067.062.114.119.171.181.1.109.162.185.171.2a7.907,7.907,0,0,1,.552.742l.071.1.071.114a.654.654,0,0,1,.062.1c.038.057.071.114.1.171l.09.152.057.1.043.076.043.076.057.109c.024.038.043.081.062.119a8.907,8.907,0,0,1,.371.813l.048.119q.071.171.128.342l.038.109a.662.662,0,0,0,.048.147l.043.133a.1.1,0,0,0,.024.081l.038.124a1.435,1.435,0,0,1,.038.152c.024.081.043.162.067.243l.029.128.043.185v.076a.809.809,0,0,1,0,.1.557.557,0,0,1,0,.086.283.283,0,0,1,0,.067v.262a1.2,1.2,0,0,1,0,.128v.147a1.368,1.368,0,0,1,0,.138v.3a1.414,1.414,0,0,1,0,.147h0a.576.576,0,0,0,0,.09c0,.033,0,.067,0,.1v.157h0v.162C420.545,290.131,420.763,290.278,420.763,290.383Z" transform="translate(-269.642 -158.879)" fill="#ff6584"/>
    <path id="Path_166" data-name="Path 166" d="M420.9,290.383a.611.611,0,0,1,0,.09v.861a1.368,1.368,0,0,1,0,.138,2.051,2.051,0,0,1-.043.338c-.019.114,0,.147-.033.219h0a.743.743,0,0,1,0,.109v.243l-.029.114a.557.557,0,0,1,0,.086.24.24,0,0,1-.033.147h0a.762.762,0,0,0-.024.1,1.12,1.12,0,0,0-.033.119l-.043.147a.138.138,0,0,1,0,.043l-.043.147c-.048.157-.1.309-.152.476a1.355,1.355,0,0,1-.052.147l-.029.081a10.247,10.247,0,0,0-4.761-11.3c-.186-.124-.38-.233-.571-.342a10.534,10.534,0,0,0-10.106,0,10.242,10.242,0,0,0-.994.623,10.509,10.509,0,0,0-1.374,1.16,10.285,10.285,0,0,0-1.284-1.094h0a10.417,10.417,0,0,0-1.084-.69,10.534,10.534,0,0,0-10.106,0,10.172,10.172,0,0,0-1.489,1,10.463,10.463,0,0,0-.88.785,10.355,10.355,0,0,0-1.151,1.365c-.209.295-.4.6-.575.908h0c-.162.295-.314.594-.447.9-.076.171-.143.342-.209.514a1.014,1.014,0,0,1,.048-.2l.029-.1a.308.308,0,0,1,0-.062.562.562,0,0,1,.038-.147h0c.033-.114.067-.228.1-.342s.038-.1.052-.157q.119-.338.257-.656l.057-.133c.029-.062.057-.128.09-.2s.1-.209.152-.309v-.024h0l.071-.138.086-.157.114-.2.052-.09.033-.052h0l.071-.114c.024-.043.052-.086.081-.128l.185-.281.071-.1.086-.119c.029-.038.057-.081.09-.119a1.7,1.7,0,0,1,.109-.147l.1-.128.033-.043.071-.09.119-.138.052-.057h0l.086-.1.1-.109.285-.3.114-.109.181-.171.119-.109.138-.124.1-.076.09-.081.19-.152.1-.076c.157-.119.319-.238.476-.352l.1-.067.1-.067.1-.057a1.372,1.372,0,0,1,.138-.09l.067-.038.1-.062c.133-.081.271-.157.409-.228l.086-.048.214-.067.1-.052.1-.052.1-.048.109-.048.1-.048.438-.176.1-.038.114-.043.1-.038.09-.029.2-.062.1-.033.086-.024h.081l.143-.038.19-.048c.2-.052.395-.1.594-.128h.314l.143-.024h.086c.19,0,.385-.048.575-.062h1.579l.476.048.2.024.138.024h.3c.2.033.4.076.594.124l.243.062h.067l.1.029.2.062.086.024c.147.048.29.1.433.152l.1.033.128.052.195.076.224.1.086.043.119.052.1.052.1.052.133.067.1.057.243.128.1.062c.119.067.238.138.352.214l.1.057.1.067.1.067h0a.337.337,0,0,1,.067.048q.209.143.414.3l.1.076.19.152.09.081.1.076.138.124.119.109.181.171.114.109.114-.109.176-.171.119-.109.143-.124.09-.076.1-.081.19-.152.1-.076c.157-.119.319-.238.476-.352l.1-.067.1-.067.09-.057.143-.09.067-.038.1-.062c.133-.081.271-.157.409-.228a.474.474,0,0,0,.081-.048l.128-.062.1-.052.109-.052.1-.048.109-.048.1-.048.433-.176.109-.038.114-.043.1-.038.086-.029.2-.062.1-.033.081-.024h.081l.147-.038.19-.048c.2-.052.395-.1.594-.128h.309l.147-.024h.086c.19,0,.38-.048.575-.062H411.2l.476.048.209.024.138.024h.3c.2.033.395.076.594.124l.238.062h.067l.1.029.2.062.086.024c.147.048.29.1.433.152l.1.033.128.052.195.076.219.1.09.043.119.052.1.052.1.052.133.067.1.057.243.128.1.062c.119.067.238.138.352.214l.1.057.1.067.1.067h0l.067.048.414.3.1.076.19.152.09.081.1.076.119.109a1.305,1.305,0,0,1,.119.109l.071.062h0l.119.109.048.048.067.062.114.119.171.181.1.109.162.185.171.2a7.9,7.9,0,0,1,.552.742l.071.1.071.114a.649.649,0,0,1,.062.1c.038.057.071.114.1.171l.09.152.057.1.043.076.043.076.057.109c.024.038.043.081.062.119a8.915,8.915,0,0,1,.371.813l.048.119q.071.171.128.342l.038.109a.66.66,0,0,0,.048.147l.043.133a.1.1,0,0,0,.024.081l.038.124a1.428,1.428,0,0,1,.038.152c.024.081.043.162.067.243l.029.128.043.185v.076a.809.809,0,0,1,0,.1.557.557,0,0,1,0,.086.283.283,0,0,1,0,.067v.262a1.186,1.186,0,0,1,0,.128v.147a1.368,1.368,0,0,1,0,.138v.3a1.423,1.423,0,0,1,0,.147h0a.573.573,0,0,0,0,.09v.252h0v.162C420.677,290.131,420.9,290.278,420.9,290.383Z" transform="translate(-269.774 -158.879)" opacity="0.1"/>
    <path id="Path_167" data-name="Path 167" d="M411.092,449.644v.166a.647.647,0,0,1,0,.1c0,.071,0,.147,0,.224v.285a.063.063,0,0,1,0,.029v.3l-.043.338a.5.5,0,0,1-.033.219h0v.171a.241.241,0,0,1,0,.057.877.877,0,0,1-.024.119.945.945,0,0,1-.024.114v.086a.27.27,0,0,1-.033.147h0l-.029.1-.029.124-.043.147v.038a1.2,1.2,0,0,1-.048.152c-.043.152-.1.309-.147.476l-.052.143a.412.412,0,0,1-.033.081,10.273,10.273,0,0,1-1.389,2.54l-.109.143a10.458,10.458,0,0,1-.894,1.013L393.324,471.8l-14.843-14.843a10.6,10.6,0,0,1-1.165-1.379,10.857,10.857,0,0,1-.6-.951,10.462,10.462,0,0,1-1.265-5.969,3.746,3.746,0,0,1,.062-.566c.048-.338.109-.666.19-1a.763.763,0,0,1,.048-.2l.029-.1v-.057l.043-.152h0c.038-.114.071-.228.109-.342l.052-.157c.081-.224.162-.442.257-.661l-.071-.133.086-.2c.052-.1.1-.209.157-.314v-.024h0l.076-.138.086-.157c.033-.067.071-.133.109-.195l.057-.1.029-.052h0c0-.038.043-.076.067-.114s.057-.086.081-.128l.19-.281c.024-.033.043-.067.067-.1l.086-.119.09-.124.114-.147.1-.128.038-.043.071-.09.119-.138.052-.057h0l.09-.1.138-.119c.09-.1.185-.2.285-.295l.114-.114.176-.171.119-.1.143-.124.09-.081.1-.076c.062-.052.124-.1.19-.152a.743.743,0,0,1,.1-.076c.157-.124.319-.243.476-.352l.1-.067a.721.721,0,0,1,.1-.067l.09-.062.143-.086.067-.043.1-.062c.133-.081.271-.157.409-.228l.081-.043.128-.067.1-.052.109-.048.1-.052.1-.048.109-.048.433-.176.109-.038.114-.043.1-.033.086-.029.2-.067.1-.033.081-.024h.081l.147-.043.19-.048c.195-.048.395-.09.594-.128h.542c.19-.024.38-.043.575-.057h1.579l.476.043.209.029h.442c.2.033.395.076.594.124l.238.067h.067l.1.033.2.057.086.029c.147.043.29.1.433.147l.1.038.128.048.195.081.219.1.09.038.119.057.1.048.1.052.133.067.1.057.243.133.1.057c.119.071.238.138.352.214l.1.062.1.067.1.067h0l.067.043.414.3.1.076.19.152.09.076.1.081.138.124.119.1.176.171.119.114.114-.114.176-.171.119-.1.138-.124.1-.081.09-.076.19-.152.1-.076c.162-.124.323-.243.476-.352l.1-.067.1-.067.1-.062.138-.086.071-.043.1-.062.414-.228.081-.043.128-.067.1-.052.1-.048.109-.052.1-.048.109-.048.433-.176.109-.038.114-.043.1-.033.086-.029.2-.067.1-.033.081-.024h.081l.143-.043.2-.048c.2-.048.395-.09.594-.128h.537l.575-.057h1.579a4.2,4.2,0,0,1,.476.043l.2.029h.447c.2.033.395.076.59.124l.243.067h.067l.1.033.2.057.086.029c.143.043.29.1.433.147l.1.038.128.048.2.081.224.1.086.038.119.057.109.048.1.052.133.067.1.057c.081.043.162.086.238.133l.1.057.352.214.1.062.1.067.1.067h0l.062.043c.143.1.281.2.414.3l.1.076.185.152.1.076.09.081.124.1.119.109.067.067h0l.114.109.052.052.062.062.114.114.176.185.1.1.162.185.171.2a8.574,8.574,0,0,1,.552.742l.071.1.071.114.062.1.1.166.09.157.057.1.043.076c0,.024.024.052.038.076s.043.076.062.114.038.076.062.114c.133.266.257.542.371.818,0,.038.033.076.048.119l.128.342.033.1a.458.458,0,0,0,.052.147.819.819,0,0,1,.038.133l.029.086.033.119.043.152c.024.081.043.162.062.247a1.282,1.282,0,0,1,.033.128,1.364,1.364,0,0,0,.038.181v1.455h0v.1a.664.664,0,0,0,0,.1q0,.078,0,.157h0v.162C410.835,449.406,411.1,449.539,411.092,449.644Z" transform="translate(-264.56 -242.407)" fill="#ff6584"/>
    <path id="Path_168" data-name="Path 168" d="M411.287,449.644v.166a.634.634,0,0,1,0,.1v.509a.062.062,0,0,1,0,.029v.3l-.043.338a.5.5,0,0,1-.033.219h0v.171a.235.235,0,0,1,0,.057.877.877,0,0,1-.024.119.957.957,0,0,1-.024.114v.086a.27.27,0,0,1-.033.147h0l-.029.1-.029.124-.043.147v.038a1.2,1.2,0,0,1-.048.152c-.043.152-.1.309-.147.476l-.052.143a.414.414,0,0,1-.033.081,10.192,10.192,0,0,0,.29-2.544,10.32,10.32,0,0,0-.357-2.64,10.544,10.544,0,0,0-4.509-6.135c-.19-.119-.38-.233-.575-.338a10.5,10.5,0,0,0-10.1,0,14.925,14.925,0,0,0-2.492,1.783,10.641,10.641,0,0,0-1.284-1.094h0a10.9,10.9,0,0,0-1.084-.685,10.506,10.506,0,0,0-11.6.994,11.229,11.229,0,0,0-.875.785,10.353,10.353,0,0,0-1.151,1.365,9.7,9.7,0,0,0-.575.908h0a9.871,9.871,0,0,0-.447.9c-.076.167-.147.338-.209.509a.762.762,0,0,1,.048-.2l.029-.1v-.057l.043-.152h0c.038-.114.071-.228.109-.342l.052-.157c.081-.224.162-.442.257-.661l.043-.109.086-.2.157-.314v-.024h0l.076-.138.086-.157c.033-.067.071-.133.109-.195l.057-.1.029-.052h0c0-.038.043-.076.067-.114s.057-.086.081-.128l.19-.281c.024-.033.043-.067.067-.1l.086-.119.09-.124.114-.147.1-.128.038-.043.071-.09.119-.138.052-.057h0l.09-.1.138-.119c.09-.1.185-.2.285-.295l.114-.114.176-.171.119-.1.143-.124.09-.081.1-.076c.062-.052.124-.1.19-.152a.746.746,0,0,1,.1-.076c.157-.124.319-.243.476-.352l.1-.067a.723.723,0,0,1,.1-.067l.09-.062.143-.086.067-.043.1-.062c.133-.081.271-.157.409-.228l.081-.043.128-.067.1-.052.109-.048.1-.052.1-.048.109-.048.433-.176.109-.038.114-.043.1-.033.086-.029.2-.067.1-.033.081-.024h.081l.147-.043.19-.048c.2-.048.395-.09.594-.128h.542c.19-.024.38-.043.575-.057h1.579l.476.043.209.029h.442c.2.033.395.076.594.124l.238.067h.067l.1.033.2.057.086.029c.147.043.29.1.433.147l.1.038.128.048.2.081.219.1.09.038.119.057.1.048.1.052.133.067.1.057.243.133.1.057c.119.071.238.138.352.214l.1.062.1.067.1.067h0l.067.043.414.3.1.076.19.152.09.076.1.081.138.124.119.1.176.171.119.114.114-.114.176-.171.119-.1.138-.124.1-.081.09-.076.19-.152.1-.076c.162-.124.323-.243.476-.352l.1-.067.1-.067.1-.062.138-.086.071-.043.1-.062.414-.228.081-.043.128-.067.1-.052.1-.048.109-.052.1-.048.109-.048.433-.176.109-.038.114-.043.1-.033.086-.029.2-.067.1-.033.081-.024h.081l.143-.043.2-.048c.195-.048.395-.09.594-.128h.537l.575-.057h1.579a4.2,4.2,0,0,1,.476.043l.2.029h.447c.2.033.395.076.59.124l.243.067h.067l.1.033.2.057.086.029c.143.043.29.1.433.147l.1.038.128.048.195.081.224.1.086.038.119.057.109.048.1.052.133.067.1.057c.081.043.162.086.238.133l.1.057.352.214.1.062.1.067.1.067h0l.062.043c.143.1.281.2.414.3l.1.076.185.152.1.076.09.081.124.1.119.109.067.067h0l.114.109.052.052.062.062.114.114.176.185.1.1.162.185.171.2a8.562,8.562,0,0,1,.552.742l.071.1.071.114.062.1.1.166.09.157.057.1.043.076c0,.024.024.052.038.076s.043.076.062.114.038.076.062.114c.133.266.257.542.371.818,0,.038.033.076.048.119l.128.342.033.1a.458.458,0,0,0,.052.147.816.816,0,0,1,.038.133l.029.086.033.119.043.152c.024.081.043.162.062.247a1.266,1.266,0,0,1,.033.128,1.369,1.369,0,0,0,.038.181v1.455h0v.1a.668.668,0,0,0,0,.1v.157h0v.162C411.031,449.406,411.292,449.539,411.287,449.644Z" transform="translate(-264.756 -242.407)" opacity="0.1"/>
    <path id="Path_169" data-name="Path 169" d="M505.822,350.749v.119a.276.276,0,0,1,0,.062v.5a.717.717,0,0,1,0,.1l-.029.238-.029.152h0v.076a.173.173,0,0,1,0,.048v.262q0,.052,0,.1h0v.067a.131.131,0,0,1-.024.09l-.029.1v.024l-.029.109c-.033.109-.071.219-.109.323s0,.071-.033.1l-.024.057a7.5,7.5,0,0,1-.98,1.793l-.081.1a6.855,6.855,0,0,1-.628.718l-10.487,10.487-10.487-10.487a7.438,7.438,0,0,1-2.145-5.874,3.012,3.012,0,0,1,.048-.4,6.963,6.963,0,0,1,.133-.7.77.77,0,0,1,.033-.143.4.4,0,0,0,0-.071v-.043l.029-.1h0c.024-.086.052-.166.076-.243l.038-.114c.057-.157.114-.309.181-.476l.043-.09c0-.048.038-.09.062-.138l.1-.219h0a1.008,1.008,0,0,0,.052-.1l.062-.109a1.312,1.312,0,0,1,.081-.138.3.3,0,0,1,.038-.067v-.038h0l.052-.076.057-.09.133-.2.048-.071.057-.081.067-.09.081-.1a.662.662,0,0,1,.071-.09l.024-.033.052-.062c.029-.033.052-.067.081-.1l.038-.043h0l.062-.067.071-.081.2-.209.081-.081.128-.119a.618.618,0,0,0,.081-.076l.1-.086.067-.057.067-.052.133-.109.067-.052.342-.252.071-.048.071-.043.067-.043.1-.062.052-.029.071-.043c.1-.057.19-.114.29-.162l.057-.033.09-.048.076-.033.076-.038.071-.033.076-.033.076-.033.309-.124.076-.029.081-.029.071-.029h.062l.143-.048h.185l.1-.029.133-.033c.143-.038.281-.067.423-.09h.38c.133,0,.271-.033.4-.043h1.127l.323.033h.461c.138.024.281.052.419.086l.171.048h.119l.143.038h.057l.309.1.067.029.09.033.138.057.157.067.062.029.086.038.076.038.071.033.1.048.071.043.171.09.071.043.252.152.067.043.067.043.071.048h0l.048.033c.1.067.2.138.29.214l.067.052.138.109.062.052.067.057.1.086.086.076a1.463,1.463,0,0,0,.124.119l.081.081.081-.081a1.458,1.458,0,0,0,.124-.119l.086-.076.1-.086.067-.057.062-.052.138-.109.067-.052c.109-.086.224-.171.342-.252l.071-.048.067-.043.067-.043.1-.062.048-.029.071-.043c.1-.057.2-.114.295-.162l.057-.033.09-.048.071-.033.076-.038.076-.033.076-.033.076-.033.3-.124.076-.029.081-.029.076-.029h.062l.138-.048h.19l.1-.029.138-.033c.138-.038.281-.067.419-.09h.385c.133,0,.266-.033.4-.043h1.127l.323.033h.461l.414.086.171.048h.124l.138.038h.062l.3.1.071.029.09.033.138.057.157.067.062.029.081.038.076.038.076.033.09.048.076.043.171.09.071.043c.086.048.166.1.247.152l.067.043.071.043.071.048h0l.043.033c.1.067.2.138.295.214l.067.052a1.475,1.475,0,0,1,.133.109l.067.052.067.057.086.076.086.076.048.048h0l.081.081.033.033.048.043.081.086.124.128.067.076.114.128.124.147c.138.166.266.342.39.523l.048.071c0,.029.033.057.052.081l.043.071c.024.038.052.076.076.119l.062.109a.476.476,0,0,1,.038.067l.033.052.029.057.043.081.043.081c.1.185.181.38.262.575l.033.086c.033.081.062.157.09.243a.418.418,0,0,1,.024.071.117.117,0,0,0,.038.1l.029.1a.435.435,0,0,0,0,.062.119.119,0,0,0,.024.086l.029.1a.767.767,0,0,0,.048.171c.014.057,0,.062,0,.1l.029.128v.128a.241.241,0,0,0,0,.057v.428a.708.708,0,0,1,0,.1v.052a.721.721,0,0,0,0,.1.2.2,0,0,0,0,.052v.1h0a.333.333,0,0,1,0,.067.311.311,0,0,1,0,.067.913.913,0,0,1,0,.114h0a.913.913,0,0,1,0,.114Z" transform="translate(-319.769 -192.179)" fill="#ff6584"/>
    <path id="Path_170" data-name="Path 170" d="M506.1,350.717v.119a.269.269,0,0,1,0,.062v.5a.707.707,0,0,1,0,.1l-.029.238-.029.152h0v.076a.17.17,0,0,1,0,.048v.262q0,.052,0,.1h0v.067a.131.131,0,0,1-.024.09l-.029.1v.024l-.029.109c-.033.109-.071.219-.109.323s0,.071-.033.1l-.024.057a7.4,7.4,0,0,0,.2-1.8,7.561,7.561,0,0,0-.252-1.869,7.438,7.438,0,0,0-1.9-3.329,7.538,7.538,0,0,0-1.27-1.018c-.133-.081-.266-.162-.4-.238a7.433,7.433,0,0,0-7.134,0,8.255,8.255,0,0,0-.7.438,7.823,7.823,0,0,0-.951.818,7.614,7.614,0,0,0-.9-.77h0a6.535,6.535,0,0,0-.77-.476,7.433,7.433,0,0,0-7.134,0,7.239,7.239,0,0,0-1.051.7,7.526,7.526,0,0,0-.618.552,7.78,7.78,0,0,0-.818.951c-.147.209-.281.423-.4.642h0a6.667,6.667,0,0,0-.319.637c-.052.119-.1.238-.147.361a.773.773,0,0,1,.033-.143.392.392,0,0,0,0-.071V348.6l.029-.1h0c.024-.086.052-.166.076-.243l.038-.114c.057-.157.114-.309.181-.476l.043-.09c0-.048.038-.09.062-.138l.1-.219h0a1.008,1.008,0,0,0,.052-.1l.062-.109a1.312,1.312,0,0,1,.081-.138.306.306,0,0,1,.038-.067v-.038h0l.052-.076.057-.09.133-.2.048-.071.057-.081.067-.09.081-.1a.662.662,0,0,1,.071-.09l.024-.033.052-.062c.029-.033.052-.067.081-.1l.038-.043h0l.062-.067.071-.081.2-.209.081-.081.128-.119a.615.615,0,0,0,.081-.076l.1-.086.067-.057.067-.052.133-.109.067-.052.342-.252.071-.048.071-.043.067-.043.1-.062.052-.029.071-.043c.1-.057.19-.114.29-.162l.057-.033.09-.048.076-.033.076-.038.071-.033.076-.033.076-.033.309-.124.076-.029.081-.029.071-.029h.062l.143-.048h.185l.1-.029.133-.033c.143-.038.281-.067.423-.09h.38c.133,0,.271-.033.4-.043h1.127l.323.033h.461c.138.024.281.052.419.086l.171.048h.119l.143.038h.057l.309.1.067.029.09.033.138.057.157.067.062.029.086.038.076.038.071.033.1.048.071.043.171.09.071.043.252.152.067.043.067.043.071.048h0l.048.033c.1.067.195.138.29.214l.067.052.138.109.062.052.067.057.1.086.086.076a1.472,1.472,0,0,0,.124.119l.081.081.081-.081a1.463,1.463,0,0,0,.124-.119l.086-.076.1-.086.067-.057.062-.052.138-.109.067-.052c.109-.086.224-.171.342-.252l.071-.048.067-.043.067-.043.1-.062.048-.029.071-.043c.1-.057.195-.114.295-.162l.057-.033.09-.048.071-.033.076-.038.076-.033.076-.033.076-.033.3-.124.076-.029.081-.029.076-.029h.062l.138-.048h.19l.1-.029.138-.033c.138-.038.281-.067.419-.09h.385c.133,0,.266-.033.4-.043H499.4l.323.033h.461l.414.086.171.048h.124l.138.038h.062l.3.1.071.029.09.033.138.057.157.067.062.029.081.038.076.038.076.033.09.048.076.043.171.09.071.043c.086.048.166.1.247.152l.067.043.071.043.071.048h0l.043.033c.1.067.2.138.295.214l.067.052a1.483,1.483,0,0,1,.133.109l.067.052.067.057.086.076.086.076.048.048h0l.081.081.033.033.048.043.081.086.124.128.067.076.114.128.124.147c.138.166.266.342.39.523l.048.071c0,.029.033.057.052.081l.043.071c.024.038.052.076.076.119l.062.109a.473.473,0,0,1,.038.067l.033.052.029.057.043.081.043.081c.1.185.181.38.262.575l.033.086c.033.081.062.157.09.243a.417.417,0,0,1,.024.071.117.117,0,0,0,.038.1l.029.1a.445.445,0,0,0,0,.062.118.118,0,0,0,.024.086l.029.1a.77.77,0,0,0,.048.171c.014.057,0,.062,0,.1l.029.128v.128a.235.235,0,0,0,0,.057v.428a.717.717,0,0,1,0,.1v.052a.713.713,0,0,0,0,.1.194.194,0,0,0,0,.052c0,.033,0,.067,0,.1h0a.337.337,0,0,1,0,.067.313.313,0,0,1,0,.067.919.919,0,0,1,0,.114h0a.913.913,0,0,1,0,.114Z" transform="translate(-320.05 -192.148)" opacity="0.1"/>
    <path id="Path_171" data-name="Path 171" d="M741.89,435.182v.119a.337.337,0,0,1,0,.067v.19a1.154,1.154,0,0,0,0,.128v.181a.651.651,0,0,1,0,.1l-.029.238v.157h0v.076a.141.141,0,0,1,0,.048v.043a.65.65,0,0,1,0,.081v.247h0a.4.4,0,0,0,0,.071q0,.043,0,.086l-.029.1v.029a.9.9,0,0,0-.033.1c-.033.109-.067.219-.1.328a.86.86,0,0,0-.038.1l-.024.057a7.415,7.415,0,0,1-.98,1.793l-.076.1a7.493,7.493,0,0,1-.633.718l-10.487,10.487-10.463-10.487a6.88,6.88,0,0,1-.823-.975,6.785,6.785,0,0,1-.428-.68,7.424,7.424,0,0,1-.894-4.218,1.9,1.9,0,0,1,.043-.4,7.014,7.014,0,0,1,.133-.7.2.2,0,0,1,.038-.143.392.392,0,0,1,0-.071.136.136,0,0,1,0-.043l.029-.1h0a.954.954,0,0,1,.076-.243,1.058,1.058,0,0,0,.038-.114c.057-.157.119-.309.181-.476l.043-.1a.387.387,0,0,1,.062-.138c.024-.048.071-.147.109-.219h0l.048-.1.062-.109c.029-.048.052-.1.081-.138a.487.487,0,0,1,.038-.067v-.038h0c0-.029.033-.057.052-.081l.057-.09.133-.2.048-.067.062-.086.062-.086.081-.1.071-.09v-.033l.052-.062.081-.1.038-.043h0l.062-.071.071-.076c.067-.071.133-.143.2-.209a.653.653,0,0,1,.081-.081,1.472,1.472,0,0,1,.124-.119l.086-.076a.859.859,0,0,1,.1-.09l.067-.057.067-.052.133-.109.067-.052c.114-.086.228-.171.342-.247l.071-.048.071-.048.067-.043.1-.062.048-.029.071-.043.29-.162.057-.033.09-.043.076-.038.076-.033.076-.038.071-.033.076-.033.309-.124.076-.029.081-.029.071-.024.062-.024.143-.043h.185l.1-.029.133-.033c.143-.033.281-.067.423-.09h.38l.409-.043h1.122l.328.033h.457a4.087,4.087,0,0,1,.418.09l.171.043h.119l.143.043h.062l.3.1h.067l.09.033.138.057.157.067.062.029.086.043.076.033.071.038.1.048.076.038.166.1.076.038.247.152.067.043.071.048.067.048h0l.048.033.29.214.071.052.133.109.067.052.062.057.1.09.086.076.124.119a.65.65,0,0,1,.081.081c.029-.029.052-.057.081-.081l.128-.119a.615.615,0,0,1,.081-.076l.1-.09.067-.057.067-.052.133-.109.067-.052c.114-.086.228-.171.342-.247l.071-.048.071-.048.067-.043.1-.062.052-.029.071-.043.29-.162.057-.033.09-.043.076-.038.071-.033.076-.038.076-.033.076-.033.3-.124.076-.029.081-.029.076-.024.062-.024.143-.043h.185l.1-.029.133-.033c.138-.033.281-.067.419-.09h.385l.4-.043h1.127l.323.033h.461c.138.024.281.052.418.09l.171.043h.119l.138.043h.062l.3.1h.071l.09.033.138.057.157.067.062.029.086.043.071.033.076.038.1.048.071.038.171.1.071.038c.086.048.166.1.247.152l.067.043.071.048.071.048h0l.048.033.29.214.067.052.133.109.067.052.067.057.086.076.086.076a.451.451,0,0,0,.048.048h0c0,.029.052.052.081.081l.038.033.043.048.081.081.124.128.067.076a1.524,1.524,0,0,1,.114.133l.124.143c.138.171.266.342.39.523,0,.024.033.048.048.076l.052.076.043.071c.029.038.052.081.076.119l.062.109.043.067.029.057.029.052.043.081.043.081c.1.19.185.38.262.575a.632.632,0,0,1,.033.086c.033.081.062.162.09.243l.029.076a.81.81,0,0,0,.033.1l.029.1v.147l.029.1a.806.806,0,0,0,.048.176c.014.057,0,.057,0,.09l.029.128v1.027h0a.269.269,0,0,0,0,.062v.067a.9.9,0,0,1,0,.114h0a.9.9,0,0,1,0,.114Z" transform="translate(-443.603 -236.434)" fill="#ff6584"/>
    <path id="Path_172" data-name="Path 172" d="M742.135,435.192v.119a.337.337,0,0,1,0,.067v.19a1.155,1.155,0,0,0,0,.128v.181a.652.652,0,0,1,0,.1l-.029.238v.157h0v.076a.141.141,0,0,1,0,.048v.043a.65.65,0,0,1,0,.081v.247h0a.4.4,0,0,0,0,.071q0,.043,0,.086l-.029.1v.029a.894.894,0,0,0-.033.1c-.033.109-.067.219-.1.328a.86.86,0,0,0-.038.1l-.024.057a7.4,7.4,0,0,0-3.234-7.98c-.133-.086-.266-.166-.4-.243a7.433,7.433,0,0,0-7.134,0,7.246,7.246,0,0,0-.7.442,7.427,7.427,0,0,0-.951.818,7.282,7.282,0,0,0-.9-.775h0a8.626,8.626,0,0,0-.766-.476,7.443,7.443,0,0,0-7.134,0,7.648,7.648,0,0,0-1.051.7,6.808,6.808,0,0,0-.618.556,7.028,7.028,0,0,0-.813.951,6.161,6.161,0,0,0-.409.647h0c-.119.209-.224.423-.319.637-.052.119-.1.238-.147.361a.2.2,0,0,1,.038-.143.4.4,0,0,1,0-.071.14.14,0,0,1,0-.043l.029-.1h0a.955.955,0,0,1,.076-.243,1.069,1.069,0,0,0,.038-.114c.057-.157.119-.309.181-.476l.043-.1a.387.387,0,0,1,.062-.138c.024-.048.071-.147.109-.219h0l.047-.1.062-.109c.029-.048.052-.1.081-.138a.47.47,0,0,1,.038-.067v-.038h0c0-.029.033-.057.052-.081l.057-.09.133-.2.047-.067.062-.086.062-.086.081-.1.071-.09v-.033l.052-.062.081-.1.038-.043h0l.062-.071.071-.076c.067-.071.133-.143.2-.209a.65.65,0,0,1,.081-.081,1.463,1.463,0,0,1,.124-.119l.086-.076a.854.854,0,0,1,.1-.09l.067-.057.067-.052.133-.109.067-.052c.114-.086.228-.171.342-.247l.071-.048.071-.048.067-.043.1-.062.047-.029.071-.043.29-.162.057-.033.09-.043.076-.038.076-.033.076-.038.071-.033.076-.033.309-.124.076-.029.081-.029.071-.024.062-.024.143-.043h.186l.1-.029.133-.033c.143-.033.281-.067.423-.09h.38l.409-.043h1.122l.328.033h.457a4.088,4.088,0,0,1,.419.09l.171.043h.119l.143.043h.062l.3.1h.067l.09.033.138.057.157.067.062.029.086.043.076.033.071.038.1.048.076.038.166.1.076.038.247.152.067.043.071.048.067.048h0l.047.033.29.214.071.052.133.109.067.052.062.057.1.09.086.076.124.119a.648.648,0,0,1,.081.081c.029-.029.052-.057.081-.081l.128-.119a.613.613,0,0,1,.081-.076l.1-.09.067-.057.067-.052.133-.109.067-.052c.114-.086.228-.171.342-.247l.071-.048.071-.048.067-.043.1-.062.052-.029.071-.043.29-.162.057-.033.09-.043.076-.038.071-.033.076-.038.076-.033.076-.033.3-.124.076-.029.081-.029.076-.024.062-.024.143-.043h.186l.1-.029.133-.033c.138-.033.281-.067.419-.09h.385l.4-.043h1.127l.323.033h.461c.138.024.281.052.419.09l.171.043h.119l.138.043h.062l.3.1h.071l.09.033.138.057.157.067.062.029.086.043.071.033.076.038.1.048.071.038.171.1.071.038c.086.048.166.1.247.152l.067.043.071.048.071.048h0l.048.033.29.214.067.052.133.109.067.052.067.057.086.076.086.076a.452.452,0,0,0,.048.048h0c0,.029.052.052.081.081l.038.033.043.048.081.081.124.128.067.076a1.519,1.519,0,0,1,.114.133l.124.143c.138.171.266.342.39.523,0,.024.033.048.048.076l.052.076.043.071c.029.038.052.081.076.119l.062.109.043.067.029.057.029.052.043.081.043.081c.1.19.186.38.262.575a.632.632,0,0,1,.033.086c.033.081.062.162.09.243l.029.076a.811.811,0,0,0,.033.1l.029.1v.147l.029.1a.809.809,0,0,0,.048.176c.014.057,0,.057,0,.09l.029.128v1.027h0a.276.276,0,0,0,0,.062v.067a.913.913,0,0,1,0,.114h0a.913.913,0,0,1,0,.114Z" transform="translate(-443.848 -236.445)" opacity="0.1"/>
    <path id="Path_173" data-name="Path 173" d="M591.942,319.218h0a54.7,54.7,0,0,0-4.832-4.352c.2-2.549.68-8.651.723-9.826.047-1.489-2.145-3.391-6.834-5.146s-3.329,6.43-3.263,7.167a5.519,5.519,0,0,0,2.854,3.7c.633.262.8.59.761.9l-.147-.024a18.343,18.343,0,0,1-5.6-1.37,29.561,29.561,0,0,0-1.427,6.335v.323a2.445,2.445,0,0,0,.114,1.1h.328a3.581,3.581,0,0,1-.261,1.626h0a12.561,12.561,0,0,1-.476,1.17,32.714,32.714,0,0,1-.223-3.524c.076-1.141-1.741-5.778-1.741-5.778a8.089,8.089,0,0,1-2.345-2.131,9.358,9.358,0,0,0-3.933-2.968c-1.08-.38-4.994-5.474-6.606-6.658-1.284-.951-1.8-.39-1.959-.124l-.1.067a5.636,5.636,0,0,1-1.279-2.73c0-.518.052-1.584.147-2.934a12.36,12.36,0,0,1,1.56,1.427c1.094,1.213,1.9,2.659,3.1,3.776a5.041,5.041,0,0,0,3.415,1.493,3.152,3.152,0,0,0,1.237-.195c1.589-.613,2.611-2.549,4.28-2.625,1.313.067,2.278,1.279,3.353,2.078a4.494,4.494,0,0,0,2.763.951,3.149,3.149,0,0,0,1.165-.185,2.5,2.5,0,0,0,1.517-3.177c-.875-1.845-3.852-1.427-5.122-3.034a1.256,1.256,0,0,1-.295-1.179.823.823,0,0,1,.77-.561,2.683,2.683,0,0,1,1.593.761c.618.628,1.427,1.427,2.192,1.341A1.042,1.042,0,0,0,578,294.8c.024-.566.052-1.132.076-1.7a5.921,5.921,0,0,0,2.644.751,3.1,3.1,0,0,0,.514-.024,2.069,2.069,0,0,0,1.845-2.036,2.307,2.307,0,0,0,1.584.528,2.158,2.158,0,0,0,.761-.1,2.3,2.3,0,0,0,1.541-1.978,4.515,4.515,0,0,0-1.2-2.854l-3.11-4.252a1.721,1.721,0,0,1-.476-1.227,2.554,2.554,0,0,1,.533-.951,3.319,3.319,0,0,0-.647-4.09,5.767,5.767,0,0,0-4.147-1.374c-1.127.024-2.378.214-3.286-.428a3.745,3.745,0,0,1-1.284-2.24c-.661-2.5-.7-5.127-1.16-7.671s-1.455-5.16-3.519-6.711a3.257,3.257,0,0,0-1.631-.713,11.576,11.576,0,0,0-1.512.124c-1.712.1-3.239-1.084-4.318-2.425a38.485,38.485,0,0,0-3.144-4.076,7.674,7.674,0,0,0-7.3-1.688c-1.113.309-2,1.213-3.148,1.26a37.648,37.648,0,0,1-5.2-.476,14.374,14.374,0,0,0-4.756.1,5.06,5.06,0,0,0-3.329,2.468l-.4-3.429s-.837-6.468-1.213-7a1.744,1.744,0,0,1,.047-1.527l.076.071c.057-.171.119-.347.181-.523a1.246,1.246,0,0,0,0-.4c.147-1.3-2.212-9.564-2.212-9.564h-2.121a1.7,1.7,0,0,0-.052-.3c-.618-3.362-1.66-8.618-2.378-9.883a5.9,5.9,0,0,1-.428-3.2,25.63,25.63,0,0,0,.1-3.771,10.32,10.32,0,0,1,.086-1.817,2.549,2.549,0,0,0-1.013-2.378c-2.782-2.064-9.545-6.763-13.5-6.882-5.07-.152,1.589,8.746,1.512,9.583s5.07,1.6,5.07,1.6.3,2.582.609,4.028c.209,1,.561,8.446.761,12.912a14.181,14.181,0,0,1-3.41-1.279s-5.9-1.593-6.435,0,7.191,9.279,7.191,9.279,2.725,7.224,1.9,9.512-.228,13.079-.228,13.079.076,12.841.642,16.122a6.319,6.319,0,0,1-1.023,5.094s-.68,8.061,0,8.822a23.541,23.541,0,0,1,1.864,2.991l.2.361c-2.235,2.73-4.456,5.341-5.621,5.707-2.269.685-17.778,7.134-17.778,7.134s-5.065,4.841-5.831,4.841,4.613,5.174,4.613,5.174,4.841,3.876,5.374,4.485S514.7,329.7,514.7,329.7s2.273.685,2.5,1.37,3.253,2.582,3.253,2.582a19.76,19.76,0,0,1,2.93,4.394,1.026,1.026,0,0,0,.033.328c.029.476.062.694.09.58.4,1.113,3.129,3.952,1.817,5.978-.609.951,0,2.659,1.175,4.038a14.506,14.506,0,0,1-1.237,4.28c-.908,1.218-.5,2.939-1.427,3.144s-1.213,4.665-1.213,4.665l-.785,9.83s-.2,2.026-1.313,2.535,0,3.243,0,3.243-1.189,2.33-.476,3.648-1.427,7.4-1.427,7.4-.908,11.761,0,13.383a13.317,13.317,0,0,1,1.427,5.17c0,1.013.5,19.975.5,19.975s-1.213,7.7-1.617,9.122,1.113,4.566.1,6.183-.808,5.27-.808,5.27-1.512,14.3-.6,19.57-.29,6.387-.29,6.387a10.807,10.807,0,0,0,1.959.866c.024.2.048.414.071.633.476,4.423,1.175,12.042.537,13.792a27.8,27.8,0,0,0-.88,6.925v.309h0l-1.764,2.854s-.352,2.516-.808,2.92-4.247,7.286-4.756,8.171l-.052.1s-3.833,7.048,5.65,7.248,8.27-4.661,8.27-4.661.029-.951.119-2.116a10.213,10.213,0,0,1,.69-3.614,50.8,50.8,0,0,0,2.573-4.613v-5.583h-.609a.979.979,0,0,1,.033-.3,21.062,21.062,0,0,1,.528-3.448c.3-.709-.656-4.97-.656-4.97a111.881,111.881,0,0,1,1.146-13.374c.043-.228.086-.452.128-.666a16.171,16.171,0,0,0,2.04-1.065s0-10.339,1.213-12.166.956-7,.956-7,.3-4.561,1.208-5.474.694-4.97.694-4.97.8-2.635,1.712-4.756,1.427-8.109,1.427-8.109a10.285,10.285,0,0,1,1.427-2.944c1.013-1.427,0-4.561,0-4.561a5.554,5.554,0,0,1-.4-4.057c.709-2.031,4.637-18.453,4.637-18.453l1.517-5.878,2.216,7.5a51.5,51.5,0,0,0,0,6.9c.3,1.522,2.421,4.756,2.421,4.756v15.918s.2,10.748,1.013,12.47,1.208,8.114,1.208,8.114,2.725,18.757,1.008,21.492a16.409,16.409,0,0,0,2.787,1.527v11.048s-1.978,6.687-1.3,11.238a1.782,1.782,0,0,0,.043.271c-.181.133-.38.247-.5.2l.319,7.609a23.555,23.555,0,0,1-.723,6.444,9.17,9.17,0,0,0-.476,2.416c-.176,3.01.984,7.134,7.609,6.706,8.822-.561,7.462-6.183,7.462-6.183s0-.219-.033-.6a22.918,22.918,0,0,0-2.188-8.266,20.809,20.809,0,0,1-1.812-9.331,3.265,3.265,0,0,1-.537.143,1.372,1.372,0,0,1,.024-.309c.114-1.427.29-3.277.476-4.142a27.154,27.154,0,0,0,0-5.065l1.137-11.1.062-.618a9.106,9.106,0,0,0,1.565-.951h0a11.38,11.38,0,0,1-.585-3.091,2.73,2.73,0,0,1,.585-1.955c1.313-1.317,2.216-17.844,2.216-17.844s.713-5.816.718-7.781v-.352c-.081-1.184-.709-5.821-.7-8.527a5.362,5.362,0,0,1,.2-1.693c.6-1.522,1.427-30.114,1.427-30.114l1.008-12.67V377.558a61.382,61.382,0,0,0-1.806-14.79c2.752,1.441,7.465,4.684,8.326,3.819,1.061-1.065,1.588-19.318,1.284-21.14a1.918,1.918,0,0,0-.071-.371c-.071-.333-.176-.78-.3-1.3l.418-.728c2.069-3.581,5.231-9.269,5.484-10.939.285-1.9.661-6.844,1.375-9.008a4.177,4.177,0,0,1,.2-.509h0c.186-.376.385-.58.614-.523,1.289.3,2.121,1.294,2.8.913a.332.332,0,0,0,.09-.076h0a1.137,1.137,0,0,0,.171-.243h0a2.374,2.374,0,0,0,.157-.347h0c.048-.124.09-.262.133-.409v-.043a.89.89,0,0,1,.048-.185.308.308,0,0,0,0-.062.664.664,0,0,1,.038-.162l.029-.119v-.062c.119-.537.209-1.094.266-1.484a1.975,1.975,0,0,1,.047-.352v-.19Z" transform="translate(-325.096 -118.24)" fill="url(#linear-gradient)"/>
    <path id="Path_174" data-name="Path 174" d="M559.365,489.841a1.616,1.616,0,0,0-.1-.851C559.293,489.675,559.331,489.989,559.365,489.841Z" transform="translate(-360.975 -268.518)" fill="url(#linear-gradient-2)"/>
    <path id="Path_175" data-name="Path 175" d="M676.083,422.126s1.8-1.227.043-1.95a5.513,5.513,0,0,1-2.854-3.681c-.067-.732-1.427-8.874,3.263-7.134s6.882,3.634,6.834,5.117-.808,10.891-.808,10.891Z" transform="translate(-420.642 -226.632)" fill="#fbbebe"/>
    <path id="Path_176" data-name="Path 176" d="M682.947,440.238a2.783,2.783,0,0,1-.071.542c-.138.951-.476,2.911-.989,3.191-.68.38-1.512-.6-2.8-.908-.228-.052-.428.147-.614.523a4.434,4.434,0,0,0-.2.5c-.713,2.159-1.089,7.077-1.375,8.97-.257,1.669-3.415,7.334-5.484,10.9-.309.537-.6,1.027-.847,1.427-.571.951-.951,1.574-.951,1.574l-5.231-9.807V442.687a12.843,12.843,0,0,0,.951-2h0a3.534,3.534,0,0,0,.262-1.617.828.828,0,0,0-.224-.476.571.571,0,0,1-.1-.147.751.751,0,0,1-.047-.124,1.573,1.573,0,0,1-.067-.371v-.314a29.4,29.4,0,0,1,1.427-6.306,17.693,17.693,0,0,0,5.6,1.36C676.037,433.142,682.947,440.238,682.947,440.238Z" transform="translate(-416.101 -238.28)" fill="#6c63ff"/>
    <path id="Path_177" data-name="Path 177" d="M683.73,441.467c-.138.951-.476,2.911-.989,3.191-.68.38-1.512-.6-2.8-.908-.228-.052-.428.147-.613.523a4.425,4.425,0,0,0-.2.5c-2.6-1.265-7.134-3.557-7.424-4.2s-3.448-.794-5.232-.823h-.323a2.411,2.411,0,0,1-.114-1.1,33,33,0,0,1,1.427-6.011,17.692,17.692,0,0,0,5.6,1.36C676.691,434.419,683.007,440.734,683.73,441.467Z" transform="translate(-416.955 -238.967)" opacity="0.1"/>
    <path id="Path_178" data-name="Path 178" d="M683.833,440.227s-.38,3.353-1.061,3.729-1.512-.6-2.8-.9c-.228-.057-.428.143-.614.518-2.563-1.246-7.348-3.643-7.609-4.3s-3.862-.813-5.555-.832c-.623-1.3,1.313-7.134,1.313-7.134a17.755,17.755,0,0,0,5.6,1.365C676.961,433.122,683.833,440.227,683.833,440.227Z" transform="translate(-416.988 -238.265)" fill="#6c63ff"/>
    <path id="Path_179" data-name="Path 179" d="M652,475.269c-1.061,1.061-7.947-4.085-9.835-4.39s-8.751-29.049-8.751-29.049l1.032-16.2-4.023-14.9-.523-1.95s.4-1.189,2.016,0,5.545,6.259,6.606,6.634a9.473,9.473,0,0,1,3.933,2.958,8.015,8.015,0,0,0,2.345,2.116s1.817,4.618,1.741,5.75.609,8.855,1.427,9.536,2.192,6.887,2.192,6.887,2.5,8.717,3.03,11.2a3.542,3.542,0,0,1,.071.371C653.589,456.051,653.061,474.209,652,475.269Z" transform="translate(-398.02 -226.176)" fill="#6c63ff"/>
    <path id="Path_180" data-name="Path 180" d="M648.293,473.33l4.994,1.336s.951,8.627,1.3,9.084,1.569,18.158,1.569,18.158l-7.866-3.557-2.953-9.512V478.314Z" transform="translate(-406.116 -260.306)" opacity="0.1"/>
    <path id="Path_181" data-name="Path 181" d="M561.03,765.8a16.854,16.854,0,0,0-.718,2.854,107.8,107.8,0,0,0-1.146,13.316s.951,4.237.656,4.946a20.754,20.754,0,0,0-.528,3.429c-.081.742-.128,1.308-.128,1.308l-9.236-.6s0-.547.029-1.384a28.176,28.176,0,0,1,.88-6.886c.623-1.741-.057-9.341-.537-13.745-.2-1.9-.371-3.205-.371-3.205S562.585,761.75,561.03,765.8Z" transform="translate(-356.082 -412.741)" fill="#fbbebe"/>
    <path id="Path_182" data-name="Path 182" d="M636.964,768.28l-1.137,11.048a26.9,26.9,0,0,1,0,5.041c-.171.861-.347,2.7-.476,4.123-.086,1.08-.143,1.931-.143,1.931s-7.062,4.946-8.675.6a7.683,7.683,0,0,1-.4-1.626c-.675-4.532,1.3-11.186,1.3-11.186V764l9.788,1.6Z" transform="translate(-395.971 -412.737)" fill="#fbbebe"/>
    <path id="Path_183" data-name="Path 183" d="M561.056,765.8a16.86,16.86,0,0,0-.718,2.854,14.091,14.091,0,0,1-9.987.376c-.2-1.9-.371-3.205-.371-3.205S562.612,761.749,561.056,765.8Z" transform="translate(-356.108 -412.74)" opacity="0.1"/>
    <path id="Path_184" data-name="Path 184" d="M638.848,765.583l-.276,2.678c-3.424,1.569-7.082.609-9.512-.476v-3.8Z" transform="translate(-397.579 -412.726)" opacity="0.1"/>
    <path id="Path_185" data-name="Path 185" d="M556.109,506.21s-.8,5.954-1.712,7.167-.5,2.925-1.427,3.125-1.213,4.642-1.213,4.642l-.771,9.788s-.2,2.016-1.313,2.521,0,3.229,0,3.229-1.189,2.321-.476,3.633-1.427,7.362-1.427,7.362-.908,11.7,0,13.316a13.234,13.234,0,0,1,1.427,5.146c0,1.008.5,19.875.5,19.875s-1.213,7.671-1.617,9.084,1.113,4.537.1,6.154-.809,5.232-.809,5.232-1.56,14.244-.651,19.475-.29,6.354-.29,6.354a14.12,14.12,0,0,0,14.211-.6s0-10.292,1.213-12.108,1.013-6.958,1.013-6.958.3-4.542,1.208-5.45.694-4.932.694-4.932.8-2.625,1.712-4.756,1.427-8.085,1.427-8.085a10.181,10.181,0,0,1,1.427-2.93c1.013-1.427,0-4.537,0-4.537a5.511,5.511,0,0,1-.4-4.038c.709-2.017,4.637-18.362,4.637-18.362l1.517-5.85,2.216,7.467a50.961,50.961,0,0,0,0,6.858c.3,1.512,2.421,4.756,2.421,4.756v15.842s.2,10.7,1.013,12.408,1.208,8.085,1.208,8.085,2.725,18.667,1.008,21.4c0,0,7.771,5.545,13.925,1.008,0,0-1.313-3.733,0-5.046s2.216-17.758,2.216-17.758.808-6.558.709-8.085-1.108-8.675-.5-10.187,1.427-29.962,1.427-29.962l1.008-12.608v-10.32a60.624,60.624,0,0,0-2.283-16.522c-1.707-6.016-4.071-12.917-6.059-13.35C593.371,507.689,562.063,511.156,556.109,506.21Z" transform="translate(-354.252 -277.548)" fill="#3f3d56"/>
    <path id="Path_186" data-name="Path 186" d="M559.294,816.873c-.081.742-.128,1.308-.128,1.308l-9.236-.6s0-.547.029-1.384c4.333-3.843,8.651.68,8.651.68Z" transform="translate(-356.082 -439.296)" opacity="0.1"/>
    <path id="Path_187" data-name="Path 187" d="M550.907,817.535v5.6a44.954,44.954,0,0,1-2.573,4.589,10.039,10.039,0,0,0-.69,3.6c-.09,1.141-.119,2.1-.119,2.1s1.213,4.846-8.27,4.642-5.65-7.215-5.65-7.215l.052-.09c.476-.885,4.314-7.752,4.756-8.133s.809-2.906.809-2.906l1.764-2.854c4.342-3.881,8.679.656,8.679.656Z" transform="translate(-347.12 -439.639)" fill="#3f3d56"/>
    <path id="Path_188" data-name="Path 188" d="M547.526,850.454s1.213,4.846-8.271,4.642-5.65-7.2-5.65-7.2l.052-.09c.262,1.427,1.379,2.906,4.941,2.716a21.868,21.868,0,0,0,9.036-2.154C547.554,849.494,547.526,850.454,547.526,850.454Z" transform="translate(-347.12 -456.688)" opacity="0.1"/>
    <path id="Path_189" data-name="Path 189" d="M635.537,814.493c-.086,1.08-.143,1.931-.143,1.931s-7.062,4.946-8.675.6a7.684,7.684,0,0,1-.4-1.627,3.851,3.851,0,0,0,.4-.342c1.156-1.712,7.31-1.764,7.609-.951C634.514,814.574,635.1,814.574,635.537,814.493Z" transform="translate(-396.142 -438.747)" opacity="0.1"/>
    <path id="Path_190" data-name="Path 190" d="M631.157,839.276c-6.658.419-7.8-3.676-7.609-6.658a9.038,9.038,0,0,1,.476-2.4,23.352,23.352,0,0,0,.723-6.416l-.319-7.567c.252.1.861-.5.861-.5,1.156-1.712,7.31-1.764,7.609-.951s1.717.262,1.717.262a20.589,20.589,0,0,0,1.812,9.279,22.767,22.767,0,0,1,2.188,8.228c.029.38.033.6.033.6S639.98,838.719,631.157,839.276Z" transform="translate(-394.678 -439.098)" fill="#3f3d56"/>
    <path id="Path_191" data-name="Path 191" d="M631.157,859.414c-6.658.418-7.8-3.676-7.609-6.658,0,0,1.726,2.934,7.876,2.231a17.26,17.26,0,0,0,7.181-2.316c.029.38.033.6.033.6S639.98,858.857,631.157,859.414Z" transform="translate(-394.678 -459.236)" opacity="0.1"/>
    <g id="Group_20" data-name="Group 20" transform="translate(236.356 230.16)" opacity="0.1">
      <path id="Path_192" data-name="Path 192" d="M646.3,516.765c-1.365-3.9-2.854-7.134-4.2-7.4l-1.2.124c1.256.675,2.635,3.681,3.9,7.281a75.446,75.446,0,0,1,4.138,24.845v7.942l-1.008,12.613s-.808,28.45-1.427,29.962.4,8.675.5,10.192-.709,8.085-.709,8.085-.908,16.446-2.216,17.754,0,5.046,0,5.046a9.036,9.036,0,0,1-4.756,1.755,9.255,9.255,0,0,0,6.283-1.755s-1.313-3.733,0-5.046,2.216-17.754,2.216-17.754.809-6.558.709-8.085-1.108-8.68-.5-10.192,1.427-29.962,1.427-29.962l1.008-12.613V541.61A75.448,75.448,0,0,0,646.3,516.765Z" transform="translate(-639.31 -509.36)"/>
    </g>
    <g id="Group_21" data-name="Group 21" transform="translate(192.221 228.662)" opacity="0.1">
      <path id="Path_193" data-name="Path 193" d="M548.327,632.326s1.2-1.113.29-6.359.6-19.471.6-19.471-.2-3.634.809-5.232-.5-4.756-.1-6.154,1.617-9.084,1.617-9.084-.518-18.876-.518-19.889A13.2,13.2,0,0,0,549.6,561c-.908-1.617,0-13.316,0-13.316s2.116-6.054,1.427-7.362.476-3.633.476-3.633-1.108-2.725,0-3.229,1.313-2.521,1.313-2.521l.8-9.788s.3-4.437,1.213-4.642.5-1.9,1.427-3.125c.68-.908,1.308-4.49,1.574-6.221a6.288,6.288,0,0,1-1.674-.951s-.808,5.95-1.717,7.162-.5,2.925-1.427,3.125-1.208,4.642-1.208,4.642l-.78,9.792s-.2,2.016-1.313,2.521,0,3.229,0,3.229-1.189,2.321-.476,3.633-1.427,7.362-1.427,7.362-.908,11.7,0,13.316a13.2,13.2,0,0,1,1.427,5.141c0,1.013.5,19.875.5,19.875s-1.213,7.671-1.612,9.084,1.108,4.537.1,6.154-.809,5.232-.809,5.232-1.527,14.249-.618,19.48-.29,6.359-.29,6.359A13.9,13.9,0,0,0,554,633.91a13.549,13.549,0,0,1-5.669-1.584Z" transform="translate(-546.51 -506.21)"/>
    </g>
    <path id="Path_194" data-name="Path 194" d="M598.833,305.959a37.5,37.5,0,0,1,3.144,4.057c1.08,1.332,2.606,2.506,4.318,2.416a11.584,11.584,0,0,1,1.512-.128,3.257,3.257,0,0,1,1.631.713c2.064,1.541,3.058,4.138,3.519,6.658s.476,5.146,1.16,7.638a3.8,3.8,0,0,0,1.284,2.23c.927.637,2.159.442,3.286.423a5.806,5.806,0,0,1,4.147,1.37,3.294,3.294,0,0,1,.647,4.071,2.478,2.478,0,0,0-.533.923,1.7,1.7,0,0,0,.476,1.222l3.11,4.233a4.515,4.515,0,0,1,1.2,2.854,2.235,2.235,0,0,1-3.938,1.279c.338,1.051-.7,2.14-1.793,2.283a5.758,5.758,0,0,1-3.153-.828l-.081,1.793c-.913.476-1.879-.476-2.606-1.217s-2.226-1.17-2.573-.2a1.256,1.256,0,0,0,.295,1.179c1.27,1.584,4.247,1.179,5.122,3.015a2.473,2.473,0,0,1-1.517,3.163,4.155,4.155,0,0,1-3.719-.761c-1.061-.761-2.1-2.088-3.481-2.078-1.726,0-2.758,2-4.371,2.62a4.461,4.461,0,0,1-4.437-1.289c-1.184-1.113-2.007-2.554-3.1-3.762-2.815-3.106-7.081-4.337-11.057-5.664s-8.185-3.134-10.239-6.787a27.764,27.764,0,0,0-1.807-3.41c-1.341-1.75-3.6-2.568-5.065-4.209a6.5,6.5,0,0,1-.994-6.948,23.279,23.279,0,0,1,2.9-3.909,13.146,13.146,0,0,0,2.582-7.714,9.775,9.775,0,0,1,.224-3.12,4.857,4.857,0,0,1,3.524-2.9,14.485,14.485,0,0,1,4.756-.109,43.616,43.616,0,0,0,5.2.476c1.151-.052,2.036-.951,3.148-1.256A7.691,7.691,0,0,1,598.833,305.959Z" transform="translate(-365.892 -171.506)" fill="#3f3d56"/>
    <g id="Group_22" data-name="Group 22" transform="translate(202.951 143.798)" opacity="0.1">
      <path id="Path_195" data-name="Path 195" d="M659.1,330.947c.476,2.535.476,5.146,1.165,7.633a4.811,4.811,0,0,0,.756,1.717c-.057-.166-.109-.338-.152-.5-.661-2.492-.7-5.1-1.16-7.638a13.589,13.589,0,0,0-1.527-4.385,15.089,15.089,0,0,1,.918,3.177Z" transform="translate(-615.8 -327.77)"/>
      <path id="Path_196" data-name="Path 196" d="M681.657,364.835a2.444,2.444,0,0,0-.537.951A1.693,1.693,0,0,0,681.6,367c.043.057.081.114.124.166a.744.744,0,0,1,0-.176,2.493,2.493,0,0,1,.537-.923,3.226,3.226,0,0,0-.29-3.672A2.934,2.934,0,0,1,681.657,364.835Z" transform="translate(-627.83 -345.93)"/>
      <path id="Path_197" data-name="Path 197" d="M626.79,386.853a2.6,2.6,0,0,1-1.684,2.568,4.154,4.154,0,0,1-3.719-.766c-1.061-.766-2.1-2.083-3.477-2.074-1.731,0-2.758,2-4.375,2.616a4.451,4.451,0,0,1-4.437-1.289c-1.184-1.113-2.007-2.554-3.1-3.757-2.815-3.106-7.081-4.342-11.062-5.669s-8.161-3.125-10.22-6.763c.185.4.376.8.59,1.189,2.055,3.653,6.259,5.46,10.235,6.787s8.247,2.559,11.062,5.664c1.094,1.208,1.9,2.649,3.1,3.762a4.466,4.466,0,0,0,4.437,1.289c1.617-.623,2.644-2.606,4.375-2.62,1.379,0,2.378,1.256,3.481,2.078a3.994,3.994,0,0,0,3.714.761,2.476,2.476,0,0,0,1.522-3.163,2.226,2.226,0,0,0-.442-.614Z" transform="translate(-577.277 -350.818)"/>
      <path id="Path_198" data-name="Path 198" d="M675.41,384.87a2.6,2.6,0,0,1,.133.975,2.24,2.24,0,0,1-3.943,1.284c.338,1.046-.7,2.135-1.793,2.283a5.718,5.718,0,0,1-3.153-.828c-.029.595-.052,1.194-.081,1.788-.913.476-1.9-.476-2.6-1.213s-2.226-1.175-2.578-.2a1.26,1.26,0,0,0,.295,1.175,2.433,2.433,0,0,0,.262.281.872.872,0,0,1,.047-.247c.352-.951,1.85-.533,2.578.2s1.688,1.7,2.606,1.217c0-.6.052-1.194.076-1.793a5.985,5.985,0,0,0,3.158.828c1.094-.124,2.131-1.232,1.788-2.283a2.24,2.24,0,0,0,3.943-1.279,3.581,3.581,0,0,0-.737-2.188Z" transform="translate(-617.465 -357.714)"/>
      <path id="Path_199" data-name="Path 199" d="M574.687,359.051c-1.336-1.75-3.6-2.563-5.06-4.209a5.5,5.5,0,0,1-.556-.732,6.044,6.044,0,0,0,1.16,1.945c1.465,1.641,3.724,2.459,5.06,4.209a6.46,6.46,0,0,1,.509.78,10.739,10.739,0,0,0-1.113-1.993Z" transform="translate(-569.07 -341.583)"/>
    </g>
    <path id="Path_200" data-name="Path 200" d="M594.354,362.39s1.108,12.308-3.938,16.037,10.8,13.925,10.8,13.925l12.009-2.625s-5.854-5.445-5.854-7.766,1.008-15.338,2.625-16.85S594.354,362.39,594.354,362.39Z" transform="translate(-376.793 -202.127)" fill="#fbbebe"/>
    <path id="Path_201" data-name="Path 201" d="M559.815,308.968l-2.744,6s-4.09,2.426-4.39,2.649-3.557,3.938-3.557,3.938L541.1,326.7s-.2-.366-.476-.885a23.961,23.961,0,0,0-1.864-2.977c-.68-.756,0-8.775,0-8.775a6.292,6.292,0,0,0,1.023-5.07c-.566-3.253-.642-16.042-.642-16.042s-.6-10.748.228-13.017-1.9-9.459-1.9-9.459-7.714-7.666-7.186-9.25,6.435,0,6.435,0a13.312,13.312,0,0,0,3.553,1.289c.732.043,4.647.062,7.647.067h3.553s2.5,8.7,2.2,9.607c-.062.176-.124.352-.181.523-.243.7-.428,1.322-.124,1.745.376.533,1.213,6.963,1.213,6.963l.832,6.963a60.12,60.12,0,0,1,1.208,6.206c-.076.761-1.969,2.345-1.137,3.781s1.141,5.826,1.141,5.826,1.389,3.22,2.763,4.447a2.33,2.33,0,0,0,.433.328Z" transform="translate(-345.765 -148.705)" fill="#6c63ff"/>
    <circle id="Ellipse_24" data-name="Ellipse 24" cx="14.529" cy="14.529" r="14.529" transform="translate(212.286 139.389)" opacity="0.1"/>
    <circle id="Ellipse_25" data-name="Ellipse 25" cx="14.529" cy="14.529" r="14.529" transform="translate(212.286 138.785)" fill="#fbbebe"/>
    <path id="Path_202" data-name="Path 202" d="M602.26,426.385c-1.313,1.427-1.612,15.219-.837,16.446s-3.9,3.633-6.63,3.529-10.182,2.221-10.182,2.221-14.938-4.038-18.072-2.016-7.567-3.633-6.254-5.65-1.427-4.841-1.817-5.95a8.867,8.867,0,0,1-.162-1.427h0c-.366-5.079-.747-21.354-.747-21.354V393.5l13.725-9.688a65.851,65.851,0,0,1,6.368,3.686,31.2,31.2,0,0,1,4.119,3.172c3.738,3.534,13.017,7.267,13.017,7.267s10.192,12.208,11.5,13.421S603.568,424.972,602.26,426.385Z" transform="translate(-360.083 -213.36)" fill="#fff"/>
    <path id="Path_203" data-name="Path 203" d="M557.57,425.705V409.64s.419,29.263.747,37.419C557.95,441.98,557.57,425.705,557.57,425.705Z" transform="translate(-360.089 -226.906)" opacity="0.1"/>
    <path id="Path_204" data-name="Path 204" d="M559.26,490.86a1.6,1.6,0,0,1,.1.847C559.331,491.849,559.293,491.535,559.26,490.86Z" transform="translate(-360.975 -269.499)" opacity="0.1"/>
    <path id="Path_205" data-name="Path 205" d="M577.749,392.689a12.318,12.318,0,0,0-2.193,3.1c-.756,1.665-17.987.3-17.987.3v-2.6L571.3,383.81a65.843,65.843,0,0,1,6.368,3.686C577.749,390.34,577.749,392.689,577.749,392.689Z" transform="translate(-360.089 -213.36)" opacity="0.1"/>
    <path id="Path_206" data-name="Path 206" d="M559.26,488.31a1.6,1.6,0,0,1,.1.847C559.331,489.3,559.293,488.99,559.26,488.31Z" transform="translate(-360.975 -268.161)" opacity="0.1"/>
    <path id="Path_207" data-name="Path 207" d="M571.25,362.033l-2.744,6s-4.09,2.426-4.39,2.649-3.557,3.938-3.557,3.938l-8.023,5.146s-.195-.366-.476-.885c2.183-2.649,4.413-5.469,5.707-6.458,2.573-1.964-.076-2.192,0-2.573s5.679-2.421,7.191-3.857a63.52,63.52,0,0,1,5.869-4.28A2.325,2.325,0,0,0,571.25,362.033Z" transform="translate(-357.199 -201.771)" opacity="0.1"/>
    <path id="Path_208" data-name="Path 208" d="M539.159,362.39a68.506,68.506,0,0,0-6.3,4.537c-1.512,1.436-7.134,3.481-7.191,3.862s2.573.6,0,2.573-8.851,11.2-11.124,11.89-17.777,7.134-17.777,7.134-5.07,4.756-5.826,4.756,4.613,5.146,4.613,5.146,4.841,3.862,5.374,4.466,13.783,7.766,13.783,7.766,2.273.68,2.5,1.36,3.253,2.573,3.253,2.573,3.381,3.886,3.053,5.27-.908-39.474-.908-39.474,17.231,1.36,17.987-.3a12.319,12.319,0,0,1,2.193-3.1s-.048-14-1.013-15.033S539.178,363.674,539.159,362.39Z" transform="translate(-325.109 -202.127)" fill="#6c63ff"/>
    <path id="Path_209" data-name="Path 209" d="M508.2,419.718s4.537,4.918,6.658,5.75a5.731,5.731,0,0,1,2.949,3.029,17.32,17.32,0,0,0,3.862,1.665c1.365.238,3.405,2.269,3.405,2.269s5.07,1.427,5.07,2.5,2.045,2.5,2.045,2.5l-.509-29.058s-8.423,1.056-10.843,4.613S508.2,419.718,508.2,419.718Z" transform="translate(-334.198 -226.24)" opacity="0.1"/>
    <path id="Path_210" data-name="Path 210" d="M529,422.645c.38-.228,10.71-13.535,10.71-13.535l1.9-.39s-4.9,7.343-4.827,7.947S529,422.645,529,422.645Z" transform="translate(-345.106 -226.423)" opacity="0.1"/>
    <path id="Path_211" data-name="Path 211" d="M538.11,430.084s2.725-6.283,3.481-7.343,4.827-8.171,4.827-8.171a4.785,4.785,0,0,1,0,1.817C546.2,417.067,538.11,430.084,538.11,430.084Z" transform="translate(-349.884 -229.491)" opacity="0.1"/>
    <path id="Path_212" data-name="Path 212" d="M570.325,348.7s-6.054,11.048-5.522,11.581S570.325,348.7,570.325,348.7Z" transform="translate(-363.865 -194.948)" opacity="0.1"/>
    <path id="Path_213" data-name="Path 213" d="M575.87,357.93s-4.994,7.3-4.542,7.205S575.87,357.93,575.87,357.93Z" transform="translate(-367.288 -199.788)" opacity="0.1"/>
    <path id="Path_214" data-name="Path 214" d="M549.819,236.5l-9.536.68s0-.309-.033-.842c-.133-3.148-.613-14.125-.87-15.352-.3-1.427-.609-4.009-.609-4.009s-5.146-.756-5.07-1.588-6.582-9.688-1.512-9.512c3.957.119,10.72,4.794,13.5,6.844a2.54,2.54,0,0,1,1.013,2.349,10.2,10.2,0,0,0-.086,1.807,25.347,25.347,0,0,1-.1,3.752,5.756,5.756,0,0,0,.428,3.182c.7,1.26,1.745,6.487,2.378,9.83C549.619,235.292,549.819,236.5,549.819,236.5Z" transform="translate(-345.779 -120.049)" fill="#fbbebe"/>
    <path id="Path_215" data-name="Path 215" d="M562.164,275.1l-.181.518c-2.069-2.05-15.029-3.358-15.029-3.358-1.137-1.322-.119-1.9,1.094-3.519.709-.951,4.956-2.3,8.366-3.258h3.553S562.464,274.188,562.164,275.1Z" transform="translate(-354.263 -151.306)" opacity="0.1"/>
    <path id="Path_216" data-name="Path 216" d="M560.809,267.092l-9.536.68s0-.309-.033-.842a41.506,41.506,0,0,1,7.681-2.72H560.3C560.609,265.884,560.809,267.092,560.809,267.092Z" transform="translate(-356.769 -150.64)" opacity="0.1"/>
    <path id="Path_217" data-name="Path 217" d="M562.164,274.456c-.062.176-.124.352-.181.523-2.069-2.055-15.029-3.362-15.029-3.362-1.137-1.322-.119-1.9,1.094-3.515.709-.951,4.956-2.307,8.366-3.263h3.553S562.464,273.548,562.164,274.456Z" transform="translate(-354.263 -150.971)" fill="#6c63ff"/>
    <path id="Path_218" data-name="Path 218" d="M596.3,442.57s-1.061,20.355,0,21.34S596.3,442.57,596.3,442.57Z" transform="translate(-380.152 -244.175)" opacity="0.1"/>
    <path id="Path_219" data-name="Path 219" d="M612.384,460.55s-.38,22.4,0,22.624S612.384,460.55,612.384,460.55Z" transform="translate(-388.745 -253.604)" opacity="0.1"/>
    <path id="Path_220" data-name="Path 220" d="M631,466.12s1.427,15.438,2.725,16.042S631,466.12,631,466.12Z" transform="translate(-398.596 -256.525)" opacity="0.1"/>
    <path id="Path_221" data-name="Path 221" d="M652.584,454.485a3.153,3.153,0,0,1-1.213-.476c-1.284-.832-2.725-9.764-4.613-10.972s-8.7-13.093-8.7-13.093a62.46,62.46,0,0,0-3.71-5.978c-1.061-1.222-.528-6.658-.528-6.658a29.649,29.649,0,0,1-4.014-5.978,5.422,5.422,0,0,1-.523-1.945s.4-1.194,2.016,0,5.545,6.259,6.606,6.634a9.487,9.487,0,0,1,3.938,2.953,8.191,8.191,0,0,0,2.345,2.121s1.817,4.613,1.741,5.75.6,8.851,1.427,9.536,2.192,6.882,2.192,6.882S652.056,452,652.584,454.485Z" transform="translate(-397.694 -226.494)" opacity="0.1"/>
    <path id="Path_222" data-name="Path 222" d="M666.05,444.914V444.6a2.964,2.964,0,0,1,.081.685A1.569,1.569,0,0,1,666.05,444.914Z" transform="translate(-416.977 -245.239)" opacity="0.1"/>
    <path id="Path_223" data-name="Path 223" d="M671.441,474.239c-.309.537-.6,1.027-.847,1.427-1.251-1.289-2.659-9.7-4.49-10.867a8.561,8.561,0,0,1-1.665-1.869v-9.987a12.842,12.842,0,0,0,.951-2c.224,2.7.737,6.706,1.327,7.191.832.68,2.192,6.887,2.192,6.887S670.537,470.743,671.441,474.239Z" transform="translate(-416.133 -248.564)" opacity="0.1"/>
    <path id="Path_224" data-name="Path 224" d="M653.224,453.847a2.982,2.982,0,0,1-1.213-.476c-1.289-.832-2.725-9.759-4.618-10.972s-8.7-13.088-8.7-13.088a62.464,62.464,0,0,0-3.71-5.978c-1.061-1.222-.528-6.658-.528-6.658a29.807,29.807,0,0,1-4.014-5.978,5.47,5.47,0,0,1-.523-1.95s.4-1.189,2.016,0,5.545,6.259,6.606,6.634a9.472,9.472,0,0,1,3.933,2.958,8.015,8.015,0,0,0,2.345,2.116s1.817,4.618,1.741,5.75.609,8.855,1.427,9.536,2.192,6.887,2.192,6.887S652.7,451.36,653.224,453.847Z" transform="translate(-398.03 -226.16)" fill="#6c63ff"/>
    <circle id="Ellipse_26" data-name="Ellipse 26" cx="1.023" cy="1.023" r="1.023" transform="translate(238.734 197.378)" fill="#3f3d56"/>
    <circle id="Ellipse_27" data-name="Ellipse 27" cx="1.023" cy="1.023" r="1.023" transform="translate(245.449 206.571)" fill="#3f3d56"/>
    <path id="Path_225" data-name="Path 225" d="M672.319,454.671s-4.922-2.25-4.166-1.037S672.319,454.671,672.319,454.671Z" transform="translate(-418.038 -249.789)" opacity="0.1"/>
    <path id="Path_226" data-name="Path 226" d="M672.495,462.2s-5-1.36-3.938-.566S672.495,462.2,672.495,462.2Z" transform="translate(-418.214 -254.042)" opacity="0.1"/>
    <path id="Path_227" data-name="Path 227" d="M672.278,468.723s-3.405-2.464-2.573-1.555A8.008,8.008,0,0,0,672.278,468.723Z" transform="translate(-418.825 -256.969)" opacity="0.1"/>
    <path id="Path_228" data-name="Path 228" d="M680.236,476.14s-3.472,6.829-1.812,7.276S680.236,476.14,680.236,476.14Z" transform="translate(-423.231 -261.779)" opacity="0.1"/>
    <path id="Path_229" data-name="Path 229" d="M572.093,711.77s-7.971,7.567-5.65,7.467S572.093,711.77,572.093,711.77Z" transform="translate(-364.52 -385.346)" opacity="0.1"/>
    <path id="Path_230" data-name="Path 230" d="M555.24,732.431c.4,0,8.475-.809,6.354-1.213S555.24,732.431,555.24,732.431Z" transform="translate(-358.867 -395.511)" opacity="0.1"/>
    <path id="Path_231" data-name="Path 231" d="M637.76,709.23s8.561.3,8.375,1.208S637.76,709.23,637.76,709.23Z" transform="translate(-402.141 -384.014)" opacity="0.1"/>
    <path id="Path_232" data-name="Path 232" d="M634.79,716.44s4.941,3.733,6.054,2.521S634.79,716.44,634.79,716.44Z" transform="translate(-400.584 -387.795)" opacity="0.1"/>
    <path id="Path_233" data-name="Path 233" d="M574.746,599.087a2.511,2.511,0,0,1-.314.766.775.775,0,0,1-.219.228c-1.013.7-3.634,2.016-4.038,1.9-.185-.048-.908-.266-1.7-.476-.927-.271-1.955-.561-2.34-.613s-.609-.666-.666-1.265,0-1.065.252-1.156a.6.6,0,0,0,.214-.314,3.76,3.76,0,0,0,.133-.423l.038-.143c.133-.552.243-1.251.319-1.826.043-.309.071-.585.1-.771v-.219h0v-.038l.666-.033h.633a39.206,39.206,0,0,1,5.769.057,1.623,1.623,0,0,1,1.051,1.208,5.565,5.565,0,0,1,.238,1.365A6.094,6.094,0,0,1,574.746,599.087Z" transform="translate(-364.22 -323.918)" fill="#fbbebe"/>
    <path id="Path_234" data-name="Path 234" d="M642.179,604.861a.682.682,0,0,0,0,.1c0,1.032-.071,1.812-.071,1.94,0,.4-10.491,3.229-13.112,3.025-1.722-.133-.442-1.313.518-2.53a3.989,3.989,0,0,0,.761-1.289.95.95,0,0,0,0-.518c-.052-.19-.1-.361-.133-.518h0c-.247-1.089-.124-1.427.133-1.693a2.014,2.014,0,0,0,.347-.651,2.6,2.6,0,0,0,.147-.675,2.045,2.045,0,0,0-.385-1.46c-.808-1.075,3.03-1.65,3.03-1.65H640.7c.713,0,1.094,1.008,1.284,2.311a.136.136,0,0,0,0,.043c.052.38.1.785.119,1.2s.043.78.048,1.16S642.179,604.476,642.179,604.861Z" transform="translate(-397.101 -326.177)" fill="#fbbebe"/>
    <path id="Path_235" data-name="Path 235" d="M582.587,671.731s-8.085,1.9-7.262,1.427c.309-.2.38-.851.352-1.593a10.6,10.6,0,0,0-.1-1.1c-.1-.842-.257-1.546-.257-1.546s4.237-.908,5.75-.5a1.8,1.8,0,0,1,1.137,1.217,1.724,1.724,0,0,1,.062.167A6.92,6.92,0,0,1,582.587,671.731Z" transform="translate(-369.369 -362.557)" fill="#fbbebe"/>
    <path id="Path_236" data-name="Path 236" d="M595.784,325.934a34.951,34.951,0,0,0,3.148-1.536,4.327,4.327,0,0,1,3.386-.333,5.4,5.4,0,0,1,1.484,1.042c.951.842,1.9,1.684,2.8,2.582a16.434,16.434,0,0,0,2.915,2.6c2.5,1.527,5.669,1.184,8.561.728a5.275,5.275,0,0,0,1.688-.476,3.507,3.507,0,0,0,1.46-3.781,8.472,8.472,0,0,0-2.173-3.7,30.438,30.438,0,0,0-9.926-7.343c-4-1.841-8.77-2.758-12.765-.908a13.845,13.845,0,0,0-3.329,2.273c-1.389,1.237-4.979,4.38-4.185,6.506C589.72,325.976,593.715,326.628,595.784,325.934Z" transform="translate(-376.43 -176.643)" opacity="0.1"/>
    <path id="Path_237" data-name="Path 237" d="M595.784,325.3a33.72,33.72,0,0,0,3.148-1.536,4.347,4.347,0,0,1,3.386-.333,5.619,5.619,0,0,1,1.484,1.042c.951.842,1.9,1.684,2.8,2.582a16.249,16.249,0,0,0,2.915,2.6c2.5,1.527,5.669,1.184,8.561.728a5.155,5.155,0,0,0,1.688-.476,3.5,3.5,0,0,0,1.46-3.781,8.472,8.472,0,0,0-2.173-3.7,30.367,30.367,0,0,0-9.926-7.338c-4-1.841-8.77-2.758-12.765-.913a13.98,13.98,0,0,0-3.329,2.273c-1.389,1.237-4.979,4.385-4.185,6.511C589.72,325.345,593.715,326,595.784,325.3Z" transform="translate(-376.43 -176.311)" fill="#3f3d56"/>
    <path id="Path_238" data-name="Path 238" d="M619.753,338.969a5.1,5.1,0,0,1-1.684.476c-2.892.476-6.059.794-8.561-.728a16.433,16.433,0,0,1-2.93-2.625c-.894-.9-1.85-1.741-2.8-2.582a5.527,5.527,0,0,0-1.484-1.046,4.338,4.338,0,0,0-3.391.338,33.662,33.662,0,0,1-3.144,1.536c-2.069.694-6.064.043-6.958-2.34a1.779,1.779,0,0,1-.09-.357,1.974,1.974,0,0,0,.09.951c.894,2.378,4.889,3.034,6.958,2.34a34.272,34.272,0,0,0,3.144-1.536,4.334,4.334,0,0,1,3.391-.333,5.4,5.4,0,0,1,1.484,1.042c.951.842,1.9,1.684,2.8,2.582a16.434,16.434,0,0,0,2.915,2.6c2.5,1.527,5.664,1.184,8.561.728a5.231,5.231,0,0,0,1.684-.476,3.38,3.38,0,0,0,1.536-3.263A3.2,3.2,0,0,1,619.753,338.969Z" transform="translate(-376.41 -186.002)" opacity="0.1"/>
    <path id="Path_239" data-name="Path 239" d="M567.278,595.463a19.643,19.643,0,0,1-.528,2.706,22.579,22.579,0,0,0,.476-2.739Z" transform="translate(-364.903 -324.336)" opacity="0.1"/>
    <path id="Path_240" data-name="Path 240" d="M574.216,600.1c-1.013.7-3.633,2.016-4.038,1.9s-3.329-1.008-4.042-1.108-.9-2.221-.414-2.421a.6.6,0,0,0,.214-.314,4.11,4.11,0,0,1-.171.423,2.105,2.105,0,0,0,.476,2.221l4.195,1.084,3.952-2.159c.951-1.308-.114-4.323-.656-4.813s-7.024,0-7.024,0l-.143-.138h0v-.038l.666-.033h.633a39.2,39.2,0,0,1,5.769.057C575.224,595.054,575.224,599.4,574.216,600.1Z" transform="translate(-364.222 -323.918)" opacity="0.1"/>
    <path id="Path_241" data-name="Path 241" d="M640.714,598.92h-7.291s-3.838.576-3.03,1.65a2.438,2.438,0,0,1-.109,2.787c-.29.3-.414.709,0,2.221s-3.919,4.138-1.3,4.337,13.112-2.625,13.112-3.025S642.664,598.92,640.714,598.92Zm.984,7.828c0,.38-9.888,3.039-12.365,2.854s1.612-2.659,1.222-4.085-.276-1.807,0-2.093a2.3,2.3,0,0,0,.1-2.63c-.761-1.013,2.854-1.555,2.854-1.555h6.872C642.231,599.234,641.7,606.368,641.7,606.748Z" transform="translate(-397.096 -326.167)" opacity="0.1"/>
    <path id="Path_242" data-name="Path 242" d="M581.077,668.386c-1.512-.4-5.75.5-5.75.5s.809,3.733,0,4.238,7.267-1.427,7.267-1.427S582.594,668.79,581.077,668.386Zm-5.626,4.661c.78-.476,0-4.095,0-4.095s4.095-.875,5.555-.476,1.46,3.215,1.46,3.215-7.8,1.841-7.015,1.355Z" transform="translate(-369.371 -362.541)" opacity="0.1"/>
    <path id="Path_243" data-name="Path 243" d="M644.388,607.561l-12.018,1.427h0l11.971-2.578C644.364,606.786,644.383,607.166,644.388,607.561Z" transform="translate(-399.315 -330.094)" opacity="0.1"/>
    <path id="Path_244" data-name="Path 244" d="M489.81,582.657l12.484-2.687.266,1.17Z" transform="translate(-256.864 -304.049)" fill="#3f3d56"/>
    <path id="Path_245" data-name="Path 245" d="M643.674,611.39a.7.7,0,0,0,0,.1L631,613.925a3.99,3.99,0,0,0,.761-1.289Z" transform="translate(-398.596 -332.706)" opacity="0.1"/>
    <path id="Path_246" data-name="Path 246" d="M485.81,586.478l15.219-1.6-14.815,2.849Z" transform="translate(-254.767 -306.624)" fill="#3f3d56"/>
    <path id="Path_247" data-name="Path 247" d="M644.747,603.78l-11.219.8a2.608,2.608,0,0,1-.147.675l11.371-1.427Z" transform="translate(-399.844 -328.715)" opacity="0.1"/>
    <path id="Path_248" data-name="Path 248" d="M489.6,578.328l12.75-.908-12.941,1.627Z" transform="translate(-256.654 -302.712)" fill="#3f3d56"/>
    <path id="Path_249" data-name="Path 249" d="M575.624,598.591l-8.794.285c.133-.552.243-1.251.319-1.826l8.237.176a5.566,5.566,0,0,1,.238,1.365Z" transform="translate(-364.945 -325.186)" opacity="0.1"/>
    <path id="Path_250" data-name="Path 250" d="M423.12,570.76l11.994.252-1.465,1.279-10.53.338Z" transform="translate(-221.891 -299.219)" fill="#3f3d56"/>
    <path id="Path_251" data-name="Path 251" d="M574.769,604a2.511,2.511,0,0,1-.314.766l-5.959,1.65c-.927-.271-1.955-.561-2.34-.613s-.609-.666-.666-1.265Z" transform="translate(-364.242 -328.831)" opacity="0.1"/>
    <path id="Path_252" data-name="Path 252" d="M419.81,578.233l13.973-.813-12.812,3.548Z" transform="translate(-220.155 -302.712)" fill="#3f3d56"/>
    <path id="Path_253" data-name="Path 253" d="M582.622,671.226l-6.6,1.764a10.577,10.577,0,0,0-.1-1.1c1.841-.247,4.908-.623,6.63-.832A1.734,1.734,0,0,1,582.622,671.226Z" transform="translate(-369.717 -363.998)" opacity="0.1"/>
    <path id="Path_254" data-name="Path 254" d="M572.74,671.3c.252-.1,9.436-1.208,9.436-1.208l-9.436,2.521Z" transform="translate(-368.044 -363.489)" fill="#3f3d56"/>
    <circle id="Ellipse_28" data-name="Ellipse 28" cx="10.287" cy="10.287" r="10.287" transform="translate(343.572 35.136)" fill="#6c63ff"/>
    <circle id="Ellipse_29" data-name="Ellipse 29" cx="8.09" cy="8.09" r="8.09" transform="translate(391.431 62.534)" fill="#6c63ff"/>
    <circle id="Ellipse_30" data-name="Ellipse 30" cx="10.287" cy="10.287" r="10.287" transform="translate(343.572 35.136)" opacity="0.4"/>
    <circle id="Ellipse_31" data-name="Ellipse 31" cx="8.09" cy="8.09" r="8.09" transform="translate(391.431 62.534)" opacity="0.4"/>
    <circle id="Ellipse_32" data-name="Ellipse 32" cx="25.962" cy="25.962" r="25.962" transform="translate(36.623 44.662)" fill="#6c63ff"/>
    <circle id="Ellipse_33" data-name="Ellipse 33" cx="25.962" cy="25.962" r="25.962" transform="translate(36.623 44.662)" opacity="0.4"/>
    <circle id="Ellipse_34" data-name="Ellipse 34" cx="2.854" cy="2.854" r="2.854" transform="translate(394.279 31.645)" fill="#6c63ff"/>
    <circle id="Ellipse_35" data-name="Ellipse 35" cx="2.854" cy="2.854" r="2.854" transform="translate(394.279 31.645)" opacity="0.4"/>
    <path id="Path_255" data-name="Path 255" d="M452.03,788s2.958,3.867-1.365,9.707-7.885,10.767-6.444,14.41c0,0,6.52-10.843,11.828-11S457.856,794.525,452.03,788Z" transform="translate(-300.477 -425.322)" fill="#6c63ff"/>
    <path id="Path_256" data-name="Path 256" d="M452.216,788a4.756,4.756,0,0,1,.6,1.213c5.179,6.087,7.938,11.766,2.963,11.89-4.637.128-10.2,8.423-11.533,10.515a4.357,4.357,0,0,0,.157.476s6.52-10.843,11.828-11S458.042,794.525,452.216,788Z" transform="translate(-300.662 -425.322)" opacity="0.1"/>
    <path id="Path_257" data-name="Path 257" d="M471.78,797.417c0,1.36-.152,2.464-.342,2.464s-.338-1.1-.338-2.464.19-.723.376-.723S471.78,796.052,471.78,797.417Z" transform="translate(-314.743 -429.802)" fill="#ffd037"/>
    <path id="Path_258" data-name="Path 258" d="M473.929,800.762c-1.194.652-2.24,1.046-2.326.88s.8-.828,2-1.479.723-.176.813,0S475.118,800.111,473.929,800.762Z" transform="translate(-315.004 -431.526)" fill="#ffd037"/>
    <path id="Path_259" data-name="Path 259" d="M420.812,788s-2.958,3.867,1.365,9.707,7.885,10.767,6.444,14.41c0,0-6.52-10.843-11.828-11S414.972,794.525,420.812,788Z" transform="translate(-284.891 -425.322)" fill="#6c63ff"/>
    <path id="Path_260" data-name="Path 260" d="M420.812,788a4.757,4.757,0,0,0-.6,1.213c-5.179,6.087-7.938,11.766-2.963,11.89,4.637.128,10.2,8.423,11.533,10.515a4.357,4.357,0,0,1-.157.476s-6.52-10.843-11.828-11S414.972,794.525,420.812,788Z" transform="translate(-284.891 -425.322)" opacity="0.1"/>
    <path id="Path_261" data-name="Path 261" d="M416.57,797.417c0,1.36.152,2.464.342,2.464s.338-1.1.338-2.464-.19-.723-.376-.723S416.57,796.052,416.57,797.417Z" transform="translate(-286.147 -429.802)" fill="#ffd037"/>
    <path id="Path_262" data-name="Path 262" d="M411.8,800.762c1.194.652,2.235,1.046,2.326.88s-.8-.828-2-1.479-.723-.176-.813,0S410.606,800.111,411.8,800.762Z" transform="translate(-283.265 -431.526)" fill="#ffd037"/>
    <path id="Path_263" data-name="Path 263" d="M418.55,832.722s8.266-.252,10.758-2.031,12.722-3.89,13.34-1.046,12.422,14.154,3.087,14.23-21.687-1.455-24.174-2.968S418.55,832.722,418.55,832.722Z" transform="translate(-287.185 -446.432)" fill="#a8a8a8"/>
    <path id="Path_264" data-name="Path 264" d="M445.9,847.783c-9.331.076-21.687-1.455-24.174-2.968-1.9-1.156-2.649-5.3-2.9-7.205h-.276s.523,6.658,3.01,8.185,14.843,3.044,24.174,2.968c2.7,0,3.629-.98,3.576-2.4C448.935,847.241,447.908,847.783,445.9,847.783Z" transform="translate(-287.185 -451.339)" opacity="0.2"/>
    <path id="Path_265" data-name="Path 265" d="M812.246,787.03s-5.284-17.944.989-31.151a28.34,28.34,0,0,0,2.292-17.782,47.722,47.722,0,0,0-2.516-8.347" transform="translate(-492.553 -394.775)" fill="none" stroke="#535461" stroke-miterlimit="10" stroke-width="2"/>
    <path id="Path_266" data-name="Path 266" d="M815.576,707.957c0,2.2-3.981,8.561-3.981,8.561s-3.985-6.378-3.985-8.561a3.985,3.985,0,0,1,7.966,0Z" transform="translate(-491.213 -381.329)" fill="#6c63ff"/>
    <path id="Path_267" data-name="Path 267" d="M829.374,731.042c-1.194,1.845-8,5.032-8,5.032s.124-7.514,1.317-9.36a3.983,3.983,0,1,1,6.687,4.328Z" transform="translate(-498.429 -392.229)" fill="#6c63ff"/>
    <path id="Path_268" data-name="Path 268" d="M827.17,773.275c-1.959.989-9.45.3-9.45.3s3.9-6.425,5.864-7.419a3.992,3.992,0,0,1,3.586,7.134Z" transform="translate(-496.515 -413.646)" fill="#6c63ff"/>
    <path id="Path_269" data-name="Path 269" d="M819.464,806.679c-1.769,1.308-9.264,1.9-9.264,1.9s2.758-6.991,4.528-8.3a3.987,3.987,0,0,1,4.756,6.4Z" transform="translate(-492.571 -431.351)" fill="#6c63ff"/>
    <path id="Path_270" data-name="Path 270" d="M802.461,741.759c1.579,1.531,8.927,3.12,8.927,3.12s-1.8-7.3-3.377-8.832a3.981,3.981,0,1,0-5.55,5.707Z" transform="translate(-487.88 -397.487)" fill="#6c63ff"/>
    <path id="Path_271" data-name="Path 271" d="M792.7,779.741c1.964.989,9.45.3,9.45.3s-3.9-6.425-5.864-7.419a3.985,3.985,0,0,0-3.586,7.115Z" transform="translate(-482.298 -417.063)" fill="#6c63ff"/>
    <path id="Path_272" data-name="Path 272" d="M789.867,818.914c1.764,1.308,9.26,1.9,9.26,1.9s-2.758-7-4.528-8.3a3.989,3.989,0,0,0-4.756,6.406Z" transform="translate(-481.05 -437.765)" fill="#6c63ff"/>
    <path id="Path_273" data-name="Path 273" d="M815.576,707.957c0,2.2-3.981,8.561-3.981,8.561s-3.985-6.378-3.985-8.561a3.985,3.985,0,0,1,7.966,0Z" transform="translate(-491.213 -381.329)" fill="#6c63ff"/>
    <path id="Path_274" data-name="Path 274" d="M829.374,731.042c-1.194,1.845-8,5.032-8,5.032s.124-7.514,1.317-9.36a3.983,3.983,0,1,1,6.687,4.328Z" transform="translate(-498.429 -392.229)" fill="#6c63ff"/>
    <path id="Path_275" data-name="Path 275" d="M827.17,773.275c-1.959.989-9.45.3-9.45.3s3.9-6.425,5.864-7.419a3.992,3.992,0,0,1,3.586,7.134Z" transform="translate(-496.515 -413.646)" fill="#6c63ff"/>
    <path id="Path_276" data-name="Path 276" d="M819.464,806.679c-1.769,1.308-9.264,1.9-9.264,1.9s2.758-6.991,4.528-8.3a3.987,3.987,0,0,1,4.756,6.4Z" transform="translate(-492.571 -431.351)" fill="#6c63ff"/>
    <path id="Path_277" data-name="Path 277" d="M802.461,741.759c1.579,1.531,8.927,3.12,8.927,3.12s-1.8-7.3-3.377-8.832a3.981,3.981,0,1,0-5.55,5.707Z" transform="translate(-487.88 -397.487)" fill="#6c63ff"/>
    <path id="Path_278" data-name="Path 278" d="M792.7,779.741c1.964.989,9.45.3,9.45.3s-3.9-6.425-5.864-7.419a3.985,3.985,0,0,0-3.586,7.115Z" transform="translate(-482.298 -417.063)" fill="#6c63ff"/>
    <path id="Path_279" data-name="Path 279" d="M789.867,818.914c1.764,1.308,9.26,1.9,9.26,1.9s-2.758-7-4.528-8.3a3.989,3.989,0,0,0-4.756,6.406Z" transform="translate(-481.05 -437.765)" fill="#6c63ff"/>
    <path id="Path_280" data-name="Path 280" d="M788.27,840.891s6.439-1.279,8.152-2.982,9.44-4.685,10.3-2.554S818.3,844.724,811,846s-17.164,1.7-19.309.851S788.27,840.891,788.27,840.891Z" transform="translate(-481.071 -449.768)" fill="#a8a8a8"/>
    <path id="Path_281" data-name="Path 281" d="M811.013,852.065c-7.3,1.279-17.164,1.707-19.309.856-1.631-.652-2.768-3.767-3.22-5.231l-.214.043s1.289,5.113,3.434,5.964,12.013.428,19.309-.851c2.1-.371,2.706-1.236,2.478-2.33C813.31,851.243,812.577,851.794,811.013,852.065Z" transform="translate(-481.071 -456.625)" opacity="0.2"/>
    <path id="Path_282" data-name="Path 282" d="M272.081,99.838v.171a.548.548,0,0,0,0,.09c0,.076,0,.147,0,.224v.285a.062.062,0,0,1,0,.029v.309l-.043.333a1.107,1.107,0,0,1-.038.219h0a.872.872,0,0,0,0,.109v.067a.238.238,0,0,1,0,.057.2.2,0,0,1-.024.114c-.024.038,0,.076-.024.114s0,.057,0,.086a1.479,1.479,0,0,1-.033.147h0a.758.758,0,0,1-.024.1,1.186,1.186,0,0,1-.033.124.562.562,0,0,1-.038.147.114.114,0,0,0,0,.038.469.469,0,0,1-.048.152c-.043.152-.1.309-.147.476,0,.048-.038.1-.052.143a.523.523,0,0,1-.033.081,10.344,10.344,0,0,1-1.389,2.54l-.109.143a10.54,10.54,0,0,1-.894,1.018L254.166,122.01l-14.838-14.838a10.57,10.57,0,0,1-1.165-1.384,10.215,10.215,0,0,1-.6-.951,10.516,10.516,0,0,1-1.27-5.964,3.888,3.888,0,0,1,.067-.571q.071-.476.185-1a.7.7,0,0,1,.052-.195l.029-.1v-.057l.043-.152h0c.033-.114.071-.228.109-.342s.033-.1.052-.157c.076-.224.162-.442.257-.661l.057-.128.086-.195.152-.314h0c0-.048.048-.1.076-.143a1.271,1.271,0,0,1,.086-.157c.033-.067.071-.128.109-.195a.948.948,0,0,0,.052-.1.2.2,0,0,0,.033-.052h0l.071-.114c.029-.043.052-.086.081-.124l.19-.285.067-.1.086-.119.09-.124.114-.147.1-.124.038-.048.071-.086a1.646,1.646,0,0,1,.119-.138.7.7,0,0,1,.048-.062h0l.086-.1.1-.109c.09-.1.185-.2.285-.295l.114-.114.176-.166.119-.109.143-.124.09-.081.1-.076.185-.152.1-.076c.162-.124.323-.243.476-.352l.1-.067.1-.067.1-.062.138-.086.071-.043.1-.062c.138-.076.276-.157.414-.228l.081-.043.128-.067.1-.048.109-.052.1-.052.1-.048.109-.048c.143-.062.29-.119.433-.171l.109-.043.114-.043.1-.033.086-.029.2-.067.162-.109.081-.024h.081l.147-.043.19-.048c.195-.048.395-.09.594-.128h.542c.19,0,.38-.043.575-.057h1.593c.157,0,.309.029.476.043l.209.029h.442c.2.038.395.081.59.128l.243.062h.067l.1.029.2.057.086.029.433.147.1.038.128.048.2.081.219.1.086.038.124.057.1.052.1.048.133.071.1.052.243.133.1.057.352.214.1.062.1.067.1.067h0l.067.043.414.3.1.076.185.152.1.076.09.081.143.124.119.109.176.166.114.114.119-.114c.057-.057.114-.114.176-.166a1.3,1.3,0,0,1,.119-.109l.138-.124.1-.081.09-.076.19-.152.1-.076c.162-.124.323-.243.476-.352l.1-.067.1-.067.1-.062.138-.086.071-.043.1-.062c.138-.076.276-.157.414-.228l.081-.043.128-.067.1-.048.1-.052.109-.052.1-.048.109-.048c.143-.062.285-.119.433-.171l.1-.043.119-.043.1-.033.086-.029.2-.067.1-.029.086-.024h.081l.143-.043.19-.048q.3-.071.6-.128h.537c.19,0,.385-.043.575-.057h1.593l.476.043.2.029h.447c.2.038.395.081.59.128l.243.062h.067l.1.029.2.057.086.029.433.147.1.038.128.048.2.081.224.1.086.038.119.057.1.052.109.048.128.071.1.052.243.133.1.057.352.214.09.062.1.067.1.076h0l.062.043c.143.1.281.2.414.3a.741.741,0,0,1,.1.076c.067.048.128.1.19.152l.1.076.09.081.124.1.119.109.067.067h0l.114.109.052.052.062.062.114.114.176.185a1.044,1.044,0,0,1,.1.109c.057.057.109.119.166.181l.171.2a8.517,8.517,0,0,1,.547.742.712.712,0,0,1,.1.081.888.888,0,0,1,.076.109l.062.1.1.166.09.157.052.1.043.076.043.076.062.114.057.114c.138.266.262.542.376.818l.048.119c.043.114.086.228.124.342a.957.957,0,0,1,.038.1.534.534,0,0,0,.048.147l.043.133.029.086a.488.488,0,0,0,.033.119l.043.152c.024.081.043.166.062.247s.024.086.033.128.024.119.038.181a.477.477,0,0,0,0,.081v1.374h0a148.226,148.226,0,0,1,0,.19v.157h0V99.5Z" transform="translate(-191.585 -58.952)" fill="#ff6584"/>
    <path id="Path_283" data-name="Path 283" d="M272.411,99.838v.171a.548.548,0,0,0,0,.09c0,.076,0,.147,0,.224v.285a.062.062,0,0,1,0,.029v.309l-.043.333a1.107,1.107,0,0,1-.038.219h0a.872.872,0,0,0,0,.109v.067a.238.238,0,0,1,0,.057.2.2,0,0,1-.024.114c-.024.038,0,.076-.024.114s0,.057,0,.086a1.479,1.479,0,0,1-.033.147h0a.758.758,0,0,1-.024.1,1.186,1.186,0,0,1-.033.124.562.562,0,0,1-.038.147.114.114,0,0,0,0,.038.469.469,0,0,1-.048.152c-.043.152-.1.309-.147.476,0,.048-.038.1-.052.143a.523.523,0,0,1-.033.081,10.463,10.463,0,0,0-2.782-9.878,10.635,10.635,0,0,0-1.793-1.427c-.19-.119-.38-.233-.575-.338a10.463,10.463,0,0,0-11.238.623,10.076,10.076,0,0,0-1.37,1.156,11.5,11.5,0,0,0-1.284-1.094h0a10.9,10.9,0,0,0-1.084-.685,10.506,10.506,0,0,0-10.106,0,10.861,10.861,0,0,0-1.493.994,10.638,10.638,0,0,0-2.026,2.15c-.209.295-.4.6-.58.908h0a9.876,9.876,0,0,0-.447.9c-.076.166-.147.338-.214.509a.7.7,0,0,1,.052-.195l.029-.1v-.057l.043-.152h0c.033-.114.071-.228.109-.342s.033-.1.052-.157c.076-.224.162-.442.257-.661l.057-.128.086-.195.152-.314h0c0-.048.048-.1.076-.143a1.273,1.273,0,0,1,.086-.157c.033-.067.071-.128.109-.2a.952.952,0,0,0,.052-.1.2.2,0,0,0,.033-.052h0l.071-.114c.029-.043.052-.086.081-.124l.19-.285.067-.1.086-.119.09-.124.114-.147.1-.124.038-.048.071-.086a1.653,1.653,0,0,1,.119-.138.7.7,0,0,1,.048-.062h0l.086-.1.1-.109c.09-.1.185-.2.285-.295l.114-.114.176-.166.119-.109.143-.124.09-.081.1-.076.185-.152.1-.076c.162-.124.323-.243.476-.352l.1-.067.1-.067.1-.062.138-.086.071-.043.1-.062c.138-.076.276-.157.414-.228l.081-.043.128-.067.1-.048.109-.052.1-.052.1-.048.109-.048c.143-.062.29-.119.433-.171l.109-.043.114-.043.1-.033.086-.029.2-.067.152-.076.081-.024h.081l.147-.043.19-.048c.195-.048.395-.09.594-.128h.542c.19,0,.38-.043.575-.057h1.593c.157,0,.309.029.476.043l.209.029H249c.2.038.395.081.59.128l.243.062h.067l.1.029.2.057.086.029.433.147.1.038.128.048.2.081.219.1.086.038.124.057.1.052.1.048.133.071.1.052.243.133.1.057.352.214.1.062.1.067.1.067h0l.067.043.414.3.1.076.185.152.1.076.09.081.143.124.119.109.176.166.114.114.119-.114c.057-.057.114-.114.176-.166a1.3,1.3,0,0,1,.119-.109l.138-.124.1-.081.09-.076.19-.152.1-.076c.162-.124.323-.243.476-.352l.1-.067.1-.067.1-.062.138-.086.071-.043.1-.062c.138-.076.276-.157.414-.228l.081-.043.128-.067.1-.048.1-.052.109-.052.1-.048.109-.048c.143-.062.285-.119.433-.171l.1-.043.119-.043.1-.033.086-.029.2-.067.1-.029.086-.024h.081l.143-.043.19-.048q.3-.071.6-.128h.537c.19,0,.385-.043.575-.057h1.593l.476.043.2.029h.447c.2.038.395.081.59.128l.243.062h.067l.1.029.2.057.086.029.433.147.1.038.128.048.2.081.224.1.086.038.119.057.1.052.109.048.128.071.1.052.243.133.1.057.352.214.09.062.1.067.1.076h0l.062.043c.143.1.281.2.414.3a.741.741,0,0,1,.1.076c.067.048.128.1.19.152l.1.076.09.081.124.1.119.109.067.067h0l.114.109.052.052.062.062.114.114.176.185a1.044,1.044,0,0,1,.1.109c.057.057.109.119.166.181l.171.2a8.517,8.517,0,0,1,.547.742.712.712,0,0,1,.1.081.888.888,0,0,1,.076.109l.062.1.1.166.09.157.052.1.043.076.043.076.062.114.057.114c.138.266.262.542.376.818l.048.119c.043.114.086.228.124.342a.957.957,0,0,1,.038.1.534.534,0,0,0,.048.147l.043.133.029.086a.488.488,0,0,0,.033.119l.043.152c.024.081.043.166.062.247s.024.086.033.128.024.119.038.181a.477.477,0,0,0,0,.081v1.374h0a148.226,148.226,0,0,1,0,.19v.157h0V99.5Z" transform="translate(-191.915 -58.952)" opacity="0.1"/>
  </g>
</svg>
